{
.appVersion = "869";
DisplayStrings = (
"/jha-kannada.base",
""
);
date = "2016-04-03 03:30:39 +0000";
familyName = "new Font";
fontMaster = (
{
ascender = 800;
capHeight = 700;
descender = -200;
id = "EE99E773-27DB-4D1B-BC83-5C5BC0C316FA";
xHeight = 500;
}
);
glyphs = (
{
glyphname = "a-kannada";
lastChange = "2016-04-03 03:30:58 +0000";
layers = (
{
layerId = "EE99E773-27DB-4D1B-BC83-5C5BC0C316FA";
paths = (
{
closed = 1;
nodes = (
"226 299 CURVE SMOOTH",
"193 299 OFFCURVE",
"163 318 OFFCURVE",
"137 348 CURVE",
"155 393 OFFCURVE",
"186 425 OFFCURVE",
"224 425 CURVE SMOOTH",
"267 425 OFFCURVE",
"293 396 OFFCURVE",
"293 359 CURVE SMOOTH",
"293 322 OFFCURVE",
"263 299 OFFCURVE"
);
},
{
closed = 1;
nodes = (
"706 259 CURVE SMOOTH",
"706 402 OFFCURVE",
"624 460 OFFCURVE",
"557 460 CURVE SMOOTH",
"484 460 OFFCURVE",
"443 404 OFFCURVE",
"443 343 CURVE SMOOTH",
"443 302 OFFCURVE",
"461 265 OFFCURVE",
"495 227 CURVE",
"338 227 LINE SMOOTH",
"326 227 OFFCURVE",
"315 216 OFFCURVE",
"315 204 CURVE SMOOTH",
"315 192 OFFCURVE",
"326 181 OFFCURVE",
"338 181 CURVE SMOOTH",
"550 181 LINE SMOOTH",
"562 181 OFFCURVE",
"573 192 OFFCURVE",
"573 204 CURVE SMOOTH",
"573 211 OFFCURVE",
"570 216 OFFCURVE",
"563 223 CURVE SMOOTH",
"519 263 OFFCURVE",
"489 299 OFFCURVE",
"489 343 CURVE SMOOTH",
"489 380 OFFCURVE",
"512 414 OFFCURVE",
"557 414 CURVE SMOOTH",
"608 414 OFFCURVE",
"660 358 OFFCURVE",
"660 259 CURVE SMOOTH",
"660 138 OFFCURVE",
"574 46 OFFCURVE",
"376 46 CURVE SMOOTH",
"212 46 OFFCURVE",
"118 136 OFFCURVE",
"118 249 CURVE SMOOTH",
"118 265 OFFCURVE",
"120 282 OFFCURVE",
"122 297 CURVE",
"154 268 OFFCURVE",
"189 253 OFFCURVE",
"226 253 CURVE SMOOTH",
"291 253 OFFCURVE",
"339 296 OFFCURVE",
"339 359 CURVE SMOOTH",
"339 420 OFFCURVE",
"297 471 OFFCURVE",
"224 471 CURVE SMOOTH",
"144 471 OFFCURVE",
"72 370 OFFCURVE",
"72 249 CURVE SMOOTH",
"72 116 OFFCURVE",
"174 0 OFFCURVE",
"376 0 CURVE SMOOTH",
"616 0 OFFCURVE",
"706 118 OFFCURVE"
);
}
);
width = 773;
}
);
unicode = 0C85;
userData = {
com.typemytype.robofont.layerData = {
background = {
anchors = (
);
components = (
);
contours = (
);
lib = {
};
name = knA;
unicodes = (
);
width = 773;
};
};
};
},
{
glyphname = "aa-kannada";
lastChange = "2016-04-03 03:30:58 +0000";
layers = (
{
layerId = "EE99E773-27DB-4D1B-BC83-5C5BC0C316FA";
paths = (
{
closed = 1;
nodes = (
"226 299 CURVE SMOOTH",
"193 299 OFFCURVE",
"163 318 OFFCURVE",
"137 348 CURVE",
"155 393 OFFCURVE",
"186 425 OFFCURVE",
"224 425 CURVE SMOOTH",
"267 425 OFFCURVE",
"293 396 OFFCURVE",
"293 359 CURVE SMOOTH",
"293 322 OFFCURVE",
"263 299 OFFCURVE"
);
},
{
closed = 1;
nodes = (
"582 268 CURVE SMOOTH",
"560 290 OFFCURVE",
"544 311 OFFCURVE",
"544 344 CURVE SMOOTH",
"544 380 OFFCURVE",
"568 410 OFFCURVE",
"606 410 CURVE SMOOTH",
"647 410 OFFCURVE",
"674 380 OFFCURVE",
"674 341 CURVE SMOOTH",
"674 306 OFFCURVE",
"646 273 OFFCURVE",
"594 255 CURVE",
"590 259 OFFCURVE",
"586 264 OFFCURVE"
);
},
{
closed = 1;
nodes = (
"634 156 CURVE SMOOTH",
"634 177 OFFCURVE",
"629 196 OFFCURVE",
"620 214 CURVE",
"692 243 OFFCURVE",
"720 294 OFFCURVE",
"720 341 CURVE SMOOTH",
"720 406 OFFCURVE",
"675 456 OFFCURVE",
"606 456 CURVE SMOOTH",
"542 456 OFFCURVE",
"498 408 OFFCURVE",
"498 344 CURVE SMOOTH",
"498 300 OFFCURVE",
"516 272 OFFCURVE",
"542 242 CURVE",
"525 239 OFFCURVE",
"505 238 OFFCURVE",
"484 238 CURVE SMOOTH",
"370 238 LINE SMOOTH",
"358 238 OFFCURVE",
"347 227 OFFCURVE",
"347 215 CURVE SMOOTH",
"347 203 OFFCURVE",
"358 192 OFFCURVE",
"370 192 CURVE SMOOTH",
"484 192 LINE SMOOTH",
"519 192 OFFCURVE",
"549 195 OFFCURVE",
"575 201 CURVE",
"583 187 OFFCURVE",
"588 172 OFFCURVE",
"588 156 CURVE SMOOTH",
"588 100 OFFCURVE",
"518 46 OFFCURVE",
"385 46 CURVE SMOOTH",
"213 46 OFFCURVE",
"118 136 OFFCURVE",
"118 249 CURVE SMOOTH",
"118 265 OFFCURVE",
"120 282 OFFCURVE",
"122 297 CURVE",
"154 268 OFFCURVE",
"189 253 OFFCURVE",
"226 253 CURVE SMOOTH",
"291 253 OFFCURVE",
"339 296 OFFCURVE",
"339 359 CURVE SMOOTH",
"339 420 OFFCURVE",
"297 471 OFFCURVE",
"224 471 CURVE SMOOTH",
"144 471 OFFCURVE",
"72 370 OFFCURVE",
"72 249 CURVE SMOOTH",
"72 116 OFFCURVE",
"173 0 OFFCURVE",
"385 0 CURVE SMOOTH",
"574 0 OFFCURVE",
"634 88 OFFCURVE"
);
}
);
width = 770;
}
);
unicode = 0C86;
userData = {
com.typemytype.robofont.layerData = {
background = {
anchors = (
);
components = (
);
contours = (
);
lib = {
};
name = knAA;
unicodes = (
);
width = 770;
};
};
};
},
{
glyphname = "i-kannada";
lastChange = "2016-04-03 03:30:58 +0000";
layers = (
{
layerId = "EE99E773-27DB-4D1B-BC83-5C5BC0C316FA";
paths = (
{
closed = 1;
nodes = (
"571 -46 CURVE SMOOTH",
"585 -46 OFFCURVE",
"594 -34 OFFCURVE",
"594 -23 CURVE SMOOTH",
"594 -19 OFFCURVE",
"590 -6 OFFCURVE",
"583 12 CURVE SMOOTH",
"570 45 OFFCURVE",
"555 74 OFFCURVE",
"537 100 CURVE",
"605 162 OFFCURVE",
"647 246 OFFCURVE",
"647 312 CURVE SMOOTH",
"647 407 OFFCURVE",
"589 462 OFFCURVE",
"508 462 CURVE SMOOTH",
"442 462 OFFCURVE",
"397 426 OFFCURVE",
"358 366 CURVE",
"318 425 OFFCURVE",
"268 463 OFFCURVE",
"199 463 CURVE SMOOTH",
"116 463 OFFCURVE",
"65 402 OFFCURVE",
"65 328 CURVE SMOOTH",
"65 300 OFFCURVE",
"73 272 OFFCURVE",
"91 242 CURVE SMOOTH",
"96 235 OFFCURVE",
"103 231 OFFCURVE",
"111 231 CURVE SMOOTH",
"125 231 OFFCURVE",
"134 242 OFFCURVE",
"134 254 CURVE SMOOTH",
"134 258 OFFCURVE",
"133 262 OFFCURVE",
"131 266 CURVE SMOOTH",
"117 288 OFFCURVE",
"111 308 OFFCURVE",
"111 328 CURVE SMOOTH",
"111 376 OFFCURVE",
"144 417 OFFCURVE",
"199 417 CURVE SMOOTH",
"263 417 OFFCURVE",
"304 373 OFFCURVE",
"335 315 CURVE SMOOTH",
"339 308 OFFCURVE",
"348 303 OFFCURVE",
"355 303 CURVE SMOOTH",
"360 303 LINE SMOOTH",
"367 303 OFFCURVE",
"375 308 OFFCURVE",
"379 315 CURVE SMOOTH",
"413 373 OFFCURVE",
"448 416 OFFCURVE",
"508 416 CURVE SMOOTH",
"565 416 OFFCURVE",
"601 375 OFFCURVE",
"601 312 CURVE SMOOTH",
"601 257 OFFCURVE",
"566 187 OFFCURVE",
"509 136 CURVE",
"460 192 OFFCURVE",
"398 225 OFFCURVE",
"335 225 CURVE SMOOTH",
"242 225 OFFCURVE",
"207 167 OFFCURVE",
"207 122 CURVE SMOOTH",
"207 76 OFFCURVE",
"242 20 OFFCURVE",
"336 20 CURVE SMOOTH",
"398 20 OFFCURVE",
"454 41 OFFCURVE",
"500 72 CURVE",
"519 43 OFFCURVE",
"536 9 OFFCURVE",
"549 -30 CURVE SMOOTH",
"552 -40 OFFCURVE",
"562 -46 OFFCURVE"
);
},
{
closed = 1;
nodes = (
"336 66 CURVE SMOOTH",
"284 66 OFFCURVE",
"253 92 OFFCURVE",
"253 122 CURVE SMOOTH",
"253 151 OFFCURVE",
"284 179 OFFCURVE",
"335 179 CURVE SMOOTH",
"385 179 OFFCURVE",
"433 154 OFFCURVE",
"473 108 CURVE",
"434 83 OFFCURVE",
"387 66 OFFCURVE"
);
}
);
width = 709;
}
);
unicode = 0C87;
userData = {
com.typemytype.robofont.layerData = {
background = {
anchors = (
);
components = (
);
contours = (
);
lib = {
};
name = knI;
unicodes = (
);
width = 709;
};
};
};
},
{
glyphname = "ii-kannada";
lastChange = "2016-04-03 03:30:58 +0000";
layers = (
{
layerId = "EE99E773-27DB-4D1B-BC83-5C5BC0C316FA";
paths = (
{
closed = 1;
nodes = (
"382 410 CURVE SMOOTH",
"478 410 OFFCURVE",
"553 328 OFFCURVE",
"565 242 CURVE",
"198 242 LINE",
"210 329 OFFCURVE",
"287 410 OFFCURVE"
);
},
{
closed = 1;
nodes = (
"746 297 CURVE SMOOTH",
"746 345 OFFCURVE",
"773 377 OFFCURVE",
"810 377 CURVE SMOOTH",
"847 377 OFFCURVE",
"871 345 OFFCURVE",
"871 310 CURVE SMOOTH",
"871 271 OFFCURVE",
"844 242 OFFCURVE",
"793 242 CURVE SMOOTH",
"757 242 LINE",
"751 261 OFFCURVE",
"746 281 OFFCURVE"
);
},
{
closed = 1;
nodes = (
"382 -4 CURVE SMOOTH",
"512 -4 OFFCURVE",
"602 78 OFFCURVE",
"612 196 CURVE",
"726 196 LINE",
"733 181 OFFCURVE",
"740 166 OFFCURVE",
"747 153 CURVE SMOOTH",
"765 119 OFFCURVE",
"782 78 OFFCURVE",
"782 24 CURVE SMOOTH",
"782 12 OFFCURVE",
"793 1 OFFCURVE",
"805 1 CURVE SMOOTH",
"817 1 OFFCURVE",
"828 12 OFFCURVE",
"828 24 CURVE SMOOTH",
"828 85 OFFCURVE",
"811 129 OFFCURVE",
"788 173 CURVE SMOOTH",
"783 182 OFFCURVE",
"780 189 OFFCURVE",
"777 196 CURVE",
"793 196 LINE SMOOTH",
"878 196 OFFCURVE",
"917 249 OFFCURVE",
"917 310 CURVE SMOOTH",
"917 371 OFFCURVE",
"873 423 OFFCURVE",
"810 423 CURVE SMOOTH",
"753 423 OFFCURVE",
"700 379 OFFCURVE",
"700 297 CURVE SMOOTH",
"700 281 OFFCURVE",
"704 262 OFFCURVE",
"710 242 CURVE",
"612 242 LINE",
"604 307 OFFCURVE",
"568 370 OFFCURVE",
"514 411 CURVE",
"585 415 OFFCURVE",
"628 445 OFFCURVE",
"662 499 CURVE SMOOTH",
"664 503 OFFCURVE",
"665 507 OFFCURVE",
"665 511 CURVE SMOOTH",
"665 524 OFFCURVE",
"656 534 OFFCURVE",
"642 534 CURVE SMOOTH",
"634 534 OFFCURVE",
"627 530 OFFCURVE",
"622 523 CURVE SMOOTH",
"594 478 OFFCURVE",
"557 456 OFFCURVE",
"494 456 CURVE SMOOTH",
"151 456 LINE SMOOTH",
"139 456 OFFCURVE",
"128 445 OFFCURVE",
"128 433 CURVE SMOOTH",
"128 421 OFFCURVE",
"139 410 OFFCURVE",
"151 410 CURVE SMOOTH",
"248 410 LINE",
"195 370 OFFCURVE",
"159 307 OFFCURVE",
"151 242 CURVE",
"71 242 LINE SMOOTH",
"59 242 OFFCURVE",
"48 231 OFFCURVE",
"48 219 CURVE SMOOTH",
"48 207 OFFCURVE",
"59 196 OFFCURVE",
"71 196 CURVE SMOOTH",
"151 196 LINE",
"161 76 OFFCURVE",
"252 -4 OFFCURVE"
);
},
{
closed = 1;
nodes = (
"382 42 CURVE SMOOTH",
"280 42 OFFCURVE",
"207 102 OFFCURVE",
"197 196 CURVE",
"566 196 LINE",
"556 104 OFFCURVE",
"484 42 OFFCURVE"
);
}
);
width = 973;
}
);
unicode = 0C88;
userData = {
com.typemytype.robofont.guides = (
);
com.typemytype.robofont.layerData = {
background = {
anchors = (
);
components = (
);
contours = (
);
lib = {
};
name = knII;
unicodes = (
);
width = 973;
};
};
};
},
{
glyphname = "u-kannada";
lastChange = "2016-04-03 03:30:58 +0000";
layers = (
{
layerId = "EE99E773-27DB-4D1B-BC83-5C5BC0C316FA";
paths = (
{
closed = 1;
nodes = (
"232 299 CURVE SMOOTH",
"198 299 OFFCURVE",
"168 318 OFFCURVE",
"143 349 CURVE",
"161 395 OFFCURVE",
"192 425 OFFCURVE",
"230 425 CURVE SMOOTH",
"273 425 OFFCURVE",
"299 396 OFFCURVE",
"299 359 CURVE SMOOTH",
"299 322 OFFCURVE",
"269 299 OFFCURVE"
);
},
{
closed = 1;
nodes = (
"985 175 CURVE SMOOTH",
"985 278 OFFCURVE",
"937 371 OFFCURVE",
"871 439 CURVE SMOOTH",
"866 444 OFFCURVE",
"860 446 OFFCURVE",
"854 446 CURVE SMOOTH",
"841 446 OFFCURVE",
"831 436 OFFCURVE",
"831 423 CURVE SMOOTH",
"831 417 OFFCURVE",
"833 411 OFFCURVE",
"837 407 CURVE SMOOTH",
"895 347 OFFCURVE",
"939 266 OFFCURVE",
"939 175 CURVE SMOOTH",
"939 91 OFFCURVE",
"887 46 OFFCURVE",
"829 46 CURVE SMOOTH",
"790 46 OFFCURVE",
"760 58 OFFCURVE",
"739 78 CURVE SMOOTH",
"716 101 OFFCURVE",
"696 141 OFFCURVE",
"684 249 CURVE SMOOTH",
"669 386 OFFCURVE",
"628 434 OFFCURVE",
"557 434 CURVE SMOOTH",
"499 434 OFFCURVE",
"454 390 OFFCURVE",
"427 264 CURVE SMOOTH",
"402 154 OFFCURVE",
"375 104 OFFCURVE",
"350 78 CURVE SMOOTH",
"329 57 OFFCURVE",
"298 46 OFFCURVE",
"267 46 CURVE SMOOTH",
"185 46 OFFCURVE",
"123 126 OFFCURVE",
"123 236 CURVE SMOOTH",
"123 258 OFFCURVE",
"125 278 OFFCURVE",
"128 298 CURVE",
"160 268 OFFCURVE",
"195 253 OFFCURVE",
"232 253 CURVE SMOOTH",
"297 253 OFFCURVE",
"345 296 OFFCURVE",
"345 359 CURVE SMOOTH",
"345 420 OFFCURVE",
"303 471 OFFCURVE",
"230 471 CURVE SMOOTH",
"150 471 OFFCURVE",
"77 385 OFFCURVE",
"77 236 CURVE SMOOTH",
"77 92 OFFCURVE",
"165 0 OFFCURVE",
"267 0 CURVE SMOOTH",
"310 0 OFFCURVE",
"353 17 OFFCURVE",
"382 46 CURVE SMOOTH",
"411 74 OFFCURVE",
"444 130 OFFCURVE",
"471 254 CURVE SMOOTH",
"490 336 OFFCURVE",
"513 388 OFFCURVE",
"557 388 CURVE SMOOTH",
"612 388 OFFCURVE",
"629 332 OFFCURVE",
"638 245 CURVE SMOOTH",
"652 117 OFFCURVE",
"680 73 OFFCURVE",
"707 46 CURVE SMOOTH",
"734 18 OFFCURVE",
"776 0 OFFCURVE",
"829 0 CURVE SMOOTH",
"907 0 OFFCURVE",
"985 57 OFFCURVE"
);
}
);
width = 1052;
}
);
unicode = 0C89;
userData = {
com.typemytype.robofont.layerData = {
background = {
anchors = (
);
components = (
);
contours = (
);
lib = {
};
name = knU;
unicodes = (
);
width = 1052;
};
};
};
},
{
glyphname = "uu-kannada";
lastChange = "2016-04-03 03:30:58 +0000";
layers = (
{
layerId = "EE99E773-27DB-4D1B-BC83-5C5BC0C316FA";
paths = (
{
closed = 1;
nodes = (
"232 299 CURVE SMOOTH",
"198 299 OFFCURVE",
"168 318 OFFCURVE",
"143 349 CURVE",
"161 395 OFFCURVE",
"192 425 OFFCURVE",
"230 425 CURVE SMOOTH",
"273 425 OFFCURVE",
"299 396 OFFCURVE",
"299 359 CURVE SMOOTH",
"299 322 OFFCURVE",
"269 299 OFFCURVE"
);
},
{
closed = 1;
nodes = (
"1287 167 CURVE SMOOTH",
"1287 354 OFFCURVE",
"1148 456 OFFCURVE",
"1038 456 CURVE SMOOTH",
"929 456 OFFCURVE",
"873 366 OFFCURVE",
"873 288 CURVE SMOOTH",
"873 228 OFFCURVE",
"898 178 OFFCURVE",
"898 125 CURVE SMOOTH",
"898 78 OFFCURVE",
"869 46 OFFCURVE",
"819 46 CURVE SMOOTH",
"782 46 OFFCURVE",
"759 58 OFFCURVE",
"739 78 CURVE SMOOTH",
"716 101 OFFCURVE",
"696 141 OFFCURVE",
"684 249 CURVE SMOOTH",
"669 386 OFFCURVE",
"628 434 OFFCURVE",
"557 434 CURVE SMOOTH",
"499 434 OFFCURVE",
"454 390 OFFCURVE",
"427 264 CURVE SMOOTH",
"402 154 OFFCURVE",
"375 104 OFFCURVE",
"350 78 CURVE SMOOTH",
"329 57 OFFCURVE",
"298 46 OFFCURVE",
"267 46 CURVE SMOOTH",
"185 46 OFFCURVE",
"123 126 OFFCURVE",
"123 236 CURVE SMOOTH",
"123 258 OFFCURVE",
"125 278 OFFCURVE",
"128 298 CURVE",
"160 268 OFFCURVE",
"195 253 OFFCURVE",
"232 253 CURVE SMOOTH",
"297 253 OFFCURVE",
"345 296 OFFCURVE",
"345 359 CURVE SMOOTH",
"345 420 OFFCURVE",
"303 471 OFFCURVE",
"230 471 CURVE SMOOTH",
"150 471 OFFCURVE",
"77 385 OFFCURVE",
"77 236 CURVE SMOOTH",
"77 92 OFFCURVE",
"165 0 OFFCURVE",
"267 0 CURVE SMOOTH",
"310 0 OFFCURVE",
"353 17 OFFCURVE",
"382 46 CURVE SMOOTH",
"411 74 OFFCURVE",
"444 130 OFFCURVE",
"471 254 CURVE SMOOTH",
"490 336 OFFCURVE",
"513 388 OFFCURVE",
"557 388 CURVE SMOOTH",
"612 388 OFFCURVE",
"629 332 OFFCURVE",
"638 245 CURVE SMOOTH",
"652 117 OFFCURVE",
"680 73 OFFCURVE",
"707 46 CURVE SMOOTH",
"735 18 OFFCURVE",
"768 0 OFFCURVE",
"819 0 CURVE SMOOTH",
"899 0 OFFCURVE",
"944 50 OFFCURVE",
"944 125 CURVE SMOOTH",
"944 178 OFFCURVE",
"919 228 OFFCURVE",
"919 288 CURVE SMOOTH",
"919 344 OFFCURVE",
"959 410 OFFCURVE",
"1038 410 CURVE SMOOTH",
"1118 410 OFFCURVE",
"1213 341 OFFCURVE",
"1236 221 CURVE",
"1216 226 OFFCURVE",
"1195 229 OFFCURVE",
"1175 229 CURVE SMOOTH",
"1084 229 OFFCURVE",
"1042 171 OFFCURVE",
"1042 106 CURVE SMOOTH",
"1042 48 OFFCURVE",
"1083 -4 OFFCURVE",
"1154 -4 CURVE SMOOTH",
"1227 -4 OFFCURVE",
"1287 55 OFFCURVE"
);
},
{
closed = 1;
nodes = (
"1154 42 CURVE SMOOTH",
"1113 42 OFFCURVE",
"1088 72 OFFCURVE",
"1088 106 CURVE SMOOTH",
"1088 149 OFFCURVE",
"1118 183 OFFCURVE",
"1175 183 CURVE SMOOTH",
"1198 183 OFFCURVE",
"1221 178 OFFCURVE",
"1241 172 CURVE",
"1241 167 LINE SMOOTH",
"1241 93 OFFCURVE",
"1207 42 OFFCURVE"
);
}
);
width = 1354;
}
);
unicode = 0C8A;
userData = {
com.typemytype.robofont.layerData = {
background = {
anchors = (
);
components = (
);
contours = (
);
lib = {
};
name = knUU;
unicodes = (
);
width = 1354;
};
};
};
},
{
glyphname = "rVocalic-kannada";
lastChange = "2016-04-03 03:30:58 +0000";
layers = (
{
layerId = "EE99E773-27DB-4D1B-BC83-5C5BC0C316FA";
paths = (
{
closed = 1;
nodes = (
"193 311 CURVE SMOOTH",
"161 311 OFFCURVE",
"134 334 OFFCURVE",
"134 365 CURVE SMOOTH",
"134 395 OFFCURVE",
"161 424 OFFCURVE",
"208 424 CURVE SMOOTH",
"225 424 OFFCURVE",
"241 422 OFFCURVE",
"256 419 CURVE",
"260 407 OFFCURVE",
"265 391 OFFCURVE",
"265 373 CURVE SMOOTH",
"265 335 OFFCURVE",
"235 311 OFFCURVE"
);
},
{
closed = 1;
nodes = (
"208 42 CURVE SMOOTH",
"153 42 OFFCURVE",
"123 67 OFFCURVE",
"123 97 CURVE SMOOTH",
"123 124 OFFCURVE",
"153 152 OFFCURVE",
"197 152 CURVE SMOOTH",
"247 152 OFFCURVE",
"295 130 OFFCURVE",
"339 98 CURVE",
"307 65 OFFCURVE",
"263 42 OFFCURVE"
);
},
{
closed = 1;
nodes = (
"556 0 CURVE SMOOTH",
"611 0 OFFCURVE",
"660 25 OFFCURVE",
"686 77 CURVE",
"732 22 OFFCURVE",
"781 0 OFFCURVE",
"842 0 CURVE SMOOTH",
"948 0 OFFCURVE",
"1004 69 OFFCURVE",
"1004 169 CURVE SMOOTH",
"1004 255 OFFCURVE",
"956 357 OFFCURVE",
"892 427 CURVE SMOOTH",
"888 432 OFFCURVE",
"882 435 OFFCURVE",
"875 435 CURVE SMOOTH",
"863 435 OFFCURVE",
"852 425 OFFCURVE",
"852 412 CURVE SMOOTH",
"852 407 OFFCURVE",
"854 401 OFFCURVE",
"858 397 CURVE SMOOTH",
"914 335 OFFCURVE",
"958 245 OFFCURVE",
"958 169 CURVE SMOOTH",
"958 97 OFFCURVE",
"920 46 OFFCURVE",
"842 46 CURVE SMOOTH",
"785 46 OFFCURVE",
"743 72 OFFCURVE",
"703 131 CURVE",
"706 144 OFFCURVE",
"707 159 OFFCURVE",
"707 175 CURVE SMOOTH",
"707 264 OFFCURVE",
"669 348 OFFCURVE",
"616 414 CURVE",
"673 423 OFFCURVE",
"709 452 OFFCURVE",
"739 499 CURVE SMOOTH",
"741 503 OFFCURVE",
"742 507 OFFCURVE",
"742 511 CURVE SMOOTH",
"742 524 OFFCURVE",
"733 534 OFFCURVE",
"719 534 CURVE SMOOTH",
"711 534 OFFCURVE",
"704 530 OFFCURVE",
"699 523 CURVE SMOOTH",
"671 478 OFFCURVE",
"634 456 OFFCURVE",
"571 456 CURVE SMOOTH",
"489 456 LINE SMOOTH",
"477 456 OFFCURVE",
"466 445 OFFCURVE",
"466 433 CURVE SMOOTH",
"466 421 OFFCURVE",
"477 410 OFFCURVE",
"489 410 CURVE SMOOTH",
"559 410 LINE",
"617 350 OFFCURVE",
"661 265 OFFCURVE",
"661 175 CURVE SMOOTH",
"661 92 OFFCURVE",
"617 46 OFFCURVE",
"556 46 CURVE SMOOTH",
"500 46 OFFCURVE",
"454 65 OFFCURVE",
"403 107 CURVE",
"428 148 OFFCURVE",
"442 195 OFFCURVE",
"442 238 CURVE SMOOTH",
"442 366 OFFCURVE",
"347 470 OFFCURVE",
"208 470 CURVE SMOOTH",
"123 470 OFFCURVE",
"88 413 OFFCURVE",
"88 365 CURVE SMOOTH",
"88 310 OFFCURVE",
"133 265 OFFCURVE",
"193 265 CURVE SMOOTH",
"267 265 OFFCURVE",
"311 311 OFFCURVE",
"311 373 CURVE SMOOTH",
"311 381 OFFCURVE",
"310 389 OFFCURVE",
"309 397 CURVE",
"363 364 OFFCURVE",
"396 305 OFFCURVE",
"396 238 CURVE SMOOTH",
"396 205 OFFCURVE",
"386 168 OFFCURVE",
"366 135 CURVE",
"314 173 OFFCURVE",
"256 198 OFFCURVE",
"197 198 CURVE SMOOTH",
"115 198 OFFCURVE",
"77 140 OFFCURVE",
"77 97 CURVE SMOOTH",
"77 51 OFFCURVE",
"107 -4 OFFCURVE",
"208 -4 CURVE SMOOTH",
"278 -4 OFFCURVE",
"335 26 OFFCURVE",
"374 70 CURVE",
"435 21 OFFCURVE",
"491 0 OFFCURVE"
);
}
);
width = 1071;
}
);
unicode = 0C8B;
userData = {
com.typemytype.robofont.layerData = {
background = {
anchors = (
);
components = (
);
contours = (
);
lib = {
};
name = knvR;
unicodes = (
);
width = 1071;
};
};
};
},
{
glyphname = "rrVocalic-kannada";
lastChange = "2016-04-03 03:30:58 +0000";
layers = (
{
layerId = "EE99E773-27DB-4D1B-BC83-5C5BC0C316FA";
paths = (
{
closed = 1;
nodes = (
"193 311 CURVE SMOOTH",
"161 311 OFFCURVE",
"134 334 OFFCURVE",
"134 365 CURVE SMOOTH",
"134 395 OFFCURVE",
"161 424 OFFCURVE",
"208 424 CURVE SMOOTH",
"225 424 OFFCURVE",
"241 422 OFFCURVE",
"256 419 CURVE",
"260 407 OFFCURVE",
"265 391 OFFCURVE",
"265 373 CURVE SMOOTH",
"265 335 OFFCURVE",
"235 311 OFFCURVE"
);
},
{
closed = 1;
nodes = (
"1172 -4 CURVE SMOOTH",
"1245 -4 OFFCURVE",
"1305 55 OFFCURVE",
"1305 167 CURVE SMOOTH",
"1305 354 OFFCURVE",
"1166 456 OFFCURVE",
"1056 456 CURVE SMOOTH",
"947 456 OFFCURVE",
"891 366 OFFCURVE",
"891 288 CURVE SMOOTH",
"891 228 OFFCURVE",
"916 178 OFFCURVE",
"916 125 CURVE SMOOTH",
"916 78 OFFCURVE",
"891 46 OFFCURVE",
"838 46 CURVE SMOOTH",
"790 46 OFFCURVE",
"746 80 OFFCURVE",
"705 142 CURVE",
"706 153 OFFCURVE",
"707 163 OFFCURVE",
"707 175 CURVE SMOOTH",
"707 264 OFFCURVE",
"669 348 OFFCURVE",
"616 414 CURVE",
"673 423 OFFCURVE",
"709 452 OFFCURVE",
"739 499 CURVE SMOOTH",
"741 503 OFFCURVE",
"742 507 OFFCURVE",
"742 511 CURVE SMOOTH",
"742 524 OFFCURVE",
"733 534 OFFCURVE",
"719 534 CURVE SMOOTH",
"711 534 OFFCURVE",
"704 530 OFFCURVE",
"699 523 CURVE SMOOTH",
"671 478 OFFCURVE",
"634 456 OFFCURVE",
"571 456 CURVE SMOOTH",
"489 456 LINE SMOOTH",
"477 456 OFFCURVE",
"466 445 OFFCURVE",
"466 433 CURVE SMOOTH",
"466 421 OFFCURVE",
"477 410 OFFCURVE",
"489 410 CURVE SMOOTH",
"559 410 LINE",
"617 350 OFFCURVE",
"661 265 OFFCURVE",
"661 175 CURVE SMOOTH",
"661 92 OFFCURVE",
"617 46 OFFCURVE",
"556 46 CURVE SMOOTH",
"500 46 OFFCURVE",
"454 65 OFFCURVE",
"403 107 CURVE",
"428 148 OFFCURVE",
"442 195 OFFCURVE",
"442 238 CURVE SMOOTH",
"442 366 OFFCURVE",
"347 470 OFFCURVE",
"208 470 CURVE SMOOTH",
"123 470 OFFCURVE",
"88 413 OFFCURVE",
"88 365 CURVE SMOOTH",
"88 310 OFFCURVE",
"133 265 OFFCURVE",
"193 265 CURVE SMOOTH",
"267 265 OFFCURVE",
"311 311 OFFCURVE",
"311 373 CURVE SMOOTH",
"311 381 OFFCURVE",
"310 389 OFFCURVE",
"309 397 CURVE",
"363 364 OFFCURVE",
"396 305 OFFCURVE",
"396 238 CURVE SMOOTH",
"396 205 OFFCURVE",
"386 168 OFFCURVE",
"366 135 CURVE",
"314 173 OFFCURVE",
"256 198 OFFCURVE",
"197 198 CURVE SMOOTH",
"115 198 OFFCURVE",
"77 140 OFFCURVE",
"77 97 CURVE SMOOTH",
"77 51 OFFCURVE",
"107 -4 OFFCURVE",
"208 -4 CURVE SMOOTH",
"278 -4 OFFCURVE",
"335 26 OFFCURVE",
"374 70 CURVE",
"435 21 OFFCURVE",
"491 0 OFFCURVE",
"556 0 CURVE SMOOTH",
"614 0 OFFCURVE",
"665 27 OFFCURVE",
"690 85 CURVE",
"737 27 OFFCURVE",
"787 0 OFFCURVE",
"838 0 CURVE SMOOTH",
"921 0 OFFCURVE",
"962 50 OFFCURVE",
"962 125 CURVE SMOOTH",
"962 178 OFFCURVE",
"937 228 OFFCURVE",
"937 288 CURVE SMOOTH",
"937 344 OFFCURVE",
"977 410 OFFCURVE",
"1056 410 CURVE SMOOTH",
"1136 410 OFFCURVE",
"1231 341 OFFCURVE",
"1254 221 CURVE",
"1234 226 OFFCURVE",
"1213 229 OFFCURVE",
"1193 229 CURVE SMOOTH",
"1102 229 OFFCURVE",
"1060 171 OFFCURVE",
"1060 106 CURVE SMOOTH",
"1060 48 OFFCURVE",
"1101 -4 OFFCURVE"
);
},
{
closed = 1;
nodes = (
"1172 42 CURVE SMOOTH",
"1131 42 OFFCURVE",
"1106 72 OFFCURVE",
"1106 106 CURVE SMOOTH",
"1106 149 OFFCURVE",
"1136 183 OFFCURVE",
"1193 183 CURVE SMOOTH",
"1216 183 OFFCURVE",
"1239 178 OFFCURVE",
"1259 172 CURVE",
"1259 167 LINE SMOOTH",
"1259 93 OFFCURVE",
"1225 42 OFFCURVE"
);
},
{
closed = 1;
nodes = (
"208 42 CURVE SMOOTH",
"153 42 OFFCURVE",
"123 67 OFFCURVE",
"123 97 CURVE SMOOTH",
"123 124 OFFCURVE",
"153 152 OFFCURVE",
"197 152 CURVE SMOOTH",
"247 152 OFFCURVE",
"295 130 OFFCURVE",
"339 98 CURVE",
"307 65 OFFCURVE",
"263 42 OFFCURVE"
);
}
);
width = 1372;
}
);
unicode = 0CE0;
userData = {
com.typemytype.robofont.layerData = {
background = {
anchors = (
);
components = (
);
contours = (
);
lib = {
};
name = knvRR;
unicodes = (
);
width = 1372;
};
};
};
},
{
glyphname = "lVocalic-kannada";
lastChange = "2016-04-03 03:30:58 +0000";
layers = (
{
layerId = "EE99E773-27DB-4D1B-BC83-5C5BC0C316FA";
paths = (
{
closed = 1;
nodes = (
"591 0 CURVE SMOOTH",
"692 0 OFFCURVE",
"746 28 OFFCURVE",
"782 64 CURVE SMOOTH",
"815 96 OFFCURVE",
"842 145 OFFCURVE",
"842 219 CURVE SMOOTH",
"842 289 OFFCURVE",
"820 369 OFFCURVE",
"771 445 CURVE SMOOTH",
"767 452 OFFCURVE",
"760 456 OFFCURVE",
"752 456 CURVE SMOOTH",
"741 456 OFFCURVE",
"729 446 OFFCURVE",
"729 433 CURVE SMOOTH",
"729 429 OFFCURVE",
"730 425 OFFCURVE",
"733 421 CURVE SMOOTH",
"776 353 OFFCURVE",
"796 281 OFFCURVE",
"796 219 CURVE SMOOTH",
"796 161 OFFCURVE",
"775 122 OFFCURVE",
"750 96 CURVE SMOOTH",
"720 66 OFFCURVE",
"674 46 OFFCURVE",
"591 46 CURVE SMOOTH",
"519 46 OFFCURVE",
"476 62 OFFCURVE",
"460 77 CURVE SMOOTH",
"450 87 OFFCURVE",
"443 99 OFFCURVE",
"443 112 CURVE SMOOTH",
"443 138 OFFCURVE",
"459 155 OFFCURVE",
"498 178 CURVE SMOOTH",
"541 202 OFFCURVE",
"572 224 OFFCURVE",
"590 242 CURVE SMOOTH",
"612 263 OFFCURVE",
"629 295 OFFCURVE",
"629 338 CURVE SMOOTH",
"629 402 OFFCURVE",
"582 462 OFFCURVE",
"503 462 CURVE SMOOTH",
"440 462 OFFCURVE",
"390 426 OFFCURVE",
"349 366 CURVE",
"309 425 OFFCURVE",
"260 463 OFFCURVE",
"199 463 CURVE SMOOTH",
"115 463 OFFCURVE",
"69 401 OFFCURVE",
"69 334 CURVE SMOOTH",
"69 300 OFFCURVE",
"79 271 OFFCURVE",
"95 243 CURVE SMOOTH",
"99 235 OFFCURVE",
"107 231 OFFCURVE",
"115 231 CURVE SMOOTH",
"128 231 OFFCURVE",
"138 243 OFFCURVE",
"138 254 CURVE SMOOTH",
"138 258 OFFCURVE",
"137 262 OFFCURVE",
"135 265 CURVE SMOOTH",
"123 287 OFFCURVE",
"115 308 OFFCURVE",
"115 334 CURVE SMOOTH",
"115 377 OFFCURVE",
"145 417 OFFCURVE",
"199 417 CURVE SMOOTH",
"255 417 OFFCURVE",
"295 373 OFFCURVE",
"326 315 CURVE SMOOTH",
"330 308 OFFCURVE",
"339 303 OFFCURVE",
"346 303 CURVE SMOOTH",
"351 303 LINE SMOOTH",
"358 303 OFFCURVE",
"367 308 OFFCURVE",
"371 315 CURVE SMOOTH",
"405 374 OFFCURVE",
"445 416 OFFCURVE",
"503 416 CURVE SMOOTH",
"552 416 OFFCURVE",
"583 378 OFFCURVE",
"583 338 CURVE SMOOTH",
"583 309 OFFCURVE",
"572 289 OFFCURVE",
"558 274 CURVE SMOOTH",
"542 258 OFFCURVE",
"513 240 OFFCURVE",
"476 218 CURVE SMOOTH",
"413 181 OFFCURVE",
"397 150 OFFCURVE",
"397 112 CURVE SMOOTH",
"397 89 OFFCURVE",
"408 65 OFFCURVE",
"427 46 CURVE SMOOTH",
"452 21 OFFCURVE",
"499 0 OFFCURVE"
);
}
);
width = 909;
}
);
unicode = 0C8C;
userData = {
com.typemytype.robofont.layerData = {
background = {
anchors = (
);
components = (
);
contours = (
);
lib = {
};
name = knvL;
unicodes = (
);
width = 909;
};
};
};
},
{
glyphname = "llVocalic-kannada";
lastChange = "2016-04-03 03:30:58 +0000";
layers = (
{
layerId = "EE99E773-27DB-4D1B-BC83-5C5BC0C316FA";
paths = (
{
closed = 1;
nodes = (
"1026 -4 CURVE SMOOTH",
"1099 -4 OFFCURVE",
"1159 55 OFFCURVE",
"1159 167 CURVE SMOOTH",
"1159 353 OFFCURVE",
"1044 456 OFFCURVE",
"885 456 CURVE SMOOTH",
"752 456 LINE SMOOTH",
"736 456 OFFCURVE",
"729 446 OFFCURVE",
"729 433 CURVE SMOOTH",
"729 429 OFFCURVE",
"731 424 OFFCURVE",
"734 419 CURVE SMOOTH",
"777 351 OFFCURVE",
"796 281 OFFCURVE",
"796 219 CURVE SMOOTH",
"796 161 OFFCURVE",
"775 122 OFFCURVE",
"750 96 CURVE SMOOTH",
"720 66 OFFCURVE",
"674 46 OFFCURVE",
"591 46 CURVE SMOOTH",
"519 46 OFFCURVE",
"476 62 OFFCURVE",
"460 77 CURVE SMOOTH",
"450 87 OFFCURVE",
"443 99 OFFCURVE",
"443 112 CURVE SMOOTH",
"443 138 OFFCURVE",
"459 155 OFFCURVE",
"498 178 CURVE SMOOTH",
"541 202 OFFCURVE",
"572 224 OFFCURVE",
"590 242 CURVE SMOOTH",
"612 263 OFFCURVE",
"629 295 OFFCURVE",
"629 338 CURVE SMOOTH",
"629 402 OFFCURVE",
"582 462 OFFCURVE",
"503 462 CURVE SMOOTH",
"440 462 OFFCURVE",
"390 426 OFFCURVE",
"349 366 CURVE",
"309 425 OFFCURVE",
"260 463 OFFCURVE",
"199 463 CURVE SMOOTH",
"115 463 OFFCURVE",
"69 401 OFFCURVE",
"69 334 CURVE SMOOTH",
"69 300 OFFCURVE",
"79 271 OFFCURVE",
"95 243 CURVE SMOOTH",
"99 235 OFFCURVE",
"107 231 OFFCURVE",
"115 231 CURVE SMOOTH",
"128 231 OFFCURVE",
"138 243 OFFCURVE",
"138 254 CURVE SMOOTH",
"138 258 OFFCURVE",
"137 262 OFFCURVE",
"135 265 CURVE SMOOTH",
"123 287 OFFCURVE",
"115 308 OFFCURVE",
"115 334 CURVE SMOOTH",
"115 377 OFFCURVE",
"145 417 OFFCURVE",
"199 417 CURVE SMOOTH",
"255 417 OFFCURVE",
"295 373 OFFCURVE",
"326 315 CURVE SMOOTH",
"330 308 OFFCURVE",
"339 303 OFFCURVE",
"346 303 CURVE SMOOTH",
"351 303 LINE SMOOTH",
"358 303 OFFCURVE",
"367 308 OFFCURVE",
"371 315 CURVE SMOOTH",
"405 374 OFFCURVE",
"445 416 OFFCURVE",
"503 416 CURVE SMOOTH",
"552 416 OFFCURVE",
"583 378 OFFCURVE",
"583 338 CURVE SMOOTH",
"583 309 OFFCURVE",
"572 289 OFFCURVE",
"558 274 CURVE SMOOTH",
"542 258 OFFCURVE",
"513 240 OFFCURVE",
"476 218 CURVE SMOOTH",
"413 181 OFFCURVE",
"397 150 OFFCURVE",
"397 112 CURVE SMOOTH",
"397 89 OFFCURVE",
"408 65 OFFCURVE",
"427 46 CURVE SMOOTH",
"452 21 OFFCURVE",
"499 0 OFFCURVE",
"591 0 CURVE SMOOTH",
"692 0 OFFCURVE",
"746 28 OFFCURVE",
"782 64 CURVE SMOOTH",
"815 96 OFFCURVE",
"842 145 OFFCURVE",
"842 219 CURVE SMOOTH",
"842 278 OFFCURVE",
"826 345 OFFCURVE",
"792 410 CURVE",
"885 410 LINE SMOOTH",
"1001 410 OFFCURVE",
"1089 342 OFFCURVE",
"1109 221 CURVE",
"1089 226 OFFCURVE",
"1067 229 OFFCURVE",
"1047 229 CURVE SMOOTH",
"956 229 OFFCURVE",
"914 171 OFFCURVE",
"914 106 CURVE SMOOTH",
"914 48 OFFCURVE",
"955 -4 OFFCURVE"
);
},
{
closed = 1;
nodes = (
"1026 42 CURVE SMOOTH",
"985 42 OFFCURVE",
"960 72 OFFCURVE",
"960 106 CURVE SMOOTH",
"960 149 OFFCURVE",
"990 183 OFFCURVE",
"1047 183 CURVE SMOOTH",
"1070 183 OFFCURVE",
"1093 178 OFFCURVE",
"1113 172 CURVE",
"1113 167 LINE SMOOTH",
"1113 93 OFFCURVE",
"1079 42 OFFCURVE"
);
}
);
width = 1226;
}
);
unicode = 0CE1;
userData = {
com.typemytype.robofont.layerData = {
background = {
anchors = (
);
components = (
);
contours = (
);
lib = {
};
name = knvLL;
unicodes = (
);
width = 1226;
};
};
};
},
{
glyphname = "e-kannada";
lastChange = "2016-04-03 03:30:58 +0000";
layers = (
{
layerId = "EE99E773-27DB-4D1B-BC83-5C5BC0C316FA";
paths = (
{
closed = 1;
nodes = (
"511 0 CURVE SMOOTH",
"592 0 OFFCURVE",
"665 57 OFFCURVE",
"665 166 CURVE SMOOTH",
"665 325 OFFCURVE",
"527 482 OFFCURVE",
"218 482 CURVE SMOOTH",
"206 482 OFFCURVE",
"195 471 OFFCURVE",
"195 459 CURVE SMOOTH",
"195 447 OFFCURVE",
"206 436 OFFCURVE",
"218 436 CURVE SMOOTH",
"483 436 OFFCURVE",
"619 309 OFFCURVE",
"619 166 CURVE SMOOTH",
"619 89 OFFCURVE",
"570 46 OFFCURVE",
"511 46 CURVE SMOOTH",
"456 46 OFFCURVE",
"421 74 OFFCURVE",
"386 136 CURVE SMOOTH",
"382 142 OFFCURVE",
"373 147 OFFCURVE",
"366 147 CURVE SMOOTH",
"361 147 LINE SMOOTH",
"353 147 OFFCURVE",
"345 142 OFFCURVE",
"341 135 CURVE SMOOTH",
"310 75 OFFCURVE",
"271 46 OFFCURVE",
"204 46 CURVE SMOOTH",
"152 46 OFFCURVE",
"116 76 OFFCURVE",
"116 118 CURVE SMOOTH",
"116 156 OFFCURVE",
"145 186 OFFCURVE",
"192 193 CURVE SMOOTH",
"204 195 OFFCURVE",
"212 205 OFFCURVE",
"212 216 CURVE SMOOTH",
"212 229 OFFCURVE",
"203 238 OFFCURVE",
"190 238 CURVE SMOOTH",
"133 238 OFFCURVE",
"70 192 OFFCURVE",
"70 118 CURVE SMOOTH",
"70 54 OFFCURVE",
"120 0 OFFCURVE",
"204 0 CURVE SMOOTH",
"278 0 OFFCURVE",
"325 26 OFFCURVE",
"364 84 CURVE",
"405 24 OFFCURVE",
"449 0 OFFCURVE"
);
}
);
width = 730;
}
);
unicode = 0C8E;
userData = {
com.typemytype.robofont.layerData = {
background = {
anchors = (
);
components = (
);
contours = (
);
lib = {
};
name = knE;
unicodes = (
);
width = 730;
};
};
};
},
{
glyphname = "ee-kannada";
lastChange = "2016-04-03 03:30:58 +0000";
layers = (
{
layerId = "EE99E773-27DB-4D1B-BC83-5C5BC0C316FA";
paths = (
{
closed = 1;
nodes = (
"511 0 CURVE SMOOTH",
"592 0 OFFCURVE",
"665 56 OFFCURVE",
"665 168 CURVE SMOOTH",
"665 296 OFFCURVE",
"580 419 OFFCURVE",
"416 466 CURVE SMOOTH",
"395 472 OFFCURVE",
"384 474 OFFCURVE",
"381 474 CURVE SMOOTH",
"369 474 OFFCURVE",
"362 468 OFFCURVE",
"356 451 CURVE SMOOTH",
"338 401 OFFCURVE",
"311 368 OFFCURVE",
"261 368 CURVE SMOOTH",
"203 368 OFFCURVE",
"166 414 OFFCURVE",
"166 473 CURVE SMOOTH",
"166 485 OFFCURVE",
"155 496 OFFCURVE",
"143 496 CURVE SMOOTH",
"131 496 OFFCURVE",
"120 485 OFFCURVE",
"120 473 CURVE SMOOTH",
"120 386 OFFCURVE",
"177 322 OFFCURVE",
"261 322 CURVE SMOOTH",
"326 322 OFFCURVE",
"369 359 OFFCURVE",
"395 424 CURVE",
"550 382 OFFCURVE",
"619 275 OFFCURVE",
"619 166 CURVE SMOOTH",
"619 89 OFFCURVE",
"570 46 OFFCURVE",
"511 46 CURVE SMOOTH",
"456 46 OFFCURVE",
"421 74 OFFCURVE",
"386 136 CURVE SMOOTH",
"382 142 OFFCURVE",
"373 147 OFFCURVE",
"366 147 CURVE SMOOTH",
"361 147 LINE SMOOTH",
"353 147 OFFCURVE",
"345 142 OFFCURVE",
"341 135 CURVE SMOOTH",
"310 75 OFFCURVE",
"271 46 OFFCURVE",
"204 46 CURVE SMOOTH",
"152 46 OFFCURVE",
"116 76 OFFCURVE",
"116 118 CURVE SMOOTH",
"116 156 OFFCURVE",
"145 186 OFFCURVE",
"192 193 CURVE SMOOTH",
"204 195 OFFCURVE",
"212 205 OFFCURVE",
"212 216 CURVE SMOOTH",
"212 228 OFFCURVE",
"203 238 OFFCURVE",
"190 238 CURVE SMOOTH",
"131 238 OFFCURVE",
"70 191 OFFCURVE",
"70 118 CURVE SMOOTH",
"70 54 OFFCURVE",
"120 0 OFFCURVE",
"204 0 CURVE SMOOTH",
"278 0 OFFCURVE",
"325 26 OFFCURVE",
"364 84 CURVE",
"405 24 OFFCURVE",
"449 0 OFFCURVE"
);
}
);
width = 730;
}
);
unicode = 0C8F;
userData = {
com.typemytype.robofont.layerData = {
background = {
anchors = (
);
components = (
);
contours = (
);
lib = {
};
name = knEE;
unicodes = (
);
width = 730;
};
};
};
},
{
glyphname = "ai-kannada";
lastChange = "2016-04-03 03:30:58 +0000";
layers = (
{
layerId = "EE99E773-27DB-4D1B-BC83-5C5BC0C316FA";
paths = (
{
closed = 1;
nodes = (
"514 0 CURVE SMOOTH",
"598 0 OFFCURVE",
"675 49 OFFCURVE",
"675 222 CURVE SMOOTH",
"675 403 OFFCURVE",
"583 456 OFFCURVE",
"506 456 CURVE SMOOTH",
"454 456 OFFCURVE",
"412 433 OFFCURVE",
"367 369 CURVE",
"323 432 OFFCURVE",
"283 457 OFFCURVE",
"225 457 CURVE SMOOTH",
"160 457 OFFCURVE",
"111 416 OFFCURVE",
"90 356 CURVE SMOOTH",
"84 339 OFFCURVE",
"83 335 OFFCURVE",
"83 332 CURVE SMOOTH",
"83 320 OFFCURVE",
"93 309 OFFCURVE",
"106 309 CURVE SMOOTH",
"116 309 OFFCURVE",
"125 316 OFFCURVE",
"128 326 CURVE SMOOTH",
"143 379 OFFCURVE",
"178 411 OFFCURVE",
"225 411 CURVE SMOOTH",
"276 411 OFFCURVE",
"307 381 OFFCURVE",
"344 318 CURVE SMOOTH",
"348 312 OFFCURVE",
"357 307 OFFCURVE",
"364 307 CURVE SMOOTH",
"369 307 LINE SMOOTH",
"376 307 OFFCURVE",
"385 312 OFFCURVE",
"389 318 CURVE SMOOTH",
"428 381 OFFCURVE",
"459 410 OFFCURVE",
"506 410 CURVE SMOOTH",
"567 410 OFFCURVE",
"629 353 OFFCURVE",
"629 222 CURVE SMOOTH",
"629 99 OFFCURVE",
"580 46 OFFCURVE",
"514 46 CURVE SMOOTH",
"460 46 OFFCURVE",
"421 74 OFFCURVE",
"386 136 CURVE SMOOTH",
"382 142 OFFCURVE",
"373 147 OFFCURVE",
"366 147 CURVE SMOOTH",
"361 147 LINE SMOOTH",
"353 147 OFFCURVE",
"345 142 OFFCURVE",
"341 135 CURVE SMOOTH",
"310 75 OFFCURVE",
"271 46 OFFCURVE",
"204 46 CURVE SMOOTH",
"152 46 OFFCURVE",
"116 76 OFFCURVE",
"116 118 CURVE SMOOTH",
"116 156 OFFCURVE",
"145 186 OFFCURVE",
"192 193 CURVE SMOOTH",
"204 195 OFFCURVE",
"212 205 OFFCURVE",
"212 216 CURVE SMOOTH",
"212 227 OFFCURVE",
"204 238 OFFCURVE",
"191 238 CURVE SMOOTH",
"131 238 OFFCURVE",
"70 191 OFFCURVE",
"70 118 CURVE SMOOTH",
"70 54 OFFCURVE",
"120 0 OFFCURVE",
"204 0 CURVE SMOOTH",
"278 0 OFFCURVE",
"325 26 OFFCURVE",
"364 84 CURVE",
"406 25 OFFCURVE",
"453 0 OFFCURVE"
);
}
);
width = 742;
}
);
unicode = 0C90;
userData = {
com.typemytype.robofont.layerData = {
background = {
anchors = (
);
components = (
);
contours = (
);
lib = {
};
name = knAI;
unicodes = (
);
width = 742;
};
};
};
},
{
glyphname = "o-kannada";
lastChange = "2016-04-03 03:30:58 +0000";
layers = (
{
layerId = "EE99E773-27DB-4D1B-BC83-5C5BC0C316FA";
paths = (
{
closed = 1;
nodes = (
"545 0 CURVE SMOOTH",
"632 0 OFFCURVE",
"683 60 OFFCURVE",
"683 130 CURVE SMOOTH",
"683 180 OFFCURVE",
"663 221 OFFCURVE",
"631 251 CURVE SMOOTH",
"627 255 OFFCURVE",
"621 257 OFFCURVE",
"615 257 CURVE SMOOTH",
"602 257 OFFCURVE",
"592 248 OFFCURVE",
"592 234 CURVE SMOOTH",
"592 228 OFFCURVE",
"594 222 OFFCURVE",
"599 217 CURVE SMOOTH",
"623 195 OFFCURVE",
"637 166 OFFCURVE",
"637 130 CURVE SMOOTH",
"637 84 OFFCURVE",
"602 46 OFFCURVE",
"545 46 CURVE SMOOTH",
"480 46 OFFCURVE",
"439 79 OFFCURVE",
"403 136 CURVE SMOOTH",
"399 142 OFFCURVE",
"391 147 OFFCURVE",
"384 147 CURVE SMOOTH",
"379 147 LINE SMOOTH",
"372 147 OFFCURVE",
"363 142 OFFCURVE",
"359 136 CURVE SMOOTH",
"320 73 OFFCURVE",
"281 46 OFFCURVE",
"222 46 CURVE SMOOTH",
"165 46 OFFCURVE",
"133 81 OFFCURVE",
"133 125 CURVE SMOOTH",
"133 167 OFFCURVE",
"162 202 OFFCURVE",
"203 235 CURVE SMOOTH",
"269 288 OFFCURVE",
"291 327 OFFCURVE",
"291 371 CURVE SMOOTH",
"291 426 OFFCURVE",
"251 471 OFFCURVE",
"183 471 CURVE SMOOTH",
"140 471 OFFCURVE",
"105 451 OFFCURVE",
"75 417 CURVE SMOOTH",
"71 413 OFFCURVE",
"69 407 OFFCURVE",
"69 402 CURVE SMOOTH",
"69 389 OFFCURVE",
"81 379 OFFCURVE",
"92 379 CURVE SMOOTH",
"99 379 OFFCURVE",
"105 382 OFFCURVE",
"109 387 CURVE SMOOTH",
"129 409 OFFCURVE",
"154 425 OFFCURVE",
"183 425 CURVE SMOOTH",
"219 425 OFFCURVE",
"245 402 OFFCURVE",
"245 371 CURVE SMOOTH",
"245 337 OFFCURVE",
"223 310 OFFCURVE",
"175 271 CURVE SMOOTH",
"120 226 OFFCURVE",
"87 179 OFFCURVE",
"87 125 CURVE SMOOTH",
"87 59 OFFCURVE",
"133 0 OFFCURVE",
"222 0 CURVE SMOOTH",
"289 0 OFFCURVE",
"337 25 OFFCURVE",
"382 87 CURVE",
"425 30 OFFCURVE",
"474 0 OFFCURVE"
);
}
);
width = 742;
}
);
unicode = 0C92;
userData = {
com.typemytype.robofont.layerData = {
background = {
anchors = (
);
components = (
);
contours = (
);
lib = {
};
name = knO;
unicodes = (
);
width = 742;
};
};
};
},
{
glyphname = "oo-kannada";
lastChange = "2016-04-03 03:30:58 +0000";
layers = (
{
layerId = "EE99E773-27DB-4D1B-BC83-5C5BC0C316FA";
paths = (
{
closed = 1;
nodes = (
"683 130 CURVE SMOOTH",
"683 180 OFFCURVE",
"663 221 OFFCURVE",
"631 251 CURVE SMOOTH",
"627 255 OFFCURVE",
"621 257 OFFCURVE",
"615 257 CURVE SMOOTH",
"602 257 OFFCURVE",
"592 248 OFFCURVE",
"592 234 CURVE SMOOTH",
"592 228 OFFCURVE",
"594 222 OFFCURVE",
"599 217 CURVE SMOOTH",
"623 195 OFFCURVE",
"637 166 OFFCURVE",
"637 130 CURVE SMOOTH",
"637 84 OFFCURVE",
"602 46 OFFCURVE",
"545 46 CURVE SMOOTH",
"480 46 OFFCURVE",
"439 79 OFFCURVE",
"403 136 CURVE SMOOTH",
"399 142 OFFCURVE",
"391 147 OFFCURVE",
"384 147 CURVE SMOOTH",
"379 147 LINE SMOOTH",
"372 147 OFFCURVE",
"363 142 OFFCURVE",
"359 136 CURVE SMOOTH",
"320 73 OFFCURVE",
"281 46 OFFCURVE",
"222 46 CURVE SMOOTH",
"165 46 OFFCURVE",
"133 81 OFFCURVE",
"133 125 CURVE SMOOTH",
"133 167 OFFCURVE",
"162 202 OFFCURVE",
"203 235 CURVE SMOOTH",
"269 288 OFFCURVE",
"291 327 OFFCURVE",
"291 371 CURVE SMOOTH",
"291 421 OFFCURVE",
"258 463 OFFCURVE",
"201 470 CURVE",
"197 483 OFFCURVE",
"194 499 OFFCURVE",
"194 518 CURVE SMOOTH",
"194 558 OFFCURVE",
"216 588 OFFCURVE",
"252 588 CURVE SMOOTH",
"267 588 OFFCURVE",
"278 585 OFFCURVE",
"293 579 CURVE SMOOTH",
"303 575 OFFCURVE",
"306 574 OFFCURVE",
"309 574 CURVE SMOOTH",
"321 574 OFFCURVE",
"332 584 OFFCURVE",
"332 597 CURVE SMOOTH",
"332 606 OFFCURVE",
"327 614 OFFCURVE",
"318 618 CURVE SMOOTH",
"300 626 OFFCURVE",
"281 634 OFFCURVE",
"252 634 CURVE SMOOTH",
"192 634 OFFCURVE",
"148 590 OFFCURVE",
"148 518 CURVE SMOOTH",
"148 499 OFFCURVE",
"151 482 OFFCURVE",
"155 468 CURVE",
"124 461 OFFCURVE",
"98 443 OFFCURVE",
"75 417 CURVE SMOOTH",
"71 413 OFFCURVE",
"69 407 OFFCURVE",
"69 402 CURVE SMOOTH",
"69 389 OFFCURVE",
"81 379 OFFCURVE",
"92 379 CURVE SMOOTH",
"99 379 OFFCURVE",
"105 382 OFFCURVE",
"109 387 CURVE SMOOTH",
"129 409 OFFCURVE",
"154 425 OFFCURVE",
"183 425 CURVE SMOOTH",
"219 425 OFFCURVE",
"245 402 OFFCURVE",
"245 371 CURVE SMOOTH",
"245 337 OFFCURVE",
"223 310 OFFCURVE",
"175 271 CURVE SMOOTH",
"120 226 OFFCURVE",
"87 179 OFFCURVE",
"87 125 CURVE SMOOTH",
"87 59 OFFCURVE",
"133 0 OFFCURVE",
"222 0 CURVE SMOOTH",
"289 0 OFFCURVE",
"337 25 OFFCURVE",
"382 87 CURVE",
"425 30 OFFCURVE",
"474 0 OFFCURVE",
"545 0 CURVE SMOOTH",
"632 0 OFFCURVE",
"683 60 OFFCURVE"
);
}
);
width = 742;
}
);
unicode = 0C93;
userData = {
com.typemytype.robofont.layerData = {
background = {
anchors = (
);
components = (
);
contours = (
);
lib = {
};
name = knOO;
unicodes = (
);
width = 742;
};
};
};
},
{
glyphname = "au-kannada";
lastChange = "2016-04-03 03:30:58 +0000";
layers = (
{
layerId = "EE99E773-27DB-4D1B-BC83-5C5BC0C316FA";
paths = (
{
closed = 1;
nodes = (
"547 0 CURVE SMOOTH",
"634 0 OFFCURVE",
"685 60 OFFCURVE",
"685 130 CURVE SMOOTH",
"685 180 OFFCURVE",
"665 221 OFFCURVE",
"633 251 CURVE SMOOTH",
"629 255 OFFCURVE",
"623 257 OFFCURVE",
"617 257 CURVE SMOOTH",
"604 257 OFFCURVE",
"594 248 OFFCURVE",
"594 234 CURVE SMOOTH",
"594 228 OFFCURVE",
"596 222 OFFCURVE",
"601 217 CURVE SMOOTH",
"625 195 OFFCURVE",
"639 166 OFFCURVE",
"639 130 CURVE SMOOTH",
"639 84 OFFCURVE",
"604 46 OFFCURVE",
"547 46 CURVE SMOOTH",
"482 46 OFFCURVE",
"441 79 OFFCURVE",
"405 136 CURVE SMOOTH",
"401 142 OFFCURVE",
"393 147 OFFCURVE",
"386 147 CURVE SMOOTH",
"381 147 LINE SMOOTH",
"374 147 OFFCURVE",
"365 142 OFFCURVE",
"361 136 CURVE SMOOTH",
"322 73 OFFCURVE",
"283 46 OFFCURVE",
"224 46 CURVE SMOOTH",
"167 46 OFFCURVE",
"135 81 OFFCURVE",
"135 125 CURVE SMOOTH",
"135 167 OFFCURVE",
"164 202 OFFCURVE",
"205 235 CURVE SMOOTH",
"271 288 OFFCURVE",
"293 327 OFFCURVE",
"293 371 CURVE SMOOTH",
"293 404 OFFCURVE",
"279 433 OFFCURVE",
"252 452 CURVE",
"323 473 OFFCURVE",
"358 530 OFFCURVE",
"361 610 CURVE",
"449 610 LINE SMOOTH",
"539 610 OFFCURVE",
"596 582 OFFCURVE",
"622 537 CURVE",
"607 539 OFFCURVE",
"592 540 OFFCURVE",
"577 540 CURVE SMOOTH",
"491 540 OFFCURVE",
"448 482 OFFCURVE",
"448 422 CURVE SMOOTH",
"448 370 OFFCURVE",
"487 321 OFFCURVE",
"558 321 CURVE SMOOTH",
"626 321 OFFCURVE",
"683 374 OFFCURVE",
"683 476 CURVE SMOOTH",
"683 576 OFFCURVE",
"616 656 OFFCURVE",
"449 656 CURVE SMOOTH",
"100 656 LINE SMOOTH",
"88 656 OFFCURVE",
"77 645 OFFCURVE",
"77 633 CURVE SMOOTH",
"77 621 OFFCURVE",
"88 610 OFFCURVE",
"100 610 CURVE SMOOTH",
"315 610 LINE",
"311 535 OFFCURVE",
"268 488 OFFCURVE",
"181 488 CURVE SMOOTH",
"105 488 LINE SMOOTH",
"93 488 OFFCURVE",
"82 477 OFFCURVE",
"82 465 CURVE SMOOTH",
"82 453 OFFCURVE",
"92 443 OFFCURVE",
"104 442 CURVE",
"94 435 OFFCURVE",
"85 427 OFFCURVE",
"77 417 CURVE SMOOTH",
"73 413 OFFCURVE",
"71 407 OFFCURVE",
"71 402 CURVE SMOOTH",
"71 389 OFFCURVE",
"83 379 OFFCURVE",
"94 379 CURVE SMOOTH",
"101 379 OFFCURVE",
"107 382 OFFCURVE",
"111 387 CURVE SMOOTH",
"131 409 OFFCURVE",
"156 425 OFFCURVE",
"185 425 CURVE SMOOTH",
"221 425 OFFCURVE",
"247 402 OFFCURVE",
"247 371 CURVE SMOOTH",
"247 337 OFFCURVE",
"225 310 OFFCURVE",
"177 271 CURVE SMOOTH",
"122 226 OFFCURVE",
"89 179 OFFCURVE",
"89 125 CURVE SMOOTH",
"89 59 OFFCURVE",
"135 0 OFFCURVE",
"224 0 CURVE SMOOTH",
"291 0 OFFCURVE",
"339 25 OFFCURVE",
"384 87 CURVE",
"427 30 OFFCURVE",
"476 0 OFFCURVE"
);
},
{
closed = 1;
nodes = (
"558 367 CURVE SMOOTH",
"519 367 OFFCURVE",
"494 392 OFFCURVE",
"494 422 CURVE SMOOTH",
"494 460 OFFCURVE",
"525 494 OFFCURVE",
"577 494 CURVE SMOOTH",
"597 494 OFFCURVE",
"618 493 OFFCURVE",
"637 488 CURVE",
"637 484 OFFCURVE",
"637 480 OFFCURVE",
"637 476 CURVE SMOOTH",
"637 412 OFFCURVE",
"606 367 OFFCURVE"
);
}
);
width = 748;
}
);
unicode = 0C94;
userData = {
com.typemytype.robofont.layerData = {
background = {
anchors = (
);
components = (
);
contours = (
);
lib = {
};
name = knAU;
unicodes = (
);
width = 748;
};
};
};
},
{
glyphname = "ka-kannada";
lastChange = "2016-04-03 03:31:16 +0000";
layers = (
{
layerId = "EE99E773-27DB-4D1B-BC83-5C5BC0C316FA";
paths = (
{
closed = 1;
nodes = (
"351 -8 CURVE SMOOTH",
"499 -8 OFFCURVE",
"542 75 OFFCURVE",
"542 147 CURVE SMOOTH",
"542 187 OFFCURVE",
"525 226 OFFCURVE",
"493 255 CURVE",
"607 255 LINE SMOOTH",
"619 255 OFFCURVE",
"630 266 OFFCURVE",
"630 278 CURVE SMOOTH",
"630 290 OFFCURVE",
"619 301 OFFCURVE",
"607 301 CURVE SMOOTH",
"375 301 LINE",
"375 410 LINE",
"480 410 LINE SMOOTH",
"563 410 OFFCURVE",
"611 440 OFFCURVE",
"648 499 CURVE SMOOTH",
"650 503 OFFCURVE",
"651 507 OFFCURVE",
"651 511 CURVE SMOOTH",
"651 524 OFFCURVE",
"642 534 OFFCURVE",
"628 534 CURVE SMOOTH",
"620 534 OFFCURVE",
"613 530 OFFCURVE",
"608 523 CURVE SMOOTH",
"580 478 OFFCURVE",
"543 456 OFFCURVE",
"480 456 CURVE SMOOTH",
"98 456 LINE SMOOTH",
"86 456 OFFCURVE",
"75 445 OFFCURVE",
"75 433 CURVE SMOOTH",
"75 421 OFFCURVE",
"86 410 OFFCURVE",
"98 410 CURVE SMOOTH",
"329 410 LINE",
"329 301 LINE",
"94 301 LINE SMOOTH",
"82 301 OFFCURVE",
"71 290 OFFCURVE",
"71 278 CURVE SMOOTH",
"71 266 OFFCURVE",
"82 255 OFFCURVE",
"94 255 CURVE SMOOTH",
"210 255 LINE",
"179 226 OFFCURVE",
"162 188 OFFCURVE",
"162 147 CURVE SMOOTH",
"162 74 OFFCURVE",
"207 -8 OFFCURVE"
);
},
{
closed = 1;
nodes = (
"351 38 CURVE SMOOTH",
"249 38 OFFCURVE",
"208 92 OFFCURVE",
"208 147 CURVE SMOOTH",
"208 205 OFFCURVE",
"259 249 OFFCURVE",
"327 255 CURVE",
"382 255 LINE",
"457 245 OFFCURVE",
"496 196 OFFCURVE",
"496 147 CURVE SMOOTH",
"496 93 OFFCURVE",
"455 38 OFFCURVE"
);
}
);
width = 703;
}
);
unicode = 0C95;
userData = {
com.typemytype.robofont.layerData = {
background = {
anchors = (
);
components = (
);
contours = (
);
lib = {
};
name = knKA;
unicodes = (
);
width = 703;
};
};
};
},
{
glyphname = "ka-kannada.base";
lastChange = "2016-04-03 03:35:40 +0000";
layers = (
{
layerId = "EE99E773-27DB-4D1B-BC83-5C5BC0C316FA";
paths = (
{
closed = 1;
nodes = (
"351 -8 CURVE SMOOTH",
"499 -8 OFFCURVE",
"542 75 OFFCURVE",
"542 147 CURVE SMOOTH",
"542 187 OFFCURVE",
"525 226 OFFCURVE",
"493 255 CURVE",
"607 255 LINE SMOOTH",
"619 255 OFFCURVE",
"630 266 OFFCURVE",
"630 278 CURVE SMOOTH",
"630 290 OFFCURVE",
"619 301 OFFCURVE",
"607 301 CURVE SMOOTH",
"375 301 LINE",
"375 410 LINE",
"480 410 LINE SMOOTH",
"492 410 OFFCURVE",
"503 421 OFFCURVE",
"503 433 CURVE SMOOTH",
"503 445 OFFCURVE",
"492 456 OFFCURVE",
"480 456 CURVE SMOOTH",
"98 456 LINE SMOOTH",
"86 456 OFFCURVE",
"75 445 OFFCURVE",
"75 433 CURVE SMOOTH",
"75 421 OFFCURVE",
"86 410 OFFCURVE",
"98 410 CURVE SMOOTH",
"329 410 LINE",
"329 301 LINE",
"94 301 LINE SMOOTH",
"82 301 OFFCURVE",
"71 290 OFFCURVE",
"71 278 CURVE SMOOTH",
"71 266 OFFCURVE",
"82 255 OFFCURVE",
"94 255 CURVE SMOOTH",
"210 255 LINE",
"179 226 OFFCURVE",
"162 188 OFFCURVE",
"162 147 CURVE SMOOTH",
"162 74 OFFCURVE",
"207 -8 OFFCURVE"
);
},
{
closed = 1;
nodes = (
"351 38 CURVE SMOOTH",
"249 38 OFFCURVE",
"208 92 OFFCURVE",
"208 147 CURVE SMOOTH",
"208 205 OFFCURVE",
"259 249 OFFCURVE",
"327 255 CURVE",
"382 255 LINE",
"457 245 OFFCURVE",
"496 196 OFFCURVE",
"496 147 CURVE SMOOTH",
"496 93 OFFCURVE",
"455 38 OFFCURVE"
);
}
);
width = 688;
}
);
userData = {
com.typemytype.robofont.layerData = {
background = {
anchors = (
);
components = (
);
contours = (
);
lib = {
};
name = knKA.base;
unicodes = (
);
width = 688;
};
};
};
},
{
glyphname = "kha-kannada";
lastChange = "2016-04-03 03:31:16 +0000";
layers = (
{
layerId = "EE99E773-27DB-4D1B-BC83-5C5BC0C316FA";
paths = (
{
closed = 1;
nodes = (
"193 311 CURVE SMOOTH",
"161 311 OFFCURVE",
"134 334 OFFCURVE",
"134 365 CURVE SMOOTH",
"134 395 OFFCURVE",
"161 424 OFFCURVE",
"208 424 CURVE SMOOTH",
"225 424 OFFCURVE",
"241 422 OFFCURVE",
"256 419 CURVE",
"260 407 OFFCURVE",
"265 391 OFFCURVE",
"265 373 CURVE SMOOTH",
"265 335 OFFCURVE",
"235 311 OFFCURVE"
);
},
{
closed = 1;
nodes = (
"208 42 CURVE SMOOTH",
"153 42 OFFCURVE",
"123 67 OFFCURVE",
"123 97 CURVE SMOOTH",
"123 124 OFFCURVE",
"153 152 OFFCURVE",
"197 152 CURVE SMOOTH",
"247 152 OFFCURVE",
"295 130 OFFCURVE",
"339 98 CURVE",
"307 65 OFFCURVE",
"263 42 OFFCURVE"
);
},
{
closed = 1;
nodes = (
"556 0 CURVE SMOOTH",
"639 0 OFFCURVE",
"707 56 OFFCURVE",
"707 175 CURVE SMOOTH",
"707 281 OFFCURVE",
"654 379 OFFCURVE",
"584 449 CURVE SMOOTH",
"580 453 OFFCURVE",
"574 456 OFFCURVE",
"568 456 CURVE SMOOTH",
"556 456 OFFCURVE",
"545 446 OFFCURVE",
"545 433 CURVE SMOOTH",
"545 427 OFFCURVE",
"548 421 OFFCURVE",
"552 417 CURVE SMOOTH",
"613 357 OFFCURVE",
"661 269 OFFCURVE",
"661 175 CURVE SMOOTH",
"661 92 OFFCURVE",
"617 46 OFFCURVE",
"556 46 CURVE SMOOTH",
"500 46 OFFCURVE",
"454 65 OFFCURVE",
"403 107 CURVE",
"428 148 OFFCURVE",
"442 195 OFFCURVE",
"442 238 CURVE SMOOTH",
"442 366 OFFCURVE",
"347 470 OFFCURVE",
"208 470 CURVE SMOOTH",
"123 470 OFFCURVE",
"88 413 OFFCURVE",
"88 365 CURVE SMOOTH",
"88 310 OFFCURVE",
"133 265 OFFCURVE",
"193 265 CURVE SMOOTH",
"267 265 OFFCURVE",
"311 311 OFFCURVE",
"311 373 CURVE SMOOTH",
"311 381 OFFCURVE",
"310 389 OFFCURVE",
"309 397 CURVE",
"363 364 OFFCURVE",
"396 305 OFFCURVE",
"396 238 CURVE SMOOTH",
"396 205 OFFCURVE",
"386 168 OFFCURVE",
"366 135 CURVE",
"314 173 OFFCURVE",
"256 198 OFFCURVE",
"197 198 CURVE SMOOTH",
"115 198 OFFCURVE",
"77 140 OFFCURVE",
"77 97 CURVE SMOOTH",
"77 51 OFFCURVE",
"107 -4 OFFCURVE",
"208 -4 CURVE SMOOTH",
"278 -4 OFFCURVE",
"335 26 OFFCURVE",
"374 70 CURVE",
"435 21 OFFCURVE",
"491 0 OFFCURVE"
);
}
);
width = 774;
}
);
unicode = 0C96;
userData = {
com.typemytype.robofont.layerData = {
background = {
anchors = (
);
components = (
);
contours = (
);
lib = {
};
name = knKHA;
unicodes = (
);
width = 774;
};
};
};
},
{
glyphname = "kha-kannada.base";
lastChange = "2016-04-03 03:35:40 +0000";
layers = (
{
layerId = "EE99E773-27DB-4D1B-BC83-5C5BC0C316FA";
paths = (
{
closed = 1;
nodes = (
"193 311 CURVE SMOOTH",
"161 311 OFFCURVE",
"134 334 OFFCURVE",
"134 365 CURVE SMOOTH",
"134 395 OFFCURVE",
"161 424 OFFCURVE",
"208 424 CURVE SMOOTH",
"225 424 OFFCURVE",
"241 422 OFFCURVE",
"256 419 CURVE",
"260 407 OFFCURVE",
"265 391 OFFCURVE",
"265 373 CURVE SMOOTH",
"265 335 OFFCURVE",
"235 311 OFFCURVE"
);
},
{
closed = 1;
nodes = (
"208 42 CURVE SMOOTH",
"153 42 OFFCURVE",
"123 67 OFFCURVE",
"123 97 CURVE SMOOTH",
"123 124 OFFCURVE",
"153 152 OFFCURVE",
"197 152 CURVE SMOOTH",
"247 152 OFFCURVE",
"295 130 OFFCURVE",
"339 98 CURVE",
"307 65 OFFCURVE",
"263 42 OFFCURVE"
);
},
{
closed = 1;
nodes = (
"556 0 CURVE SMOOTH",
"639 0 OFFCURVE",
"707 56 OFFCURVE",
"707 175 CURVE SMOOTH",
"707 279 OFFCURVE",
"655 374 OFFCURVE",
"588 445 CURVE SMOOTH",
"583 450 OFFCURVE",
"577 456 OFFCURVE",
"569 456 CURVE SMOOTH",
"476 456 LINE SMOOTH",
"464 456 OFFCURVE",
"453 445 OFFCURVE",
"453 433 CURVE SMOOTH",
"453 421 OFFCURVE",
"464 410 OFFCURVE",
"476 410 CURVE SMOOTH",
"559 410 LINE",
"617 350 OFFCURVE",
"661 265 OFFCURVE",
"661 175 CURVE SMOOTH",
"661 92 OFFCURVE",
"617 46 OFFCURVE",
"556 46 CURVE SMOOTH",
"500 46 OFFCURVE",
"454 65 OFFCURVE",
"403 107 CURVE",
"428 148 OFFCURVE",
"442 195 OFFCURVE",
"442 238 CURVE SMOOTH",
"442 366 OFFCURVE",
"347 470 OFFCURVE",
"208 470 CURVE SMOOTH",
"123 470 OFFCURVE",
"88 413 OFFCURVE",
"88 365 CURVE SMOOTH",
"88 310 OFFCURVE",
"133 265 OFFCURVE",
"193 265 CURVE SMOOTH",
"267 265 OFFCURVE",
"311 311 OFFCURVE",
"311 373 CURVE SMOOTH",
"311 381 OFFCURVE",
"310 389 OFFCURVE",
"309 397 CURVE",
"363 364 OFFCURVE",
"396 305 OFFCURVE",
"396 238 CURVE SMOOTH",
"396 205 OFFCURVE",
"386 168 OFFCURVE",
"366 135 CURVE",
"314 173 OFFCURVE",
"256 198 OFFCURVE",
"197 198 CURVE SMOOTH",
"115 198 OFFCURVE",
"77 140 OFFCURVE",
"77 97 CURVE SMOOTH",
"77 51 OFFCURVE",
"107 -4 OFFCURVE",
"208 -4 CURVE SMOOTH",
"278 -4 OFFCURVE",
"335 26 OFFCURVE",
"374 70 CURVE",
"435 21 OFFCURVE",
"491 0 OFFCURVE"
);
}
);
width = 731;
}
);
userData = {
com.typemytype.robofont.layerData = {
background = {
anchors = (
);
components = (
);
contours = (
);
lib = {
};
name = knKHA.base;
unicodes = (
);
width = 731;
};
};
};
},
{
glyphname = "ga-kannada";
lastChange = "2016-04-03 03:31:16 +0000";
layers = (
{
layerId = "EE99E773-27DB-4D1B-BC83-5C5BC0C316FA";
paths = (
{
closed = 1;
nodes = (
"502 0 CURVE SMOOTH",
"511 0 OFFCURVE",
"520 5 OFFCURVE",
"524 13 CURVE SMOOTH",
"547 62 OFFCURVE",
"561 110 OFFCURVE",
"561 176 CURVE SMOOTH",
"561 256 OFFCURVE",
"526 345 OFFCURVE",
"443 410 CURVE",
"453 410 LINE SMOOTH",
"536 410 OFFCURVE",
"584 440 OFFCURVE",
"621 499 CURVE SMOOTH",
"623 503 OFFCURVE",
"624 507 OFFCURVE",
"624 511 CURVE SMOOTH",
"624 524 OFFCURVE",
"615 534 OFFCURVE",
"601 534 CURVE SMOOTH",
"593 534 OFFCURVE",
"586 530 OFFCURVE",
"581 523 CURVE SMOOTH",
"553 478 OFFCURVE",
"516 456 OFFCURVE",
"453 456 CURVE SMOOTH",
"92 456 LINE SMOOTH",
"80 456 OFFCURVE",
"69 445 OFFCURVE",
"69 433 CURVE SMOOTH",
"69 421 OFFCURVE",
"80 410 OFFCURVE",
"92 410 CURVE SMOOTH",
"222 410 LINE",
"142 346 OFFCURVE",
"110 256 OFFCURVE",
"110 176 CURVE SMOOTH",
"110 111 OFFCURVE",
"123 60 OFFCURVE",
"148 12 CURVE SMOOTH",
"152 4 OFFCURVE",
"160 0 OFFCURVE",
"168 0 CURVE SMOOTH",
"182 0 OFFCURVE",
"191 11 OFFCURVE",
"191 23 CURVE SMOOTH",
"191 27 OFFCURVE",
"190 30 OFFCURVE",
"188 34 CURVE SMOOTH",
"167 75 OFFCURVE",
"156 119 OFFCURVE",
"156 176 CURVE SMOOTH",
"156 262 OFFCURVE",
"199 358 OFFCURVE",
"309 410 CURVE",
"355 410 LINE",
"467 357 OFFCURVE",
"515 261 OFFCURVE",
"515 176 CURVE SMOOTH",
"515 119 OFFCURVE",
"503 78 OFFCURVE",
"488 46 CURVE SMOOTH",
"481 31 OFFCURVE",
"480 27 OFFCURVE",
"480 24 CURVE SMOOTH",
"480 10 OFFCURVE",
"491 0 OFFCURVE"
);
}
);
width = 664;
}
);
unicode = 0C97;
userData = {
com.typemytype.robofont.layerData = {
background = {
anchors = (
);
components = (
);
contours = (
);
lib = {
};
name = knGA;
unicodes = (
);
width = 664;
};
};
};
},
{
glyphname = "ga-kannada.base";
lastChange = "2016-04-03 03:35:40 +0000";
layers = (
{
layerId = "EE99E773-27DB-4D1B-BC83-5C5BC0C316FA";
paths = (
{
closed = 1;
nodes = (
"502 0 CURVE SMOOTH",
"511 0 OFFCURVE",
"520 5 OFFCURVE",
"524 13 CURVE SMOOTH",
"547 62 OFFCURVE",
"561 110 OFFCURVE",
"561 176 CURVE SMOOTH",
"561 256 OFFCURVE",
"526 345 OFFCURVE",
"443 410 CURVE",
"453 410 LINE SMOOTH",
"465 410 OFFCURVE",
"476 421 OFFCURVE",
"476 433 CURVE SMOOTH",
"476 445 OFFCURVE",
"465 456 OFFCURVE",
"453 456 CURVE SMOOTH",
"92 456 LINE SMOOTH",
"80 456 OFFCURVE",
"69 445 OFFCURVE",
"69 433 CURVE SMOOTH",
"69 421 OFFCURVE",
"80 410 OFFCURVE",
"92 410 CURVE SMOOTH",
"222 410 LINE",
"142 346 OFFCURVE",
"110 256 OFFCURVE",
"110 176 CURVE SMOOTH",
"110 111 OFFCURVE",
"124 59 OFFCURVE",
"148 12 CURVE SMOOTH",
"152 4 OFFCURVE",
"160 0 OFFCURVE",
"168 0 CURVE SMOOTH",
"181 0 OFFCURVE",
"191 12 OFFCURVE",
"191 23 CURVE SMOOTH",
"191 27 OFFCURVE",
"190 31 OFFCURVE",
"188 34 CURVE SMOOTH",
"167 75 OFFCURVE",
"156 119 OFFCURVE",
"156 176 CURVE SMOOTH",
"156 262 OFFCURVE",
"199 358 OFFCURVE",
"309 410 CURVE",
"355 410 LINE",
"467 357 OFFCURVE",
"515 261 OFFCURVE",
"515 176 CURVE SMOOTH",
"515 118 OFFCURVE",
"503 77 OFFCURVE",
"486 41 CURVE SMOOTH",
"481 31 OFFCURVE",
"480 27 OFFCURVE",
"480 23 CURVE SMOOTH",
"480 11 OFFCURVE",
"491 0 OFFCURVE"
);
}
);
width = 649;
}
);
userData = {
com.typemytype.robofont.layerData = {
background = {
anchors = (
);
components = (
);
contours = (
);
lib = {
};
name = knGA.base;
unicodes = (
);
width = 649;
};
};
};
},
{
glyphname = "gha-kannada";
lastChange = "2016-04-03 03:31:16 +0000";
layers = (
{
layerId = "EE99E773-27DB-4D1B-BC83-5C5BC0C316FA";
paths = (
{
closed = 1;
nodes = (
"383 246 CURVE SMOOTH",
"459 246 OFFCURVE",
"498 297 OFFCURVE",
"498 353 CURVE SMOOTH",
"498 371 OFFCURVE",
"494 391 OFFCURVE",
"484 410 CURVE",
"541 410 LINE SMOOTH",
"624 410 OFFCURVE",
"672 440 OFFCURVE",
"709 499 CURVE SMOOTH",
"711 503 OFFCURVE",
"712 507 OFFCURVE",
"712 511 CURVE SMOOTH",
"712 524 OFFCURVE",
"703 534 OFFCURVE",
"689 534 CURVE SMOOTH",
"681 534 OFFCURVE",
"674 530 OFFCURVE",
"669 523 CURVE SMOOTH",
"641 478 OFFCURVE",
"604 456 OFFCURVE",
"541 456 CURVE SMOOTH",
"106 456 LINE SMOOTH",
"94 456 OFFCURVE",
"83 445 OFFCURVE",
"83 433 CURVE SMOOTH",
"83 421 OFFCURVE",
"94 410 OFFCURVE",
"106 410 CURVE SMOOTH",
"283 410 LINE",
"272 390 OFFCURVE",
"268 370 OFFCURVE",
"268 352 CURVE SMOOTH",
"268 298 OFFCURVE",
"309 246 OFFCURVE"
);
},
{
closed = 1;
nodes = (
"383 292 CURVE SMOOTH",
"341 292 OFFCURVE",
"314 320 OFFCURVE",
"314 352 CURVE SMOOTH",
"314 371 OFFCURVE",
"321 392 OFFCURVE",
"340 410 CURVE",
"428 410 LINE",
"446 391 OFFCURVE",
"452 371 OFFCURVE",
"452 353 CURVE SMOOTH",
"452 319 OFFCURVE",
"427 292 OFFCURVE"
);
},
{
closed = 1;
nodes = (
"547 0 CURVE SMOOTH",
"635 0 OFFCURVE",
"685 61 OFFCURVE",
"685 125 CURVE SMOOTH",
"685 146 OFFCURVE",
"681 165 OFFCURVE",
"673 183 CURVE",
"675 183 LINE SMOOTH",
"730 183 OFFCURVE",
"772 231 OFFCURVE",
"772 278 CURVE SMOOTH",
"772 311 OFFCURVE",
"766 326 OFFCURVE",
"754 347 CURVE SMOOTH",
"750 354 OFFCURVE",
"742 358 OFFCURVE",
"733 358 CURVE SMOOTH",
"721 358 OFFCURVE",
"711 348 OFFCURVE",
"711 334 CURVE SMOOTH",
"711 330 OFFCURVE",
"712 327 OFFCURVE",
"714 323 CURVE SMOOTH",
"722 310 OFFCURVE",
"726 299 OFFCURVE",
"726 278 CURVE SMOOTH",
"726 253 OFFCURVE",
"704 229 OFFCURVE",
"675 229 CURVE SMOOTH",
"656 229 OFFCURVE",
"640 236 OFFCURVE",
"625 248 CURVE SMOOTH",
"615 256 OFFCURVE",
"609 259 OFFCURVE",
"601 259 CURVE SMOOTH",
"588 259 OFFCURVE",
"578 248 OFFCURVE",
"578 236 CURVE SMOOTH",
"578 229 OFFCURVE",
"581 222 OFFCURVE",
"587 217 CURVE SMOOTH",
"616 197 OFFCURVE",
"639 164 OFFCURVE",
"639 125 CURVE SMOOTH",
"639 83 OFFCURVE",
"603 46 OFFCURVE",
"547 46 CURVE SMOOTH",
"482 46 OFFCURVE",
"441 79 OFFCURVE",
"405 136 CURVE SMOOTH",
"401 142 OFFCURVE",
"393 147 OFFCURVE",
"386 147 CURVE SMOOTH",
"381 147 LINE SMOOTH",
"374 147 OFFCURVE",
"366 142 OFFCURVE",
"362 137 CURVE SMOOTH",
"321 76 OFFCURVE",
"283 44 OFFCURVE",
"222 44 CURVE SMOOTH",
"164 44 OFFCURVE",
"126 75 OFFCURVE",
"126 118 CURVE SMOOTH",
"126 156 OFFCURVE",
"155 186 OFFCURVE",
"202 193 CURVE SMOOTH",
"214 195 OFFCURVE",
"222 205 OFFCURVE",
"222 216 CURVE SMOOTH",
"222 227 OFFCURVE",
"214 238 OFFCURVE",
"200 238 CURVE SMOOTH",
"139 238 OFFCURVE",
"80 190 OFFCURVE",
"80 118 CURVE SMOOTH",
"80 55 OFFCURVE",
"128 -2 OFFCURVE",
"222 -2 CURVE SMOOTH",
"289 -2 OFFCURVE",
"336 27 OFFCURVE",
"383 88 CURVE",
"426 31 OFFCURVE",
"475 0 OFFCURVE"
);
},
{
closed = 1;
nodes = (
"407 -93 LINE SMOOTH",
"407 -81 OFFCURVE",
"396 -70 OFFCURVE",
"384 -70 CURVE SMOOTH",
"372 -70 OFFCURVE",
"361 -81 OFFCURVE",
"361 -93 CURVE SMOOTH",
"361 -196 LINE SMOOTH",
"361 -208 OFFCURVE",
"372 -219 OFFCURVE",
"384 -219 CURVE SMOOTH",
"396 -219 OFFCURVE",
"407 -208 OFFCURVE",
"407 -196 CURVE SMOOTH"
);
}
);
width = 827;
}
);
unicode = 0C98;
userData = {
com.typemytype.robofont.layerData = {
background = {
anchors = (
);
components = (
);
contours = (
);
lib = {
};
name = knGHA;
unicodes = (
);
width = 827;
};
};
};
},
{
glyphname = "gha-kannada.base";
lastChange = "2016-04-03 03:35:40 +0000";
layers = (
{
layerId = "EE99E773-27DB-4D1B-BC83-5C5BC0C316FA";
paths = (
{
closed = 1;
nodes = (
"383 246 CURVE SMOOTH",
"459 246 OFFCURVE",
"498 297 OFFCURVE",
"498 353 CURVE SMOOTH",
"498 371 OFFCURVE",
"494 391 OFFCURVE",
"484 410 CURVE",
"541 410 LINE SMOOTH",
"553 410 OFFCURVE",
"564 421 OFFCURVE",
"564 433 CURVE SMOOTH",
"564 445 OFFCURVE",
"553 456 OFFCURVE",
"541 456 CURVE SMOOTH",
"106 456 LINE SMOOTH",
"94 456 OFFCURVE",
"83 445 OFFCURVE",
"83 433 CURVE SMOOTH",
"83 421 OFFCURVE",
"94 410 OFFCURVE",
"106 410 CURVE SMOOTH",
"283 410 LINE",
"272 390 OFFCURVE",
"268 370 OFFCURVE",
"268 352 CURVE SMOOTH",
"268 298 OFFCURVE",
"309 246 OFFCURVE"
);
},
{
closed = 1;
nodes = (
"383 292 CURVE SMOOTH",
"341 292 OFFCURVE",
"314 320 OFFCURVE",
"314 352 CURVE SMOOTH",
"314 371 OFFCURVE",
"321 392 OFFCURVE",
"340 410 CURVE",
"428 410 LINE",
"446 391 OFFCURVE",
"452 371 OFFCURVE",
"452 353 CURVE SMOOTH",
"452 319 OFFCURVE",
"427 292 OFFCURVE"
);
},
{
closed = 1;
nodes = (
"547 0 CURVE SMOOTH",
"635 0 OFFCURVE",
"685 61 OFFCURVE",
"685 125 CURVE SMOOTH",
"685 146 OFFCURVE",
"681 165 OFFCURVE",
"673 183 CURVE",
"675 183 LINE SMOOTH",
"730 183 OFFCURVE",
"772 231 OFFCURVE",
"772 278 CURVE SMOOTH",
"772 311 OFFCURVE",
"766 326 OFFCURVE",
"754 347 CURVE SMOOTH",
"750 354 OFFCURVE",
"742 358 OFFCURVE",
"733 358 CURVE SMOOTH",
"722 358 OFFCURVE",
"711 348 OFFCURVE",
"711 334 CURVE SMOOTH",
"711 330 OFFCURVE",
"712 327 OFFCURVE",
"714 323 CURVE SMOOTH",
"722 310 OFFCURVE",
"726 299 OFFCURVE",
"726 278 CURVE SMOOTH",
"726 253 OFFCURVE",
"704 229 OFFCURVE",
"675 229 CURVE SMOOTH",
"656 229 OFFCURVE",
"637 237 OFFCURVE",
"623 249 CURVE SMOOTH",
"615 256 OFFCURVE",
"609 259 OFFCURVE",
"601 259 CURVE SMOOTH",
"587 259 OFFCURVE",
"578 249 OFFCURVE",
"578 236 CURVE SMOOTH",
"578 229 OFFCURVE",
"581 222 OFFCURVE",
"587 217 CURVE SMOOTH",
"616 197 OFFCURVE",
"639 164 OFFCURVE",
"639 125 CURVE SMOOTH",
"639 83 OFFCURVE",
"603 46 OFFCURVE",
"547 46 CURVE SMOOTH",
"482 46 OFFCURVE",
"441 79 OFFCURVE",
"405 136 CURVE SMOOTH",
"401 142 OFFCURVE",
"393 147 OFFCURVE",
"386 147 CURVE SMOOTH",
"381 147 LINE SMOOTH",
"374 147 OFFCURVE",
"366 142 OFFCURVE",
"362 137 CURVE SMOOTH",
"321 76 OFFCURVE",
"283 44 OFFCURVE",
"222 44 CURVE SMOOTH",
"164 44 OFFCURVE",
"126 75 OFFCURVE",
"126 118 CURVE SMOOTH",
"126 156 OFFCURVE",
"155 186 OFFCURVE",
"202 193 CURVE SMOOTH",
"214 195 OFFCURVE",
"222 205 OFFCURVE",
"222 216 CURVE SMOOTH",
"222 228 OFFCURVE",
"214 238 OFFCURVE",
"200 238 CURVE SMOOTH",
"138 238 OFFCURVE",
"80 186 OFFCURVE",
"80 118 CURVE SMOOTH",
"80 55 OFFCURVE",
"128 -2 OFFCURVE",
"222 -2 CURVE SMOOTH",
"289 -2 OFFCURVE",
"336 27 OFFCURVE",
"383 88 CURVE",
"426 31 OFFCURVE",
"475 0 OFFCURVE"
);
},
{
closed = 1;
nodes = (
"407 -93 LINE SMOOTH",
"407 -81 OFFCURVE",
"396 -70 OFFCURVE",
"384 -70 CURVE SMOOTH",
"372 -70 OFFCURVE",
"361 -81 OFFCURVE",
"361 -93 CURVE SMOOTH",
"361 -196 LINE SMOOTH",
"361 -208 OFFCURVE",
"372 -219 OFFCURVE",
"384 -219 CURVE SMOOTH",
"396 -219 OFFCURVE",
"407 -208 OFFCURVE",
"407 -196 CURVE SMOOTH"
);
}
);
width = 832;
}
);
userData = {
com.typemytype.robofont.layerData = {
background = {
anchors = (
);
components = (
);
contours = (
);
lib = {
};
name = knGHA.base;
unicodes = (
);
width = 832;
};
};
};
},
{
glyphname = "nga-kannada";
lastChange = "2016-04-03 03:31:16 +0000";
layers = (
{
layerId = "EE99E773-27DB-4D1B-BC83-5C5BC0C316FA";
paths = (
{
closed = 1;
nodes = (
"683 131 CURVE SMOOTH",
"683 181 OFFCURVE",
"663 222 OFFCURVE",
"631 252 CURVE SMOOTH",
"627 256 OFFCURVE",
"621 258 OFFCURVE",
"615 258 CURVE SMOOTH",
"602 258 OFFCURVE",
"592 249 OFFCURVE",
"592 235 CURVE SMOOTH",
"592 229 OFFCURVE",
"594 223 OFFCURVE",
"599 218 CURVE SMOOTH",
"623 196 OFFCURVE",
"637 167 OFFCURVE",
"637 131 CURVE SMOOTH",
"637 85 OFFCURVE",
"602 47 OFFCURVE",
"545 47 CURVE SMOOTH",
"480 47 OFFCURVE",
"439 80 OFFCURVE",
"403 137 CURVE SMOOTH",
"399 143 OFFCURVE",
"391 148 OFFCURVE",
"384 148 CURVE SMOOTH",
"379 148 LINE SMOOTH",
"372 148 OFFCURVE",
"363 143 OFFCURVE",
"359 137 CURVE SMOOTH",
"320 74 OFFCURVE",
"281 47 OFFCURVE",
"222 47 CURVE SMOOTH",
"165 47 OFFCURVE",
"133 82 OFFCURVE",
"133 126 CURVE SMOOTH",
"133 168 OFFCURVE",
"162 203 OFFCURVE",
"203 236 CURVE SMOOTH",
"252 275 OFFCURVE",
"276 307 OFFCURVE",
"286 338 CURVE SMOOTH",
"320 438 OFFCURVE",
"379 478 OFFCURVE",
"443 478 CURVE SMOOTH",
"504 478 OFFCURVE",
"553 451 OFFCURVE",
"600 380 CURVE SMOOTH",
"604 374 OFFCURVE",
"612 370 OFFCURVE",
"619 370 CURVE SMOOTH",
"631 370 OFFCURVE",
"642 380 OFFCURVE",
"642 393 CURVE SMOOTH",
"642 397 OFFCURVE",
"641 402 OFFCURVE",
"638 406 CURVE SMOOTH",
"581 493 OFFCURVE",
"518 524 OFFCURVE",
"443 524 CURVE SMOOTH",
"382 524 OFFCURVE",
"321 498 OFFCURVE",
"276 426 CURVE",
"259 453 OFFCURVE",
"227 472 OFFCURVE",
"183 472 CURVE SMOOTH",
"140 472 OFFCURVE",
"105 452 OFFCURVE",
"75 418 CURVE SMOOTH",
"71 414 OFFCURVE",
"69 408 OFFCURVE",
"69 403 CURVE SMOOTH",
"69 390 OFFCURVE",
"81 380 OFFCURVE",
"92 380 CURVE SMOOTH",
"99 380 OFFCURVE",
"105 383 OFFCURVE",
"109 388 CURVE SMOOTH",
"129 410 OFFCURVE",
"154 426 OFFCURVE",
"183 426 CURVE SMOOTH",
"219 426 OFFCURVE",
"245 403 OFFCURVE",
"245 372 CURVE SMOOTH",
"245 338 OFFCURVE",
"223 311 OFFCURVE",
"175 272 CURVE SMOOTH",
"120 227 OFFCURVE",
"87 180 OFFCURVE",
"87 126 CURVE SMOOTH",
"87 60 OFFCURVE",
"133 1 OFFCURVE",
"222 1 CURVE SMOOTH",
"289 1 OFFCURVE",
"337 26 OFFCURVE",
"382 88 CURVE",
"425 31 OFFCURVE",
"474 1 OFFCURVE",
"545 1 CURVE SMOOTH",
"632 1 OFFCURVE",
"683 61 OFFCURVE"
);
},
{
closed = 1;
nodes = (
"428 364 CURVE SMOOTH",
"400 364 OFFCURVE",
"377 336 OFFCURVE",
"377 314 CURVE SMOOTH",
"377 285 OFFCURVE",
"401 262 OFFCURVE",
"428 262 CURVE SMOOTH",
"459 262 OFFCURVE",
"480 286 OFFCURVE",
"480 313 CURVE SMOOTH",
"480 336 OFFCURVE",
"459 364 OFFCURVE"
);
}
);
width = 742;
}
);
unicode = 0C99;
userData = {
com.typemytype.robofont.layerData = {
background = {
anchors = (
);
components = (
);
contours = (
);
lib = {
};
name = knNGA;
unicodes = (
);
width = 742;
};
};
};
},
{
glyphname = "nga-kannada.base";
lastChange = "2016-04-03 03:35:40 +0000";
layers = (
{
layerId = "EE99E773-27DB-4D1B-BC83-5C5BC0C316FA";
paths = (
{
closed = 1;
nodes = (
"683 131 CURVE SMOOTH",
"683 181 OFFCURVE",
"663 222 OFFCURVE",
"631 252 CURVE SMOOTH",
"627 256 OFFCURVE",
"621 258 OFFCURVE",
"615 258 CURVE SMOOTH",
"602 258 OFFCURVE",
"592 249 OFFCURVE",
"592 235 CURVE SMOOTH",
"592 229 OFFCURVE",
"594 223 OFFCURVE",
"599 218 CURVE SMOOTH",
"623 196 OFFCURVE",
"637 167 OFFCURVE",
"637 131 CURVE SMOOTH",
"637 85 OFFCURVE",
"602 47 OFFCURVE",
"545 47 CURVE SMOOTH",
"480 47 OFFCURVE",
"439 80 OFFCURVE",
"403 137 CURVE SMOOTH",
"399 143 OFFCURVE",
"391 148 OFFCURVE",
"384 148 CURVE SMOOTH",
"379 148 LINE SMOOTH",
"372 148 OFFCURVE",
"363 143 OFFCURVE",
"359 137 CURVE SMOOTH",
"320 74 OFFCURVE",
"281 47 OFFCURVE",
"222 47 CURVE SMOOTH",
"165 47 OFFCURVE",
"133 82 OFFCURVE",
"133 126 CURVE SMOOTH",
"133 168 OFFCURVE",
"162 203 OFFCURVE",
"203 236 CURVE SMOOTH",
"252 275 OFFCURVE",
"276 307 OFFCURVE",
"286 338 CURVE SMOOTH",
"320 438 OFFCURVE",
"379 478 OFFCURVE",
"443 478 CURVE SMOOTH",
"504 478 OFFCURVE",
"553 451 OFFCURVE",
"600 380 CURVE SMOOTH",
"604 374 OFFCURVE",
"612 370 OFFCURVE",
"619 370 CURVE SMOOTH",
"631 370 OFFCURVE",
"642 380 OFFCURVE",
"642 393 CURVE SMOOTH",
"642 398 OFFCURVE",
"640 405 OFFCURVE",
"635 410 CURVE",
"690 410 LINE SMOOTH",
"702 410 OFFCURVE",
"713 421 OFFCURVE",
"713 433 CURVE SMOOTH",
"713 445 OFFCURVE",
"702 456 OFFCURVE",
"690 456 CURVE SMOOTH",
"599 456 LINE",
"552 505 OFFCURVE",
"501 524 OFFCURVE",
"443 524 CURVE SMOOTH",
"382 524 OFFCURVE",
"321 498 OFFCURVE",
"276 426 CURVE",
"259 453 OFFCURVE",
"227 472 OFFCURVE",
"183 472 CURVE SMOOTH",
"140 472 OFFCURVE",
"105 452 OFFCURVE",
"75 418 CURVE SMOOTH",
"71 414 OFFCURVE",
"69 408 OFFCURVE",
"69 403 CURVE SMOOTH",
"69 390 OFFCURVE",
"81 380 OFFCURVE",
"92 380 CURVE SMOOTH",
"99 380 OFFCURVE",
"105 383 OFFCURVE",
"109 388 CURVE SMOOTH",
"129 410 OFFCURVE",
"154 426 OFFCURVE",
"183 426 CURVE SMOOTH",
"219 426 OFFCURVE",
"245 403 OFFCURVE",
"245 372 CURVE SMOOTH",
"245 338 OFFCURVE",
"223 311 OFFCURVE",
"175 272 CURVE SMOOTH",
"120 227 OFFCURVE",
"87 180 OFFCURVE",
"87 126 CURVE SMOOTH",
"87 60 OFFCURVE",
"133 1 OFFCURVE",
"222 1 CURVE SMOOTH",
"289 1 OFFCURVE",
"337 26 OFFCURVE",
"382 88 CURVE",
"425 31 OFFCURVE",
"474 1 OFFCURVE",
"545 1 CURVE SMOOTH",
"632 1 OFFCURVE",
"683 61 OFFCURVE"
);
},
{
closed = 1;
nodes = (
"428 364 CURVE SMOOTH",
"400 364 OFFCURVE",
"377 336 OFFCURVE",
"377 314 CURVE SMOOTH",
"377 285 OFFCURVE",
"401 262 OFFCURVE",
"428 262 CURVE SMOOTH",
"459 262 OFFCURVE",
"480 286 OFFCURVE",
"480 313 CURVE SMOOTH",
"480 336 OFFCURVE",
"459 364 OFFCURVE"
);
}
);
width = 704;
}
);
userData = {
com.typemytype.robofont.layerData = {
background = {
anchors = (
);
components = (
);
contours = (
);
lib = {
};
name = knNGA.base;
unicodes = (
);
width = 704;
};
};
};
},
{
glyphname = "ca-kannada";
lastChange = "2016-04-03 03:31:16 +0000";
layers = (
{
layerId = "EE99E773-27DB-4D1B-BC83-5C5BC0C316FA";
paths = (
{
closed = 1;
nodes = (
"545 0 CURVE SMOOTH",
"632 0 OFFCURVE",
"683 63 OFFCURVE",
"683 133 CURVE SMOOTH",
"683 176 OFFCURVE",
"669 220 OFFCURVE",
"631 263 CURVE",
"715 263 LINE SMOOTH",
"727 263 OFFCURVE",
"738 274 OFFCURVE",
"738 286 CURVE SMOOTH",
"738 298 OFFCURVE",
"727 309 OFFCURVE",
"715 309 CURVE SMOOTH",
"613 309 LINE",
"613 412 LINE",
"677 418 OFFCURVE",
"718 448 OFFCURVE",
"750 499 CURVE SMOOTH",
"752 503 OFFCURVE",
"753 507 OFFCURVE",
"753 511 CURVE SMOOTH",
"753 524 OFFCURVE",
"744 534 OFFCURVE",
"730 534 CURVE SMOOTH",
"722 534 OFFCURVE",
"715 530 OFFCURVE",
"710 523 CURVE SMOOTH",
"682 478 OFFCURVE",
"645 456 OFFCURVE",
"582 456 CURVE SMOOTH",
"440 456 LINE SMOOTH",
"428 456 OFFCURVE",
"417 445 OFFCURVE",
"417 433 CURVE SMOOTH",
"417 421 OFFCURVE",
"428 410 OFFCURVE",
"440 410 CURVE SMOOTH",
"567 410 LINE",
"567 309 LINE",
"438 309 LINE SMOOTH",
"426 309 OFFCURVE",
"415 298 OFFCURVE",
"415 286 CURVE SMOOTH",
"415 274 OFFCURVE",
"426 263 OFFCURVE",
"438 263 CURVE SMOOTH",
"565 263 LINE",
"615 223 OFFCURVE",
"637 177 OFFCURVE",
"637 133 CURVE SMOOTH",
"637 87 OFFCURVE",
"602 46 OFFCURVE",
"545 46 CURVE SMOOTH",
"480 46 OFFCURVE",
"439 79 OFFCURVE",
"403 136 CURVE SMOOTH",
"399 142 OFFCURVE",
"391 147 OFFCURVE",
"384 147 CURVE SMOOTH",
"379 147 LINE SMOOTH",
"372 147 OFFCURVE",
"363 142 OFFCURVE",
"359 136 CURVE SMOOTH",
"320 73 OFFCURVE",
"281 46 OFFCURVE",
"222 46 CURVE SMOOTH",
"165 46 OFFCURVE",
"133 81 OFFCURVE",
"133 125 CURVE SMOOTH",
"133 167 OFFCURVE",
"162 202 OFFCURVE",
"203 235 CURVE SMOOTH",
"269 288 OFFCURVE",
"291 327 OFFCURVE",
"291 371 CURVE SMOOTH",
"291 426 OFFCURVE",
"251 471 OFFCURVE",
"183 471 CURVE SMOOTH",
"140 471 OFFCURVE",
"105 451 OFFCURVE",
"75 417 CURVE SMOOTH",
"71 413 OFFCURVE",
"69 407 OFFCURVE",
"69 402 CURVE SMOOTH",
"69 388 OFFCURVE",
"80 379 OFFCURVE",
"92 379 CURVE SMOOTH",
"99 379 OFFCURVE",
"105 382 OFFCURVE",
"109 387 CURVE SMOOTH",
"129 409 OFFCURVE",
"154 425 OFFCURVE",
"183 425 CURVE SMOOTH",
"219 425 OFFCURVE",
"245 402 OFFCURVE",
"245 371 CURVE SMOOTH",
"245 337 OFFCURVE",
"223 310 OFFCURVE",
"175 271 CURVE SMOOTH",
"120 226 OFFCURVE",
"87 179 OFFCURVE",
"87 125 CURVE SMOOTH",
"87 59 OFFCURVE",
"133 0 OFFCURVE",
"222 0 CURVE SMOOTH",
"289 0 OFFCURVE",
"337 25 OFFCURVE",
"382 87 CURVE",
"425 30 OFFCURVE",
"474 0 OFFCURVE"
);
}
);
width = 795;
}
);
unicode = 0C9A;
userData = {
com.typemytype.robofont.layerData = {
background = {
anchors = (
);
components = (
);
contours = (
);
lib = {
};
name = knCA;
unicodes = (
);
width = 795;
};
};
};
},
{
glyphname = "ca-kannada.base";
lastChange = "2016-04-03 03:35:40 +0000";
layers = (
{
layerId = "EE99E773-27DB-4D1B-BC83-5C5BC0C316FA";
paths = (
{
closed = 1;
nodes = (
"545 0 CURVE SMOOTH",
"632 0 OFFCURVE",
"683 63 OFFCURVE",
"683 133 CURVE SMOOTH",
"683 180 OFFCURVE",
"666 222 OFFCURVE",
"626 263 CURVE",
"715 263 LINE SMOOTH",
"727 263 OFFCURVE",
"738 274 OFFCURVE",
"738 286 CURVE SMOOTH",
"738 298 OFFCURVE",
"727 309 OFFCURVE",
"715 309 CURVE SMOOTH",
"613 309 LINE",
"613 417 LINE",
"617 421 OFFCURVE",
"620 427 OFFCURVE",
"620 433 CURVE SMOOTH",
"620 445 OFFCURVE",
"609 456 OFFCURVE",
"597 456 CURVE SMOOTH",
"440 456 LINE SMOOTH",
"428 456 OFFCURVE",
"417 445 OFFCURVE",
"417 433 CURVE SMOOTH",
"417 421 OFFCURVE",
"428 410 OFFCURVE",
"440 410 CURVE SMOOTH",
"567 410 LINE",
"567 309 LINE",
"438 309 LINE SMOOTH",
"426 309 OFFCURVE",
"415 298 OFFCURVE",
"415 286 CURVE SMOOTH",
"415 274 OFFCURVE",
"426 263 OFFCURVE",
"438 263 CURVE SMOOTH",
"556 263 LINE",
"560 260 OFFCURVE",
"564 257 OFFCURVE",
"567 255 CURVE SMOOTH",
"616 217 OFFCURVE",
"637 179 OFFCURVE",
"637 133 CURVE SMOOTH",
"637 87 OFFCURVE",
"602 46 OFFCURVE",
"545 46 CURVE SMOOTH",
"480 46 OFFCURVE",
"439 79 OFFCURVE",
"403 136 CURVE SMOOTH",
"399 142 OFFCURVE",
"391 147 OFFCURVE",
"384 147 CURVE SMOOTH",
"379 147 LINE SMOOTH",
"372 147 OFFCURVE",
"363 142 OFFCURVE",
"359 136 CURVE SMOOTH",
"320 73 OFFCURVE",
"281 46 OFFCURVE",
"222 46 CURVE SMOOTH",
"165 46 OFFCURVE",
"133 81 OFFCURVE",
"133 125 CURVE SMOOTH",
"133 167 OFFCURVE",
"162 202 OFFCURVE",
"203 235 CURVE SMOOTH",
"269 288 OFFCURVE",
"291 327 OFFCURVE",
"291 371 CURVE SMOOTH",
"291 426 OFFCURVE",
"251 471 OFFCURVE",
"183 471 CURVE SMOOTH",
"140 471 OFFCURVE",
"105 451 OFFCURVE",
"75 417 CURVE SMOOTH",
"71 413 OFFCURVE",
"69 407 OFFCURVE",
"69 402 CURVE SMOOTH",
"69 389 OFFCURVE",
"81 379 OFFCURVE",
"92 379 CURVE SMOOTH",
"99 379 OFFCURVE",
"105 382 OFFCURVE",
"109 387 CURVE SMOOTH",
"129 409 OFFCURVE",
"154 425 OFFCURVE",
"183 425 CURVE SMOOTH",
"219 425 OFFCURVE",
"245 402 OFFCURVE",
"245 371 CURVE SMOOTH",
"245 337 OFFCURVE",
"223 310 OFFCURVE",
"175 271 CURVE SMOOTH",
"120 226 OFFCURVE",
"87 179 OFFCURVE",
"87 125 CURVE SMOOTH",
"87 59 OFFCURVE",
"133 0 OFFCURVE",
"222 0 CURVE SMOOTH",
"289 0 OFFCURVE",
"337 25 OFFCURVE",
"382 87 CURVE",
"425 30 OFFCURVE",
"474 0 OFFCURVE"
);
}
);
width = 780;
}
);
userData = {
com.typemytype.robofont.layerData = {
background = {
anchors = (
);
components = (
);
contours = (
);
lib = {
};
name = knCA.base;
unicodes = (
);
width = 780;
};
};
};
},
{
glyphname = "cha-kannada";
lastChange = "2016-04-03 03:31:16 +0000";
layers = (
{
layerId = "EE99E773-27DB-4D1B-BC83-5C5BC0C316FA";
paths = (
{
closed = 1;
nodes = (
"234 305 CURVE SMOOTH",
"201 305 OFFCURVE",
"176 325 OFFCURVE",
"154 356 CURVE",
"173 397 OFFCURVE",
"201 425 OFFCURVE",
"239 425 CURVE SMOOTH",
"274 425 OFFCURVE",
"299 400 OFFCURVE",
"299 364 CURVE SMOOTH",
"299 327 OFFCURVE",
"269 305 OFFCURVE"
);
},
{
closed = 1;
nodes = (
"710 179 CURVE SMOOTH",
"710 265 OFFCURVE",
"680 343 OFFCURVE",
"607 412 CURVE",
"670 419 OFFCURVE",
"710 448 OFFCURVE",
"742 499 CURVE SMOOTH",
"744 503 OFFCURVE",
"745 507 OFFCURVE",
"745 511 CURVE SMOOTH",
"745 524 OFFCURVE",
"736 534 OFFCURVE",
"722 534 CURVE SMOOTH",
"714 534 OFFCURVE",
"707 530 OFFCURVE",
"702 523 CURVE SMOOTH",
"674 478 OFFCURVE",
"637 456 OFFCURVE",
"574 456 CURVE SMOOTH",
"470 456 LINE SMOOTH",
"458 456 OFFCURVE",
"447 445 OFFCURVE",
"447 433 CURVE SMOOTH",
"447 421 OFFCURVE",
"458 410 OFFCURVE",
"470 410 CURVE SMOOTH",
"537 410 LINE",
"627 344 OFFCURVE",
"664 266 OFFCURVE",
"664 179 CURVE SMOOTH",
"664 102 OFFCURVE",
"619 46 OFFCURVE",
"557 46 CURVE SMOOTH",
"501 46 OFFCURVE",
"461 77 OFFCURVE",
"428 135 CURVE SMOOTH",
"424 142 OFFCURVE",
"415 147 OFFCURVE",
"408 147 CURVE SMOOTH",
"403 147 LINE SMOOTH",
"395 147 OFFCURVE",
"387 142 OFFCURVE",
"383 135 CURVE SMOOTH",
"353 77 OFFCURVE",
"319 46 OFFCURVE",
"264 46 CURVE SMOOTH",
"178 46 OFFCURVE",
"127 125 OFFCURVE",
"127 225 CURVE SMOOTH",
"127 252 OFFCURVE",
"130 280 OFFCURVE",
"136 305 CURVE",
"164 276 OFFCURVE",
"197 259 OFFCURVE",
"234 259 CURVE SMOOTH",
"295 259 OFFCURVE",
"345 301 OFFCURVE",
"345 364 CURVE SMOOTH",
"345 426 OFFCURVE",
"304 471 OFFCURVE",
"237 471 CURVE SMOOTH",
"158 471 OFFCURVE",
"81 370 OFFCURVE",
"81 225 CURVE SMOOTH",
"81 91 OFFCURVE",
"157 0 OFFCURVE",
"264 0 CURVE SMOOTH",
"326 0 OFFCURVE",
"369 26 OFFCURVE",
"406 84 CURVE",
"446 28 OFFCURVE",
"495 0 OFFCURVE",
"557 0 CURVE SMOOTH",
"641 0 OFFCURVE",
"710 70 OFFCURVE"
);
},
{
closed = 1;
nodes = (
"429 -93 LINE SMOOTH",
"429 -81 OFFCURVE",
"418 -70 OFFCURVE",
"406 -70 CURVE SMOOTH",
"394 -70 OFFCURVE",
"383 -81 OFFCURVE",
"383 -93 CURVE SMOOTH",
"383 -196 LINE SMOOTH",
"383 -208 OFFCURVE",
"394 -219 OFFCURVE",
"406 -219 CURVE SMOOTH",
"418 -219 OFFCURVE",
"429 -208 OFFCURVE",
"429 -196 CURVE SMOOTH"
);
}
);
width = 789;
}
);
unicode = 0C9B;
userData = {
com.typemytype.robofont.layerData = {
background = {
anchors = (
);
components = (
);
contours = (
);
lib = {
};
name = knCHA;
unicodes = (
);
width = 789;
};
};
};
},
{
glyphname = "cha-kannada.base";
lastChange = "2016-04-03 03:35:40 +0000";
layers = (
{
layerId = "EE99E773-27DB-4D1B-BC83-5C5BC0C316FA";
paths = (
{
closed = 1;
nodes = (
"234 305 CURVE SMOOTH",
"201 305 OFFCURVE",
"176 325 OFFCURVE",
"154 356 CURVE",
"173 397 OFFCURVE",
"201 425 OFFCURVE",
"240 425 CURVE SMOOTH",
"274 425 OFFCURVE",
"299 400 OFFCURVE",
"299 364 CURVE SMOOTH",
"299 327 OFFCURVE",
"269 305 OFFCURVE"
);
},
{
closed = 1;
nodes = (
"326 0 OFFCURVE",
"369 26 OFFCURVE",
"406 84 CURVE",
"446 28 OFFCURVE",
"495 0 OFFCURVE",
"557 0 CURVE SMOOTH",
"641 0 OFFCURVE",
"710 70 OFFCURVE",
"710 179 CURVE SMOOTH",
"710 270 OFFCURVE",
"677 351 OFFCURVE",
"594 423 CURVE",
"596 426 OFFCURVE",
"597 429 OFFCURVE",
"597 433 CURVE SMOOTH",
"597 445 OFFCURVE",
"586 456 OFFCURVE",
"574 456 CURVE SMOOTH",
"470 456 LINE SMOOTH",
"458 456 OFFCURVE",
"447 445 OFFCURVE",
"447 433 CURVE SMOOTH",
"447 421 OFFCURVE",
"458 410 OFFCURVE",
"470 410 CURVE SMOOTH",
"537 410 LINE",
"627 344 OFFCURVE",
"664 266 OFFCURVE",
"664 179 CURVE SMOOTH",
"664 102 OFFCURVE",
"619 46 OFFCURVE",
"557 46 CURVE SMOOTH",
"501 46 OFFCURVE",
"461 77 OFFCURVE",
"428 135 CURVE SMOOTH",
"424 142 OFFCURVE",
"415 147 OFFCURVE",
"408 147 CURVE SMOOTH",
"403 147 LINE SMOOTH",
"395 147 OFFCURVE",
"387 142 OFFCURVE",
"383 135 CURVE SMOOTH",
"353 77 OFFCURVE",
"319 46 OFFCURVE",
"261 46 CURVE SMOOTH",
"177 47 OFFCURVE",
"127 126 OFFCURVE",
"127 225 CURVE SMOOTH",
"127 252 OFFCURVE",
"130 280 OFFCURVE",
"136 305 CURVE",
"164 276 OFFCURVE",
"197 259 OFFCURVE",
"234 259 CURVE SMOOTH",
"295 259 OFFCURVE",
"345 301 OFFCURVE",
"345 364 CURVE SMOOTH",
"345 426 OFFCURVE",
"304 471 OFFCURVE",
"240 471 CURVE SMOOTH",
"158 471 OFFCURVE",
"81 370 OFFCURVE",
"81 225 CURVE SMOOTH",
"81 92 OFFCURVE",
"155 1 OFFCURVE",
"261 0 CURVE SMOOTH"
);
},
{
closed = 1;
nodes = (
"429 -93 LINE SMOOTH",
"429 -81 OFFCURVE",
"418 -70 OFFCURVE",
"406 -70 CURVE SMOOTH",
"394 -70 OFFCURVE",
"383 -81 OFFCURVE",
"383 -93 CURVE SMOOTH",
"383 -196 LINE SMOOTH",
"383 -208 OFFCURVE",
"394 -219 OFFCURVE",
"406 -219 CURVE SMOOTH",
"418 -219 OFFCURVE",
"429 -208 OFFCURVE",
"429 -196 CURVE SMOOTH"
);
}
);
width = 768;
}
);
userData = {
com.typemytype.robofont.layerData = {
background = {
anchors = (
);
components = (
);
contours = (
);
lib = {
};
name = knCHA.base;
unicodes = (
);
width = 768;
};
};
};
},
{
glyphname = "ja-kannada";
lastChange = "2016-04-03 03:31:16 +0000";
layers = (
{
layerId = "EE99E773-27DB-4D1B-BC83-5C5BC0C316FA";
paths = (
{
closed = 1;
nodes = (
"683 130 CURVE SMOOTH",
"683 180 OFFCURVE",
"663 221 OFFCURVE",
"631 251 CURVE SMOOTH",
"627 255 OFFCURVE",
"621 257 OFFCURVE",
"615 257 CURVE SMOOTH",
"602 257 OFFCURVE",
"592 248 OFFCURVE",
"592 234 CURVE SMOOTH",
"592 228 OFFCURVE",
"594 222 OFFCURVE",
"599 217 CURVE SMOOTH",
"623 195 OFFCURVE",
"637 166 OFFCURVE",
"637 130 CURVE SMOOTH",
"637 84 OFFCURVE",
"602 46 OFFCURVE",
"545 46 CURVE SMOOTH",
"480 46 OFFCURVE",
"439 79 OFFCURVE",
"403 136 CURVE SMOOTH",
"399 142 OFFCURVE",
"391 147 OFFCURVE",
"384 147 CURVE SMOOTH",
"379 147 LINE SMOOTH",
"372 147 OFFCURVE",
"363 142 OFFCURVE",
"359 136 CURVE SMOOTH",
"320 73 OFFCURVE",
"281 46 OFFCURVE",
"222 46 CURVE SMOOTH",
"165 46 OFFCURVE",
"133 81 OFFCURVE",
"133 125 CURVE SMOOTH",
"133 167 OFFCURVE",
"162 202 OFFCURVE",
"203 235 CURVE SMOOTH",
"258 279 OFFCURVE",
"283 314 OFFCURVE",
"289 350 CURVE",
"346 299 OFFCURVE",
"402 271 OFFCURVE",
"471 271 CURVE SMOOTH",
"555 271 OFFCURVE",
"597 326 OFFCURVE",
"597 387 CURVE SMOOTH",
"597 403 OFFCURVE",
"593 424 OFFCURVE",
"587 441 CURVE SMOOTH",
"583 450 OFFCURVE",
"574 456 OFFCURVE",
"564 456 CURVE SMOOTH",
"551 456 OFFCURVE",
"542 444 OFFCURVE",
"542 432 CURVE SMOOTH",
"542 421 OFFCURVE",
"551 409 OFFCURVE",
"551 387 CURVE SMOOTH",
"551 348 OFFCURVE",
"521 317 OFFCURVE",
"471 317 CURVE SMOOTH",
"396 317 OFFCURVE",
"340 359 OFFCURVE",
"277 427 CURVE SMOOTH",
"265 439 LINE SMOOTH",
"247 458 OFFCURVE",
"219 471 OFFCURVE",
"183 471 CURVE SMOOTH",
"140 471 OFFCURVE",
"105 451 OFFCURVE",
"75 417 CURVE SMOOTH",
"71 413 OFFCURVE",
"69 407 OFFCURVE",
"69 402 CURVE SMOOTH",
"69 389 OFFCURVE",
"81 379 OFFCURVE",
"92 379 CURVE SMOOTH",
"99 379 OFFCURVE",
"105 382 OFFCURVE",
"109 387 CURVE SMOOTH",
"129 409 OFFCURVE",
"154 425 OFFCURVE",
"183 425 CURVE SMOOTH",
"219 425 OFFCURVE",
"245 402 OFFCURVE",
"245 371 CURVE SMOOTH",
"245 337 OFFCURVE",
"223 310 OFFCURVE",
"175 271 CURVE SMOOTH",
"120 226 OFFCURVE",
"87 179 OFFCURVE",
"87 125 CURVE SMOOTH",
"87 59 OFFCURVE",
"133 0 OFFCURVE",
"222 0 CURVE SMOOTH",
"289 0 OFFCURVE",
"337 25 OFFCURVE",
"382 87 CURVE",
"425 30 OFFCURVE",
"474 0 OFFCURVE",
"545 0 CURVE SMOOTH",
"632 0 OFFCURVE",
"683 60 OFFCURVE"
);
}
);
width = 742;
}
);
unicode = 0C9C;
userData = {
com.typemytype.robofont.layerData = {
background = {
anchors = (
);
components = (
);
contours = (
);
lib = {
};
name = knJA;
unicodes = (
);
width = 742;
};
};
};
},
{
glyphname = "ja-kannada.base";
lastChange = "2016-04-03 03:35:40 +0000";
layers = (
{
layerId = "EE99E773-27DB-4D1B-BC83-5C5BC0C316FA";
paths = (
{
closed = 1;
nodes = (
"683 130 CURVE SMOOTH",
"683 180 OFFCURVE",
"663 221 OFFCURVE",
"631 251 CURVE SMOOTH",
"627 255 OFFCURVE",
"621 257 OFFCURVE",
"615 257 CURVE SMOOTH",
"602 257 OFFCURVE",
"592 248 OFFCURVE",
"592 234 CURVE SMOOTH",
"592 228 OFFCURVE",
"594 222 OFFCURVE",
"599 217 CURVE SMOOTH",
"623 195 OFFCURVE",
"637 166 OFFCURVE",
"637 130 CURVE SMOOTH",
"637 84 OFFCURVE",
"602 46 OFFCURVE",
"545 46 CURVE SMOOTH",
"480 46 OFFCURVE",
"439 79 OFFCURVE",
"403 136 CURVE SMOOTH",
"399 142 OFFCURVE",
"391 147 OFFCURVE",
"384 147 CURVE SMOOTH",
"379 147 LINE SMOOTH",
"372 147 OFFCURVE",
"363 142 OFFCURVE",
"359 136 CURVE SMOOTH",
"320 73 OFFCURVE",
"281 46 OFFCURVE",
"222 46 CURVE SMOOTH",
"165 46 OFFCURVE",
"133 81 OFFCURVE",
"133 125 CURVE SMOOTH",
"133 167 OFFCURVE",
"162 202 OFFCURVE",
"203 235 CURVE SMOOTH",
"258 279 OFFCURVE",
"283 314 OFFCURVE",
"289 350 CURVE",
"346 299 OFFCURVE",
"402 271 OFFCURVE",
"471 271 CURVE SMOOTH",
"555 271 OFFCURVE",
"597 326 OFFCURVE",
"597 387 CURVE SMOOTH",
"597 403 OFFCURVE",
"593 424 OFFCURVE",
"587 441 CURVE SMOOTH",
"583 450 OFFCURVE",
"574 456 OFFCURVE",
"564 456 CURVE SMOOTH",
"457 456 LINE SMOOTH",
"445 456 OFFCURVE",
"434 445 OFFCURVE",
"434 433 CURVE SMOOTH",
"434 421 OFFCURVE",
"445 410 OFFCURVE",
"457 410 CURVE SMOOTH",
"548 410 LINE",
"549 404 OFFCURVE",
"551 396 OFFCURVE",
"551 387 CURVE SMOOTH",
"551 348 OFFCURVE",
"521 317 OFFCURVE",
"471 317 CURVE SMOOTH",
"396 317 OFFCURVE",
"340 359 OFFCURVE",
"277 427 CURVE SMOOTH",
"265 439 LINE SMOOTH",
"247 458 OFFCURVE",
"219 471 OFFCURVE",
"183 471 CURVE SMOOTH",
"140 471 OFFCURVE",
"105 451 OFFCURVE",
"75 417 CURVE SMOOTH",
"71 413 OFFCURVE",
"69 407 OFFCURVE",
"69 402 CURVE SMOOTH",
"69 389 OFFCURVE",
"81 379 OFFCURVE",
"92 379 CURVE SMOOTH",
"99 379 OFFCURVE",
"105 382 OFFCURVE",
"109 387 CURVE SMOOTH",
"129 409 OFFCURVE",
"154 425 OFFCURVE",
"183 425 CURVE SMOOTH",
"219 425 OFFCURVE",
"245 402 OFFCURVE",
"245 371 CURVE SMOOTH",
"245 337 OFFCURVE",
"223 310 OFFCURVE",
"175 271 CURVE SMOOTH",
"120 226 OFFCURVE",
"87 179 OFFCURVE",
"87 125 CURVE SMOOTH",
"87 59 OFFCURVE",
"133 0 OFFCURVE",
"222 0 CURVE SMOOTH",
"289 0 OFFCURVE",
"337 25 OFFCURVE",
"382 87 CURVE",
"425 30 OFFCURVE",
"474 0 OFFCURVE",
"545 0 CURVE SMOOTH",
"632 0 OFFCURVE",
"683 60 OFFCURVE"
);
}
);
width = 704;
}
);
userData = {
com.typemytype.robofont.layerData = {
background = {
anchors = (
);
components = (
);
contours = (
);
lib = {
};
name = knJA.base;
unicodes = (
);
width = 704;
};
};
};
},
{
glyphname = "jha-kannada";
lastChange = "2016-04-03 03:31:16 +0000";
layers = (
{
layerId = "EE99E773-27DB-4D1B-BC83-5C5BC0C316FA";
paths = (
{
closed = 1;
nodes = (
"146 223 CURVE SMOOTH",
"146 322 OFFCURVE",
"227 410 OFFCURVE",
"333 410 CURVE SMOOTH",
"441 410 OFFCURVE",
"516 320 OFFCURVE",
"516 223 CURVE SMOOTH",
"516 121 OFFCURVE",
"444 42 OFFCURVE",
"331 42 CURVE SMOOTH",
"220 42 OFFCURVE",
"146 119 OFFCURVE"
);
},
{
closed = 1;
nodes = (
"865 -93 LINE SMOOTH",
"865 -81 OFFCURVE",
"854 -70 OFFCURVE",
"842 -70 CURVE SMOOTH",
"830 -70 OFFCURVE",
"819 -81 OFFCURVE",
"819 -93 CURVE SMOOTH",
"819 -196 LINE SMOOTH",
"819 -208 OFFCURVE",
"830 -219 OFFCURVE",
"842 -219 CURVE SMOOTH",
"854 -219 OFFCURVE",
"865 -208 OFFCURVE",
"865 -196 CURVE SMOOTH"
);
},
{
closed = 1;
nodes = (
"820 169 CURVE SMOOTH",
"820 97 OFFCURVE",
"782 46 OFFCURVE",
"704 46 CURVE SMOOTH",
"652 46 OFFCURVE",
"600 77 OFFCURVE",
"549 144 CURVE",
"558 168 OFFCURVE",
"562 195 OFFCURVE",
"562 223 CURVE SMOOTH",
"562 297 OFFCURVE",
"527 367 OFFCURVE",
"469 410 CURVE",
"542 414 OFFCURVE",
"586 444 OFFCURVE",
"620 499 CURVE SMOOTH",
"622 503 OFFCURVE",
"623 507 OFFCURVE",
"623 511 CURVE SMOOTH",
"623 524 OFFCURVE",
"614 534 OFFCURVE",
"600 534 CURVE SMOOTH",
"592 534 OFFCURVE",
"585 530 OFFCURVE",
"580 523 CURVE SMOOTH",
"552 478 OFFCURVE",
"515 456 OFFCURVE",
"452 456 CURVE SMOOTH",
"94 456 LINE SMOOTH",
"82 456 OFFCURVE",
"71 445 OFFCURVE",
"71 433 CURVE SMOOTH",
"71 421 OFFCURVE",
"82 410 OFFCURVE",
"94 410 CURVE SMOOTH",
"195 410 LINE",
"137 367 OFFCURVE",
"100 297 OFFCURVE",
"100 223 CURVE SMOOTH",
"100 93 OFFCURVE",
"192 -4 OFFCURVE",
"331 -4 CURVE SMOOTH",
"420 -4 OFFCURVE",
"489 36 OFFCURVE",
"528 97 CURVE",
"585 28 OFFCURVE",
"645 0 OFFCURVE",
"704 0 CURVE SMOOTH",
"777 0 OFFCURVE",
"826 33 OFFCURVE",
"850 85 CURVE",
"905 22 OFFCURVE",
"957 0 OFFCURVE",
"1015 0 CURVE SMOOTH",
"1121 0 OFFCURVE",
"1177 69 OFFCURVE",
"1177 169 CURVE SMOOTH",
"1177 255 OFFCURVE",
"1129 357 OFFCURVE",
"1065 427 CURVE SMOOTH",
"1061 432 OFFCURVE",
"1055 435 OFFCURVE",
"1048 435 CURVE SMOOTH",
"1035 435 OFFCURVE",
"1025 425 OFFCURVE",
"1025 412 CURVE SMOOTH",
"1025 407 OFFCURVE",
"1027 401 OFFCURVE",
"1031 397 CURVE SMOOTH",
"1087 335 OFFCURVE",
"1131 245 OFFCURVE",
"1131 169 CURVE SMOOTH",
"1131 97 OFFCURVE",
"1093 46 OFFCURVE",
"1015 46 CURVE SMOOTH",
"961 46 OFFCURVE",
"916 72 OFFCURVE",
"864 139 CURVE",
"865 149 OFFCURVE",
"866 159 OFFCURVE",
"866 169 CURVE SMOOTH",
"866 258 OFFCURVE",
"814 363 OFFCURVE",
"754 427 CURVE SMOOTH",
"749 432 OFFCURVE",
"744 435 OFFCURVE",
"737 435 CURVE SMOOTH",
"725 435 OFFCURVE",
"714 425 OFFCURVE",
"714 412 CURVE SMOOTH",
"714 407 OFFCURVE",
"716 401 OFFCURVE",
"720 397 CURVE SMOOTH",
"775 337 OFFCURVE",
"820 245 OFFCURVE"
);
}
);
width = 1244;
}
);
unicode = 0C9D;
userData = {
com.typemytype.robofont.layerData = {
background = {
anchors = (
);
components = (
);
contours = (
);
lib = {
};
name = knJHA;
unicodes = (
);
width = 1244;
};
};
};
},
{
glyphname = "jha-kannada.base";
lastChange = "2016-04-03 03:35:40 +0000";
layers = (
{
layerId = "EE99E773-27DB-4D1B-BC83-5C5BC0C316FA";
paths = (
{
closed = 1;
nodes = (
"146 223 CURVE SMOOTH",
"146 322 OFFCURVE",
"227 410 OFFCURVE",
"333 410 CURVE SMOOTH",
"441 410 OFFCURVE",
"516 320 OFFCURVE",
"516 223 CURVE SMOOTH",
"516 121 OFFCURVE",
"444 42 OFFCURVE",
"331 42 CURVE SMOOTH",
"220 42 OFFCURVE",
"146 119 OFFCURVE"
);
},
{
closed = 1;
nodes = (
"704 0 CURVE SMOOTH",
"777 0 OFFCURVE",
"826 33 OFFCURVE",
"850 85 CURVE",
"905 22 OFFCURVE",
"957 0 OFFCURVE",
"1015 0 CURVE SMOOTH",
"1121 0 OFFCURVE",
"1177 69 OFFCURVE",
"1177 169 CURVE SMOOTH",
"1177 255 OFFCURVE",
"1129 357 OFFCURVE",
"1065 427 CURVE SMOOTH",
"1063 429 OFFCURVE",
"1060 432 OFFCURVE",
"1057 435 CURVE",
"1057 445 OFFCURVE",
"1046 456 OFFCURVE",
"1034 456 CURVE SMOOTH",
"964 456 LINE SMOOTH",
"952 456 OFFCURVE",
"941 445 OFFCURVE",
"941 433 CURVE SMOOTH",
"941 421 OFFCURVE",
"952 410 OFFCURVE",
"964 410 CURVE SMOOTH",
"1017 410 LINE",
"1023 404 OFFCURVE",
"1029 399 OFFCURVE",
"1031 397 CURVE",
"1087 335 OFFCURVE",
"1131 245 OFFCURVE",
"1131 169 CURVE SMOOTH",
"1131 97 OFFCURVE",
"1093 46 OFFCURVE",
"1015 46 CURVE SMOOTH",
"961 46 OFFCURVE",
"916 72 OFFCURVE",
"864 139 CURVE",
"865 149 OFFCURVE",
"866 159 OFFCURVE",
"866 169 CURVE SMOOTH",
"866 258 OFFCURVE",
"814 363 OFFCURVE",
"754 427 CURVE SMOOTH",
"749 432 OFFCURVE",
"744 435 OFFCURVE",
"737 435 CURVE SMOOTH",
"725 435 OFFCURVE",
"714 425 OFFCURVE",
"714 412 CURVE SMOOTH",
"714 407 OFFCURVE",
"716 401 OFFCURVE",
"720 397 CURVE SMOOTH",
"775 337 OFFCURVE",
"820 245 OFFCURVE",
"820 169 CURVE SMOOTH",
"820 97 OFFCURVE",
"782 46 OFFCURVE",
"704 46 CURVE SMOOTH",
"652 46 OFFCURVE",
"600 77 OFFCURVE",
"549 144 CURVE",
"558 168 OFFCURVE",
"562 195 OFFCURVE",
"562 223 CURVE SMOOTH",
"562 297 OFFCURVE",
"527 367 OFFCURVE",
"469 410 CURVE",
"542 414 OFFCURVE",
"586 444 OFFCURVE",
"620 499 CURVE SMOOTH",
"622 503 OFFCURVE",
"623 507 OFFCURVE",
"623 511 CURVE SMOOTH",
"623 523 OFFCURVE",
"613 534 OFFCURVE",
"600 534 CURVE SMOOTH",
"592 534 OFFCURVE",
"585 530 OFFCURVE",
"580 523 CURVE SMOOTH",
"552 478 OFFCURVE",
"515 456 OFFCURVE",
"452 456 CURVE SMOOTH",
"94 456 LINE SMOOTH",
"82 456 OFFCURVE",
"71 445 OFFCURVE",
"71 433 CURVE SMOOTH",
"71 421 OFFCURVE",
"82 410 OFFCURVE",
"94 410 CURVE SMOOTH",
"195 410 LINE",
"137 367 OFFCURVE",
"100 297 OFFCURVE",
"100 223 CURVE SMOOTH",
"100 93 OFFCURVE",
"192 -4 OFFCURVE",
"331 -4 CURVE SMOOTH",
"420 -4 OFFCURVE",
"489 36 OFFCURVE",
"528 97 CURVE",
"585 28 OFFCURVE",
"645 0 OFFCURVE"
);
},
{
closed = 1;
nodes = (
"865 -93 LINE SMOOTH",
"865 -81 OFFCURVE",
"854 -70 OFFCURVE",
"842 -70 CURVE SMOOTH",
"830 -70 OFFCURVE",
"819 -81 OFFCURVE",
"819 -93 CURVE SMOOTH",
"819 -196 LINE SMOOTH",
"819 -208 OFFCURVE",
"830 -219 OFFCURVE",
"842 -219 CURVE SMOOTH",
"854 -219 OFFCURVE",
"865 -208 OFFCURVE",
"865 -196 CURVE SMOOTH"
);
}
);
width = 1212;
}
);
userData = {
com.typemytype.robofont.layerData = {
background = {
anchors = (
);
components = (
);
contours = (
);
lib = {
};
name = knJHA.base;
unicodes = (
);
width = 1212;
};
};
};
},
{
glyphname = "jha-kannada.base.e";
lastChange = "2016-04-03 03:40:24 +0000";
layers = (
{
layerId = "EE99E773-27DB-4D1B-BC83-5C5BC0C316FA";
paths = (
{
closed = 1;
nodes = (
"146 223 CURVE SMOOTH",
"146 322 OFFCURVE",
"227 410 OFFCURVE",
"333 410 CURVE SMOOTH",
"441 410 OFFCURVE",
"516 320 OFFCURVE",
"516 223 CURVE SMOOTH",
"516 121 OFFCURVE",
"444 42 OFFCURVE",
"331 42 CURVE SMOOTH",
"220 42 OFFCURVE",
"146 119 OFFCURVE"
);
},
{
closed = 1;
nodes = (
"704 0 CURVE SMOOTH",
"777 0 OFFCURVE",
"826 33 OFFCURVE",
"850 85 CURVE",
"905 22 OFFCURVE",
"957 0 OFFCURVE",
"1015 0 CURVE SMOOTH",
"1121 0 OFFCURVE",
"1177 69 OFFCURVE",
"1177 169 CURVE SMOOTH",
"1177 255 OFFCURVE",
"1129 357 OFFCURVE",
"1065 427 CURVE SMOOTH",
"1063 429 OFFCURVE",
"1060 432 OFFCURVE",
"1057 435 CURVE",
"1057 445 OFFCURVE",
"1046 456 OFFCURVE",
"1034 456 CURVE SMOOTH",
"964 456 LINE SMOOTH",
"952 456 OFFCURVE",
"941 445 OFFCURVE",
"941 433 CURVE SMOOTH",
"941 421 OFFCURVE",
"952 410 OFFCURVE",
"964 410 CURVE SMOOTH",
"1017 410 LINE",
"1023 404 OFFCURVE",
"1029 399 OFFCURVE",
"1031 397 CURVE",
"1087 335 OFFCURVE",
"1131 245 OFFCURVE",
"1131 169 CURVE SMOOTH",
"1131 97 OFFCURVE",
"1093 46 OFFCURVE",
"1015 46 CURVE SMOOTH",
"961 46 OFFCURVE",
"916 72 OFFCURVE",
"864 139 CURVE",
"865 149 OFFCURVE",
"866 159 OFFCURVE",
"866 169 CURVE SMOOTH",
"866 258 OFFCURVE",
"814 363 OFFCURVE",
"754 427 CURVE SMOOTH",
"749 432 OFFCURVE",
"744 435 OFFCURVE",
"737 435 CURVE SMOOTH",
"725 435 OFFCURVE",
"714 425 OFFCURVE",
"714 412 CURVE SMOOTH",
"714 407 OFFCURVE",
"716 401 OFFCURVE",
"720 397 CURVE SMOOTH",
"775 337 OFFCURVE",
"820 245 OFFCURVE",
"820 169 CURVE SMOOTH",
"820 97 OFFCURVE",
"782 46 OFFCURVE",
"704 46 CURVE SMOOTH",
"652 46 OFFCURVE",
"600 77 OFFCURVE",
"549 144 CURVE",
"558 168 OFFCURVE",
"562 195 OFFCURVE",
"562 223 CURVE SMOOTH",
"562 297 OFFCURVE",
"527 367 OFFCURVE",
"469 410 CURVE",
"542 414 OFFCURVE",
"586 444 OFFCURVE",
"620 499 CURVE SMOOTH",
"622 503 OFFCURVE",
"623 507 OFFCURVE",
"623 511 CURVE SMOOTH",
"623 523 OFFCURVE",
"613 534 OFFCURVE",
"600 534 CURVE SMOOTH",
"592 534 OFFCURVE",
"585 530 OFFCURVE",
"580 523 CURVE SMOOTH",
"552 478 OFFCURVE",
"515 456 OFFCURVE",
"452 456 CURVE SMOOTH",
"94 456 LINE SMOOTH",
"82 456 OFFCURVE",
"71 445 OFFCURVE",
"71 433 CURVE SMOOTH",
"71 421 OFFCURVE",
"82 410 OFFCURVE",
"94 410 CURVE SMOOTH",
"195 410 LINE",
"137 367 OFFCURVE",
"100 297 OFFCURVE",
"100 223 CURVE SMOOTH",
"100 93 OFFCURVE",
"192 -4 OFFCURVE",
"331 -4 CURVE SMOOTH",
"420 -4 OFFCURVE",
"489 36 OFFCURVE",
"528 97 CURVE",
"585 28 OFFCURVE",
"645 0 OFFCURVE"
);
},
{
closed = 1;
nodes = (
"865 -93 LINE SMOOTH",
"865 -81 OFFCURVE",
"854 -70 OFFCURVE",
"842 -70 CURVE SMOOTH",
"830 -70 OFFCURVE",
"819 -81 OFFCURVE",
"819 -93 CURVE SMOOTH",
"819 -196 LINE SMOOTH",
"819 -208 OFFCURVE",
"830 -219 OFFCURVE",
"842 -219 CURVE SMOOTH",
"854 -219 OFFCURVE",
"865 -208 OFFCURVE",
"865 -196 CURVE SMOOTH"
);
}
);
width = 1212;
}
);
userData = {
com.typemytype.robofont.layerData = {
background = {
anchors = (
);
components = (
);
contours = (
);
lib = {
};
name = knJHA.base;
unicodes = (
);
width = 1212;
};
};
};
},
{
glyphname = "nya-kannada";
lastChange = "2016-04-03 03:31:16 +0000";
layers = (
{
layerId = "EE99E773-27DB-4D1B-BC83-5C5BC0C316FA";
paths = (
{
closed = 1;
nodes = (
"571 -46 CURVE SMOOTH",
"585 -46 OFFCURVE",
"594 -34 OFFCURVE",
"594 -23 CURVE SMOOTH",
"594 -19 OFFCURVE",
"590 -6 OFFCURVE",
"583 12 CURVE SMOOTH",
"570 45 OFFCURVE",
"555 74 OFFCURVE",
"537 100 CURVE",
"605 162 OFFCURVE",
"647 246 OFFCURVE",
"647 312 CURVE SMOOTH",
"647 318 OFFCURVE",
"647 325 OFFCURVE",
"646 330 CURVE",
"671 372 OFFCURVE",
"705 410 OFFCURVE",
"752 410 CURVE SMOOTH",
"801 410 OFFCURVE",
"819 374 OFFCURVE",
"819 346 CURVE SMOOTH",
"819 316 OFFCURVE",
"808 289 OFFCURVE",
"795 263 CURVE SMOOTH",
"793 258 OFFCURVE",
"792 254 OFFCURVE",
"792 251 CURVE SMOOTH",
"792 239 OFFCURVE",
"804 228 OFFCURVE",
"815 228 CURVE SMOOTH",
"824 228 OFFCURVE",
"832 233 OFFCURVE",
"836 241 CURVE SMOOTH",
"852 275 OFFCURVE",
"865 310 OFFCURVE",
"865 346 CURVE SMOOTH",
"865 394 OFFCURVE",
"835 456 OFFCURVE",
"752 456 CURVE SMOOTH",
"703 456 OFFCURVE",
"663 429 OFFCURVE",
"631 390 CURVE",
"608 436 OFFCURVE",
"563 462 OFFCURVE",
"508 462 CURVE SMOOTH",
"442 462 OFFCURVE",
"397 426 OFFCURVE",
"358 366 CURVE",
"318 425 OFFCURVE",
"268 463 OFFCURVE",
"199 463 CURVE SMOOTH",
"116 463 OFFCURVE",
"65 402 OFFCURVE",
"65 328 CURVE SMOOTH",
"65 300 OFFCURVE",
"73 272 OFFCURVE",
"91 242 CURVE SMOOTH",
"96 235 OFFCURVE",
"103 231 OFFCURVE",
"111 231 CURVE SMOOTH",
"125 231 OFFCURVE",
"134 242 OFFCURVE",
"134 254 CURVE SMOOTH",
"134 258 OFFCURVE",
"133 262 OFFCURVE",
"131 266 CURVE SMOOTH",
"117 288 OFFCURVE",
"111 308 OFFCURVE",
"111 328 CURVE SMOOTH",
"111 376 OFFCURVE",
"144 417 OFFCURVE",
"199 417 CURVE SMOOTH",
"263 417 OFFCURVE",
"304 373 OFFCURVE",
"335 315 CURVE SMOOTH",
"339 308 OFFCURVE",
"348 303 OFFCURVE",
"355 303 CURVE SMOOTH",
"360 303 LINE SMOOTH",
"367 303 OFFCURVE",
"376 308 OFFCURVE",
"380 315 CURVE SMOOTH",
"414 373 OFFCURVE",
"448 416 OFFCURVE",
"508 416 CURVE SMOOTH",
"565 416 OFFCURVE",
"601 375 OFFCURVE",
"601 312 CURVE SMOOTH",
"601 257 OFFCURVE",
"566 187 OFFCURVE",
"509 136 CURVE",
"460 192 OFFCURVE",
"398 225 OFFCURVE",
"335 225 CURVE SMOOTH",
"242 225 OFFCURVE",
"207 167 OFFCURVE",
"207 122 CURVE SMOOTH",
"207 76 OFFCURVE",
"242 20 OFFCURVE",
"336 20 CURVE SMOOTH",
"398 20 OFFCURVE",
"454 41 OFFCURVE",
"500 72 CURVE",
"519 43 OFFCURVE",
"536 9 OFFCURVE",
"549 -30 CURVE SMOOTH",
"552 -40 OFFCURVE",
"562 -46 OFFCURVE"
);
},
{
closed = 1;
nodes = (
"336 66 CURVE SMOOTH",
"284 66 OFFCURVE",
"253 92 OFFCURVE",
"253 122 CURVE SMOOTH",
"253 151 OFFCURVE",
"284 179 OFFCURVE",
"335 179 CURVE SMOOTH",
"385 179 OFFCURVE",
"433 154 OFFCURVE",
"473 108 CURVE",
"434 83 OFFCURVE",
"387 66 OFFCURVE"
);
}
);
width = 922;
}
);
unicode = 0C9E;
userData = {
com.typemytype.robofont.layerData = {
background = {
anchors = (
);
components = (
);
contours = (
);
lib = {
};
name = knNYA;
unicodes = (
);
width = 922;
};
};
};
},
{
glyphname = "nya-kannada.base";
lastChange = "2016-04-03 03:40:50 +0000";
layers = (
{
layerId = "EE99E773-27DB-4D1B-BC83-5C5BC0C316FA";
paths = (
{
closed = 1;
nodes = (
"571 -46 CURVE SMOOTH",
"585 -46 OFFCURVE",
"594 -34 OFFCURVE",
"594 -23 CURVE SMOOTH",
"594 -19 OFFCURVE",
"590 -6 OFFCURVE",
"583 12 CURVE SMOOTH",
"570 45 OFFCURVE",
"555 74 OFFCURVE",
"537 100 CURVE",
"605 162 OFFCURVE",
"647 246 OFFCURVE",
"647 312 CURVE SMOOTH",
"647 318 OFFCURVE",
"647 325 OFFCURVE",
"646 330 CURVE",
"671 372 OFFCURVE",
"705 410 OFFCURVE",
"752 410 CURVE SMOOTH",
"801 410 OFFCURVE",
"819 374 OFFCURVE",
"819 346 CURVE SMOOTH",
"819 316 OFFCURVE",
"808 289 OFFCURVE",
"795 263 CURVE SMOOTH",
"793 258 OFFCURVE",
"792 254 OFFCURVE",
"792 251 CURVE SMOOTH",
"792 239 OFFCURVE",
"804 228 OFFCURVE",
"815 228 CURVE SMOOTH",
"824 228 OFFCURVE",
"832 233 OFFCURVE",
"836 241 CURVE SMOOTH",
"852 275 OFFCURVE",
"865 310 OFFCURVE",
"865 346 CURVE SMOOTH",
"865 367 OFFCURVE",
"859 390 OFFCURVE",
"846 410 CURVE",
"875 410 LINE SMOOTH",
"887 410 OFFCURVE",
"898 421 OFFCURVE",
"898 433 CURVE SMOOTH",
"898 445 OFFCURVE",
"887 456 OFFCURVE",
"875 456 CURVE SMOOTH",
"754 456 LINE SMOOTH",
"707 456 OFFCURVE",
"665 432 OFFCURVE",
"631 390 CURVE",
"608 436 OFFCURVE",
"563 462 OFFCURVE",
"508 462 CURVE SMOOTH",
"442 462 OFFCURVE",
"397 426 OFFCURVE",
"358 366 CURVE",
"318 425 OFFCURVE",
"268 463 OFFCURVE",
"199 463 CURVE SMOOTH",
"116 463 OFFCURVE",
"65 402 OFFCURVE",
"65 328 CURVE SMOOTH",
"65 300 OFFCURVE",
"73 272 OFFCURVE",
"91 242 CURVE SMOOTH",
"96 235 OFFCURVE",
"103 231 OFFCURVE",
"111 231 CURVE SMOOTH",
"125 231 OFFCURVE",
"134 242 OFFCURVE",
"134 254 CURVE SMOOTH",
"134 258 OFFCURVE",
"133 262 OFFCURVE",
"131 266 CURVE SMOOTH",
"117 288 OFFCURVE",
"111 308 OFFCURVE",
"111 328 CURVE SMOOTH",
"111 376 OFFCURVE",
"144 417 OFFCURVE",
"199 417 CURVE SMOOTH",
"263 417 OFFCURVE",
"303 373 OFFCURVE",
"335 315 CURVE",
"338 308 OFFCURVE",
"348 303 OFFCURVE",
"355 303 CURVE SMOOTH",
"360 303 LINE SMOOTH",
"367 303 OFFCURVE",
"376 308 OFFCURVE",
"380 315 CURVE SMOOTH",
"414 373 OFFCURVE",
"448 416 OFFCURVE",
"508 416 CURVE SMOOTH",
"565 416 OFFCURVE",
"601 375 OFFCURVE",
"601 312 CURVE SMOOTH",
"601 257 OFFCURVE",
"566 187 OFFCURVE",
"509 136 CURVE",
"460 192 OFFCURVE",
"398 225 OFFCURVE",
"335 225 CURVE SMOOTH",
"242 225 OFFCURVE",
"207 167 OFFCURVE",
"207 122 CURVE SMOOTH",
"207 76 OFFCURVE",
"242 20 OFFCURVE",
"336 20 CURVE SMOOTH",
"398 20 OFFCURVE",
"454 41 OFFCURVE",
"500 72 CURVE",
"519 43 OFFCURVE",
"536 9 OFFCURVE",
"549 -30 CURVE SMOOTH",
"552 -40 OFFCURVE",
"562 -46 OFFCURVE"
);
},
{
closed = 1;
nodes = (
"336 66 CURVE SMOOTH",
"284 66 OFFCURVE",
"253 92 OFFCURVE",
"253 122 CURVE SMOOTH",
"253 151 OFFCURVE",
"284 179 OFFCURVE",
"335 179 CURVE SMOOTH",
"385 179 OFFCURVE",
"433 154 OFFCURVE",
"473 108 CURVE",
"434 83 OFFCURVE",
"387 66 OFFCURVE"
);
}
);
width = 901;
}
);
userData = {
com.typemytype.robofont.layerData = {
background = {
anchors = (
);
components = (
);
contours = (
);
lib = {
};
name = knNYA.base;
unicodes = (
);
width = 901;
};
};
};
},
{
glyphname = "tta-kannada";
lastChange = "2016-04-03 03:31:16 +0000";
layers = (
{
layerId = "EE99E773-27DB-4D1B-BC83-5C5BC0C316FA";
paths = (
{
closed = 1;
nodes = (
"225 200 CURVE SMOOTH",
"194 200 OFFCURVE",
"161 215 OFFCURVE",
"140 247 CURVE",
"156 284 OFFCURVE",
"185 312 OFFCURVE",
"223 312 CURVE SMOOTH",
"258 312 OFFCURVE",
"287 290 OFFCURVE",
"287 256 CURVE SMOOTH",
"287 222 OFFCURVE",
"263 200 OFFCURVE"
);
},
{
closed = 1;
nodes = (
"692 137 CURVE SMOOTH",
"692 182 OFFCURVE",
"679 215 OFFCURVE",
"646 248 CURVE SMOOTH",
"636 259 OFFCURVE",
"621 269 OFFCURVE",
"603 278 CURVE",
"651 303 OFFCURVE",
"663 343 OFFCURVE",
"663 382 CURVE SMOOTH",
"663 432 OFFCURVE",
"629 475 OFFCURVE",
"567 505 CURVE SMOOTH",
"560 508 OFFCURVE",
"557 509 OFFCURVE",
"554 509 CURVE SMOOTH",
"540 509 OFFCURVE",
"530 498 OFFCURVE",
"530 487 CURVE SMOOTH",
"530 478 OFFCURVE",
"535 469 OFFCURVE",
"543 465 CURVE SMOOTH",
"587 444 OFFCURVE",
"617 418 OFFCURVE",
"617 382 CURVE SMOOTH",
"617 345 OFFCURVE",
"594 313 OFFCURVE",
"528 303 CURVE",
"527 303 OFFCURVE",
"526 302 OFFCURVE",
"524 302 CURVE SMOOTH",
"522 302 LINE SMOOTH",
"510 302 OFFCURVE",
"499 291 OFFCURVE",
"499 279 CURVE SMOOTH",
"499 267 OFFCURVE",
"510 256 OFFCURVE",
"522 256 CURVE SMOOTH",
"552 256 OFFCURVE",
"594 235 OFFCURVE",
"614 216 CURVE SMOOTH",
"637 193 OFFCURVE",
"646 168 OFFCURVE",
"646 137 CURVE SMOOTH",
"646 82 OFFCURVE",
"611 46 OFFCURVE",
"553 46 CURVE SMOOTH",
"489 46 OFFCURVE",
"446 81 OFFCURVE",
"413 136 CURVE SMOOTH",
"409 142 OFFCURVE",
"400 147 OFFCURVE",
"393 147 CURVE SMOOTH",
"388 147 LINE SMOOTH",
"380 147 OFFCURVE",
"371 141 OFFCURVE",
"367 134 CURVE SMOOTH",
"340 80 OFFCURVE",
"300 46 OFFCURVE",
"238 46 CURVE SMOOTH",
"171 46 OFFCURVE",
"125 98 OFFCURVE",
"125 174 CURVE SMOOTH",
"125 180 OFFCURVE",
"125 187 OFFCURVE",
"126 193 CURVE",
"155 166 OFFCURVE",
"190 154 OFFCURVE",
"225 154 CURVE SMOOTH",
"293 154 OFFCURVE",
"333 196 OFFCURVE",
"333 256 CURVE SMOOTH",
"333 314 OFFCURVE",
"288 358 OFFCURVE",
"223 358 CURVE SMOOTH",
"221 358 OFFCURVE",
"219 358 OFFCURVE",
"217 358 CURVE",
"180 369 OFFCURVE",
"171 392 OFFCURVE",
"171 413 CURVE SMOOTH",
"171 437 OFFCURVE",
"194 458 OFFCURVE",
"231 466 CURVE SMOOTH",
"242 468 OFFCURVE",
"249 479 OFFCURVE",
"249 490 CURVE SMOOTH",
"249 502 OFFCURVE",
"240 511 OFFCURVE",
"228 511 CURVE SMOOTH",
"176 511 OFFCURVE",
"125 463 OFFCURVE",
"125 415 CURVE SMOOTH",
"125 390 OFFCURVE",
"131 359 OFFCURVE",
"157 337 CURVE",
"111 306 OFFCURVE",
"79 244 OFFCURVE",
"79 174 CURVE SMOOTH",
"79 68 OFFCURVE",
"147 0 OFFCURVE",
"238 0 CURVE SMOOTH",
"306 0 OFFCURVE",
"356 31 OFFCURVE",
"392 84 CURVE",
"432 30 OFFCURVE",
"482 0 OFFCURVE",
"553 0 CURVE SMOOTH",
"641 0 OFFCURVE",
"692 54 OFFCURVE"
);
}
);
width = 763;
}
);
unicode = 0C9F;
userData = {
com.typemytype.robofont.layerData = {
background = {
anchors = (
);
components = (
);
contours = (
);
lib = {
};
name = knTTA;
unicodes = (
);
width = 763;
};
};
};
},
{
glyphname = "tta-kannada.base";
lastChange = "2016-04-03 03:40:50 +0000";
layers = (
{
layerId = "EE99E773-27DB-4D1B-BC83-5C5BC0C316FA";
paths = (
{
closed = 1;
nodes = (
"225 200 CURVE SMOOTH",
"194 200 OFFCURVE",
"161 215 OFFCURVE",
"140 247 CURVE",
"156 284 OFFCURVE",
"185 312 OFFCURVE",
"223 312 CURVE SMOOTH",
"258 312 OFFCURVE",
"287 290 OFFCURVE",
"287 256 CURVE SMOOTH",
"287 222 OFFCURVE",
"263 200 OFFCURVE"
);
},
{
closed = 1;
nodes = (
"692 137 CURVE SMOOTH",
"692 182 OFFCURVE",
"679 215 OFFCURVE",
"646 248 CURVE SMOOTH",
"636 259 OFFCURVE",
"620 269 OFFCURVE",
"603 278 CURVE",
"650 304 OFFCURVE",
"662 344 OFFCURVE",
"662 382 CURVE SMOOTH",
"662 404 OFFCURVE",
"652 426 OFFCURVE",
"643 442 CURVE SMOOTH",
"639 450 OFFCURVE",
"630 456 OFFCURVE",
"616 456 CURVE SMOOTH",
"481 456 LINE SMOOTH",
"469 456 OFFCURVE",
"458 445 OFFCURVE",
"458 433 CURVE SMOOTH",
"458 421 OFFCURVE",
"469 410 OFFCURVE",
"481 410 CURVE SMOOTH",
"608 410 LINE",
"612 402 OFFCURVE",
"616 392 OFFCURVE",
"616 382 CURVE SMOOTH",
"616 345 OFFCURVE",
"593 313 OFFCURVE",
"527 303 CURVE SMOOTH",
"511 301 OFFCURVE",
"499 294 OFFCURVE",
"499 279 CURVE SMOOTH",
"499 267 OFFCURVE",
"510 256 OFFCURVE",
"522 256 CURVE SMOOTH",
"552 256 OFFCURVE",
"594 235 OFFCURVE",
"614 216 CURVE SMOOTH",
"637 193 OFFCURVE",
"646 168 OFFCURVE",
"646 137 CURVE SMOOTH",
"646 82 OFFCURVE",
"611 46 OFFCURVE",
"553 46 CURVE SMOOTH",
"489 46 OFFCURVE",
"446 81 OFFCURVE",
"413 136 CURVE SMOOTH",
"409 142 OFFCURVE",
"400 147 OFFCURVE",
"393 147 CURVE SMOOTH",
"388 147 LINE SMOOTH",
"380 147 OFFCURVE",
"371 141 OFFCURVE",
"367 134 CURVE SMOOTH",
"340 80 OFFCURVE",
"300 46 OFFCURVE",
"238 46 CURVE SMOOTH",
"171 46 OFFCURVE",
"125 98 OFFCURVE",
"125 174 CURVE SMOOTH",
"125 180 OFFCURVE",
"125 187 OFFCURVE",
"126 193 CURVE",
"155 166 OFFCURVE",
"190 154 OFFCURVE",
"225 154 CURVE SMOOTH",
"293 154 OFFCURVE",
"333 196 OFFCURVE",
"333 256 CURVE SMOOTH",
"333 314 OFFCURVE",
"288 358 OFFCURVE",
"223 358 CURVE SMOOTH",
"221 358 OFFCURVE",
"219 358 OFFCURVE",
"217 358 CURVE",
"180 369 OFFCURVE",
"171 392 OFFCURVE",
"171 413 CURVE SMOOTH",
"171 437 OFFCURVE",
"194 458 OFFCURVE",
"231 466 CURVE SMOOTH",
"242 468 OFFCURVE",
"249 479 OFFCURVE",
"249 490 CURVE SMOOTH",
"249 502 OFFCURVE",
"240 511 OFFCURVE",
"228 511 CURVE SMOOTH",
"176 511 OFFCURVE",
"125 463 OFFCURVE",
"125 415 CURVE SMOOTH",
"125 390 OFFCURVE",
"131 359 OFFCURVE",
"157 337 CURVE",
"111 306 OFFCURVE",
"79 244 OFFCURVE",
"79 174 CURVE SMOOTH",
"79 68 OFFCURVE",
"147 0 OFFCURVE",
"238 0 CURVE SMOOTH",
"306 0 OFFCURVE",
"356 31 OFFCURVE",
"392 84 CURVE",
"432 30 OFFCURVE",
"482 0 OFFCURVE",
"553 0 CURVE SMOOTH",
"641 0 OFFCURVE",
"692 54 OFFCURVE"
);
}
);
width = 733;
}
);
userData = {
com.typemytype.robofont.layerData = {
background = {
anchors = (
);
components = (
);
contours = (
);
lib = {
};
name = knTTA.base;
unicodes = (
);
width = 733;
};
};
};
},
{
glyphname = "ttha-kannada";
lastChange = "2016-04-03 03:31:16 +0000";
layers = (
{
layerId = "EE99E773-27DB-4D1B-BC83-5C5BC0C316FA";
paths = (
{
closed = 1;
nodes = (
"347 -10 CURVE SMOOTH",
"501 -10 OFFCURVE",
"593 94 OFFCURVE",
"593 220 CURVE SMOOTH",
"593 292 OFFCURVE",
"556 365 OFFCURVE",
"493 411 CURVE",
"564 415 OFFCURVE",
"606 445 OFFCURVE",
"640 499 CURVE SMOOTH",
"642 503 OFFCURVE",
"643 507 OFFCURVE",
"643 511 CURVE SMOOTH",
"643 524 OFFCURVE",
"634 534 OFFCURVE",
"620 534 CURVE SMOOTH",
"612 534 OFFCURVE",
"605 530 OFFCURVE",
"600 523 CURVE SMOOTH",
"572 478 OFFCURVE",
"536 456 OFFCURVE",
"473 456 CURVE SMOOTH",
"103 456 LINE SMOOTH",
"91 456 OFFCURVE",
"80 445 OFFCURVE",
"80 433 CURVE SMOOTH",
"80 421 OFFCURVE",
"91 410 OFFCURVE",
"103 410 CURVE SMOOTH",
"202 410 LINE",
"138 365 OFFCURVE",
"100 293 OFFCURVE",
"100 220 CURVE SMOOTH",
"100 92 OFFCURVE",
"195 -10 OFFCURVE"
);
},
{
closed = 1;
nodes = (
"146 220 CURVE SMOOTH",
"146 317 OFFCURVE",
"230 410 OFFCURVE",
"348 410 CURVE SMOOTH",
"468 410 OFFCURVE",
"547 315 OFFCURVE",
"547 220 CURVE SMOOTH",
"547 118 OFFCURVE",
"471 36 OFFCURVE",
"347 36 CURVE SMOOTH",
"225 36 OFFCURVE",
"146 116 OFFCURVE"
);
},
{
closed = 1;
nodes = (
"345 279 CURVE SMOOTH",
"317 279 OFFCURVE",
"294 251 OFFCURVE",
"294 229 CURVE SMOOTH",
"294 200 OFFCURVE",
"318 177 OFFCURVE",
"345 177 CURVE SMOOTH",
"376 177 OFFCURVE",
"397 201 OFFCURVE",
"397 228 CURVE SMOOTH",
"397 251 OFFCURVE",
"376 279 OFFCURVE"
);
}
);
width = 684;
}
);
unicode = 0CA0;
userData = {
com.typemytype.robofont.layerData = {
background = {
anchors = (
);
components = (
);
contours = (
);
lib = {
};
name = knTTHA;
unicodes = (
);
width = 684;
};
};
};
},
{
glyphname = "ttha-kannada.base";
lastChange = "2016-04-03 03:40:50 +0000";
layers = (
{
layerId = "EE99E773-27DB-4D1B-BC83-5C5BC0C316FA";
paths = (
{
closed = 1;
nodes = (
"348 -10 CURVE SMOOTH",
"502 -10 OFFCURVE",
"594 94 OFFCURVE",
"594 220 CURVE SMOOTH",
"594 295 OFFCURVE",
"554 370 OFFCURVE",
"487 415 CURVE",
"492 419 OFFCURVE",
"496 426 OFFCURVE",
"496 433 CURVE SMOOTH",
"496 445 OFFCURVE",
"485 456 OFFCURVE",
"473 456 CURVE SMOOTH",
"103 456 LINE SMOOTH",
"91 456 OFFCURVE",
"80 445 OFFCURVE",
"80 433 CURVE SMOOTH",
"80 421 OFFCURVE",
"91 410 OFFCURVE",
"103 410 CURVE SMOOTH",
"202 410 LINE",
"139 365 OFFCURVE",
"101 293 OFFCURVE",
"101 220 CURVE SMOOTH",
"101 92 OFFCURVE",
"196 -10 OFFCURVE"
);
},
{
closed = 1;
nodes = (
"147 220 CURVE SMOOTH",
"147 317 OFFCURVE",
"230 410 OFFCURVE",
"348 410 CURVE SMOOTH",
"468 410 OFFCURVE",
"548 315 OFFCURVE",
"548 220 CURVE SMOOTH",
"548 118 OFFCURVE",
"472 36 OFFCURVE",
"348 36 CURVE SMOOTH",
"226 36 OFFCURVE",
"147 116 OFFCURVE"
);
},
{
closed = 1;
nodes = (
"346 279 CURVE SMOOTH",
"318 279 OFFCURVE",
"295 251 OFFCURVE",
"295 229 CURVE SMOOTH",
"295 200 OFFCURVE",
"319 177 OFFCURVE",
"346 177 CURVE SMOOTH",
"377 177 OFFCURVE",
"398 201 OFFCURVE",
"398 228 CURVE SMOOTH",
"398 251 OFFCURVE",
"377 279 OFFCURVE"
);
}
);
width = 670;
}
);
userData = {
com.typemytype.robofont.layerData = {
background = {
anchors = (
);
components = (
);
contours = (
);
lib = {
};
name = knTTHA.base;
unicodes = (
);
width = 670;
};
};
};
},
{
glyphname = "dda-kannada";
lastChange = "2016-04-03 03:31:16 +0000";
layers = (
{
layerId = "EE99E773-27DB-4D1B-BC83-5C5BC0C316FA";
paths = (
{
closed = 1;
nodes = (
"533 0 CURVE SMOOTH",
"638 0 OFFCURVE",
"701 67 OFFCURVE",
"701 168 CURVE SMOOTH",
"701 231 OFFCURVE",
"664 325 OFFCURVE",
"552 411 CURVE",
"621 416 OFFCURVE",
"663 446 OFFCURVE",
"696 499 CURVE SMOOTH",
"698 503 OFFCURVE",
"699 507 OFFCURVE",
"699 511 CURVE SMOOTH",
"699 524 OFFCURVE",
"690 534 OFFCURVE",
"676 534 CURVE SMOOTH",
"668 534 OFFCURVE",
"661 530 OFFCURVE",
"656 523 CURVE SMOOTH",
"628 478 OFFCURVE",
"591 456 OFFCURVE",
"528 456 CURVE SMOOTH",
"108 456 LINE SMOOTH",
"96 456 OFFCURVE",
"85 445 OFFCURVE",
"85 433 CURVE SMOOTH",
"85 421 OFFCURVE",
"96 410 OFFCURVE",
"108 410 CURVE SMOOTH",
"215 410 LINE",
"129 345 OFFCURVE",
"83 251 OFFCURVE",
"83 164 CURVE SMOOTH",
"83 58 OFFCURVE",
"154 0 OFFCURVE",
"233 0 CURVE SMOOTH",
"297 0 OFFCURVE",
"340 26 OFFCURVE",
"377 84 CURVE",
"420 26 OFFCURVE",
"478 0 OFFCURVE"
);
},
{
closed = 1;
nodes = (
"533 46 CURVE SMOOTH",
"484 46 OFFCURVE",
"431 74 OFFCURVE",
"399 135 CURVE SMOOTH",
"395 142 OFFCURVE",
"387 147 OFFCURVE",
"379 147 CURVE SMOOTH",
"374 147 LINE SMOOTH",
"366 147 OFFCURVE",
"358 142 OFFCURVE",
"354 135 CURVE SMOOTH",
"324 77 OFFCURVE",
"289 46 OFFCURVE",
"233 46 CURVE SMOOTH",
"176 46 OFFCURVE",
"129 90 OFFCURVE",
"129 164 CURVE SMOOTH",
"129 257 OFFCURVE",
"192 358 OFFCURVE",
"304 410 CURVE",
"471 410 LINE",
"493 397 OFFCURVE",
"512 383 OFFCURVE",
"530 369 CURVE",
"468 353 OFFCURVE",
"441 305 OFFCURVE",
"441 258 CURVE SMOOTH",
"441 204 OFFCURVE",
"483 155 OFFCURVE",
"547 155 CURVE SMOOTH",
"589 155 OFFCURVE",
"625 173 OFFCURVE",
"651 203 CURVE",
"654 191 OFFCURVE",
"655 179 OFFCURVE",
"655 168 CURVE SMOOTH",
"655 95 OFFCURVE",
"610 46 OFFCURVE"
);
},
{
closed = 1;
nodes = (
"547 200 CURVE SMOOTH",
"511 200 OFFCURVE",
"485 227 OFFCURVE",
"485 258 CURVE SMOOTH",
"485 296 OFFCURVE",
"517 332 OFFCURVE",
"569 332 CURVE SMOOTH",
"573 332 LINE",
"597 309 OFFCURVE",
"620 276 OFFCURVE",
"632 252 CURVE",
"617 219 OFFCURVE",
"584 200 OFFCURVE"
);
}
);
width = 770;
}
);
unicode = 0CA1;
userData = {
com.typemytype.robofont.layerData = {
background = {
anchors = (
);
components = (
);
contours = (
);
lib = {
};
name = knDDA;
unicodes = (
);
width = 770;
};
};
};
},
{
glyphname = "dda-kannada.base";
lastChange = "2016-04-03 03:40:50 +0000";
layers = (
{
layerId = "EE99E773-27DB-4D1B-BC83-5C5BC0C316FA";
paths = (
{
closed = 1;
nodes = (
"533 0 CURVE SMOOTH",
"638 0 OFFCURVE",
"701 67 OFFCURVE",
"701 168 CURVE SMOOTH",
"701 232 OFFCURVE",
"662 329 OFFCURVE",
"544 417 CURVE",
"548 421 OFFCURVE",
"551 427 OFFCURVE",
"551 433 CURVE SMOOTH",
"551 445 OFFCURVE",
"540 456 OFFCURVE",
"528 456 CURVE SMOOTH",
"108 456 LINE SMOOTH",
"96 456 OFFCURVE",
"85 445 OFFCURVE",
"85 433 CURVE SMOOTH",
"85 421 OFFCURVE",
"96 410 OFFCURVE",
"108 410 CURVE SMOOTH",
"215 410 LINE",
"129 345 OFFCURVE",
"83 251 OFFCURVE",
"83 164 CURVE SMOOTH",
"83 58 OFFCURVE",
"154 0 OFFCURVE",
"233 0 CURVE SMOOTH",
"297 0 OFFCURVE",
"340 26 OFFCURVE",
"377 84 CURVE",
"420 26 OFFCURVE",
"478 0 OFFCURVE"
);
},
{
closed = 1;
nodes = (
"655 168 CURVE SMOOTH",
"655 95 OFFCURVE",
"610 46 OFFCURVE",
"533 46 CURVE SMOOTH",
"484 46 OFFCURVE",
"431 74 OFFCURVE",
"399 135 CURVE SMOOTH",
"395 142 OFFCURVE",
"387 147 OFFCURVE",
"379 147 CURVE SMOOTH",
"374 147 LINE SMOOTH",
"366 147 OFFCURVE",
"358 142 OFFCURVE",
"354 135 CURVE SMOOTH",
"324 77 OFFCURVE",
"289 46 OFFCURVE",
"233 46 CURVE SMOOTH",
"176 46 OFFCURVE",
"129 90 OFFCURVE",
"129 164 CURVE SMOOTH",
"129 257 OFFCURVE",
"192 358 OFFCURVE",
"304 410 CURVE",
"471 410 LINE",
"493 397 OFFCURVE",
"512 383 OFFCURVE",
"530 369 CURVE",
"468 353 OFFCURVE",
"441 305 OFFCURVE",
"441 258 CURVE SMOOTH",
"441 204 OFFCURVE",
"483 155 OFFCURVE",
"547 155 CURVE SMOOTH",
"589 155 OFFCURVE",
"625 173 OFFCURVE",
"651 203 CURVE",
"654 191 OFFCURVE",
"655 179 OFFCURVE"
);
},
{
closed = 1;
nodes = (
"547 200 CURVE SMOOTH",
"511 200 OFFCURVE",
"485 227 OFFCURVE",
"485 258 CURVE SMOOTH",
"485 296 OFFCURVE",
"517 332 OFFCURVE",
"569 332 CURVE SMOOTH",
"573 332 LINE",
"597 309 OFFCURVE",
"620 276 OFFCURVE",
"632 252 CURVE",
"617 219 OFFCURVE",
"584 200 OFFCURVE"
);
}
);
width = 755;
}
);
userData = {
com.typemytype.robofont.layerData = {
background = {
anchors = (
);
components = (
);
contours = (
);
lib = {
};
name = knDDA.base;
unicodes = (
);
width = 755;
};
};
};
},
{
glyphname = "ddha-kannada";
lastChange = "2016-04-03 03:31:16 +0000";
layers = (
{
layerId = "EE99E773-27DB-4D1B-BC83-5C5BC0C316FA";
paths = (
{
closed = 1;
nodes = (
"533 0 CURVE SMOOTH",
"638 0 OFFCURVE",
"701 67 OFFCURVE",
"701 168 CURVE SMOOTH",
"701 231 OFFCURVE",
"664 325 OFFCURVE",
"552 411 CURVE",
"621 416 OFFCURVE",
"663 446 OFFCURVE",
"696 499 CURVE SMOOTH",
"698 503 OFFCURVE",
"699 507 OFFCURVE",
"699 511 CURVE SMOOTH",
"699 524 OFFCURVE",
"690 534 OFFCURVE",
"676 534 CURVE SMOOTH",
"668 534 OFFCURVE",
"661 530 OFFCURVE",
"656 523 CURVE SMOOTH",
"628 478 OFFCURVE",
"591 456 OFFCURVE",
"528 456 CURVE SMOOTH",
"108 456 LINE SMOOTH",
"96 456 OFFCURVE",
"85 445 OFFCURVE",
"85 433 CURVE SMOOTH",
"85 421 OFFCURVE",
"96 410 OFFCURVE",
"108 410 CURVE SMOOTH",
"215 410 LINE",
"129 345 OFFCURVE",
"83 251 OFFCURVE",
"83 164 CURVE SMOOTH",
"83 58 OFFCURVE",
"154 0 OFFCURVE",
"233 0 CURVE SMOOTH",
"297 0 OFFCURVE",
"340 26 OFFCURVE",
"377 84 CURVE",
"420 26 OFFCURVE",
"478 0 OFFCURVE"
);
},
{
closed = 1;
nodes = (
"399 -93 LINE SMOOTH",
"399 -81 OFFCURVE",
"388 -70 OFFCURVE",
"376 -70 CURVE SMOOTH",
"364 -70 OFFCURVE",
"353 -81 OFFCURVE",
"353 -93 CURVE SMOOTH",
"353 -196 LINE SMOOTH",
"353 -208 OFFCURVE",
"364 -219 OFFCURVE",
"376 -219 CURVE SMOOTH",
"388 -219 OFFCURVE",
"399 -208 OFFCURVE",
"399 -196 CURVE SMOOTH"
);
},
{
closed = 1;
nodes = (
"471 410 LINE",
"493 397 OFFCURVE",
"512 383 OFFCURVE",
"530 369 CURVE",
"468 353 OFFCURVE",
"441 305 OFFCURVE",
"441 258 CURVE SMOOTH",
"441 204 OFFCURVE",
"483 155 OFFCURVE",
"547 155 CURVE SMOOTH",
"589 155 OFFCURVE",
"625 173 OFFCURVE",
"651 203 CURVE",
"654 191 OFFCURVE",
"655 179 OFFCURVE",
"655 168 CURVE",
"655 95 OFFCURVE",
"610 46 OFFCURVE",
"533 46 CURVE SMOOTH",
"484 46 OFFCURVE",
"431 74 OFFCURVE",
"399 135 CURVE SMOOTH",
"395 142 OFFCURVE",
"387 147 OFFCURVE",
"379 147 CURVE SMOOTH",
"374 147 LINE SMOOTH",
"366 147 OFFCURVE",
"358 142 OFFCURVE",
"354 135 CURVE SMOOTH",
"324 77 OFFCURVE",
"289 46 OFFCURVE",
"233 46 CURVE SMOOTH",
"176 46 OFFCURVE",
"129 90 OFFCURVE",
"129 164 CURVE SMOOTH",
"129 257 OFFCURVE",
"192 358 OFFCURVE",
"304 410 CURVE"
);
},
{
closed = 1;
nodes = (
"547 200 CURVE SMOOTH",
"511 200 OFFCURVE",
"485 227 OFFCURVE",
"485 258 CURVE SMOOTH",
"485 296 OFFCURVE",
"517 332 OFFCURVE",
"569 332 CURVE SMOOTH",
"573 332 LINE",
"597 309 OFFCURVE",
"620 276 OFFCURVE",
"632 252 CURVE",
"617 219 OFFCURVE",
"584 200 OFFCURVE"
);
}
);
width = 770;
}
);
unicode = 0CA2;
userData = {
com.typemytype.robofont.layerData = {
background = {
anchors = (
);
components = (
);
contours = (
);
lib = {
};
name = knDDHA;
unicodes = (
);
width = 770;
};
};
};
},
{
glyphname = "ddha-kannada.base";
lastChange = "2016-04-03 03:40:50 +0000";
layers = (
{
layerId = "EE99E773-27DB-4D1B-BC83-5C5BC0C316FA";
paths = (
{
closed = 1;
nodes = (
"533 0 CURVE SMOOTH",
"638 0 OFFCURVE",
"701 67 OFFCURVE",
"701 168 CURVE SMOOTH",
"701 232 OFFCURVE",
"662 329 OFFCURVE",
"544 417 CURVE",
"548 421 OFFCURVE",
"551 427 OFFCURVE",
"551 433 CURVE SMOOTH",
"551 445 OFFCURVE",
"540 456 OFFCURVE",
"528 456 CURVE SMOOTH",
"108 456 LINE SMOOTH",
"96 456 OFFCURVE",
"85 445 OFFCURVE",
"85 433 CURVE SMOOTH",
"85 421 OFFCURVE",
"96 410 OFFCURVE",
"108 410 CURVE SMOOTH",
"215 410 LINE",
"129 345 OFFCURVE",
"83 251 OFFCURVE",
"83 164 CURVE SMOOTH",
"83 58 OFFCURVE",
"154 0 OFFCURVE",
"233 0 CURVE SMOOTH",
"297 0 OFFCURVE",
"340 26 OFFCURVE",
"377 84 CURVE",
"420 26 OFFCURVE",
"478 0 OFFCURVE"
);
},
{
closed = 1;
nodes = (
"399 -93 LINE SMOOTH",
"399 -81 OFFCURVE",
"388 -70 OFFCURVE",
"376 -70 CURVE SMOOTH",
"364 -70 OFFCURVE",
"353 -81 OFFCURVE",
"353 -93 CURVE SMOOTH",
"353 -196 LINE SMOOTH",
"353 -208 OFFCURVE",
"364 -219 OFFCURVE",
"376 -219 CURVE SMOOTH",
"388 -219 OFFCURVE",
"399 -208 OFFCURVE",
"399 -196 CURVE SMOOTH"
);
},
{
closed = 1;
nodes = (
"471 410 LINE",
"493 397 OFFCURVE",
"512 383 OFFCURVE",
"530 369 CURVE",
"468 353 OFFCURVE",
"441 305 OFFCURVE",
"441 258 CURVE SMOOTH",
"441 204 OFFCURVE",
"483 155 OFFCURVE",
"547 155 CURVE SMOOTH",
"589 155 OFFCURVE",
"625 173 OFFCURVE",
"651 203 CURVE",
"654 191 OFFCURVE",
"655 179 OFFCURVE",
"655 168 CURVE SMOOTH",
"655 95 OFFCURVE",
"610 46 OFFCURVE",
"533 46 CURVE SMOOTH",
"484 46 OFFCURVE",
"431 74 OFFCURVE",
"399 135 CURVE SMOOTH",
"395 142 OFFCURVE",
"387 147 OFFCURVE",
"379 147 CURVE SMOOTH",
"374 147 LINE SMOOTH",
"366 147 OFFCURVE",
"358 142 OFFCURVE",
"354 135 CURVE SMOOTH",
"324 77 OFFCURVE",
"289 46 OFFCURVE",
"233 46 CURVE SMOOTH",
"176 46 OFFCURVE",
"129 90 OFFCURVE",
"129 164 CURVE SMOOTH",
"129 257 OFFCURVE",
"192 358 OFFCURVE",
"304 410 CURVE"
);
},
{
closed = 1;
nodes = (
"547 200 CURVE SMOOTH",
"511 200 OFFCURVE",
"485 227 OFFCURVE",
"485 258 CURVE SMOOTH",
"485 296 OFFCURVE",
"517 332 OFFCURVE",
"569 332 CURVE SMOOTH",
"573 332 LINE",
"597 309 OFFCURVE",
"620 276 OFFCURVE",
"632 252 CURVE",
"617 219 OFFCURVE",
"584 200 OFFCURVE"
);
}
);
width = 755;
}
);
userData = {
com.typemytype.robofont.layerData = {
background = {
anchors = (
);
components = (
);
contours = (
);
lib = {
};
name = knDDHA.base;
unicodes = (
);
width = 755;
};
};
};
},
{
glyphname = "nna-kannada";
lastChange = "2016-04-03 03:31:16 +0000";
layers = (
{
layerId = "EE99E773-27DB-4D1B-BC83-5C5BC0C316FA";
paths = (
{
closed = 1;
nodes = (
"552 -5 CURVE SMOOTH",
"641 -5 OFFCURVE",
"708 40 OFFCURVE",
"708 226 CURVE SMOOTH",
"708 400 OFFCURVE",
"635 464 OFFCURVE",
"544 464 CURVE SMOOTH",
"482 464 OFFCURVE",
"430 430 OFFCURVE",
"391 372 CURVE",
"353 430 OFFCURVE",
"301 464 OFFCURVE",
"230 464 CURVE SMOOTH",
"140 464 OFFCURVE",
"91 402 OFFCURVE",
"91 336 CURVE SMOOTH",
"91 294 OFFCURVE",
"112 254 OFFCURVE",
"149 229 CURVE",
"108 208 OFFCURVE",
"79 170 OFFCURVE",
"79 124 CURVE SMOOTH",
"79 51 OFFCURVE",
"132 1 OFFCURVE",
"230 1 CURVE SMOOTH",
"262 1 OFFCURVE",
"287 5 OFFCURVE",
"306 11 CURVE SMOOTH",
"316 14 OFFCURVE",
"323 23 OFFCURVE",
"323 33 CURVE SMOOTH",
"323 45 OFFCURVE",
"313 56 OFFCURVE",
"300 56 CURVE SMOOTH",
"296 56 OFFCURVE",
"288 54 OFFCURVE",
"279 52 CURVE SMOOTH",
"266 49 OFFCURVE",
"246 47 OFFCURVE",
"230 47 CURVE SMOOTH",
"168 47 OFFCURVE",
"125 73 OFFCURVE",
"125 124 CURVE SMOOTH",
"125 174 OFFCURVE",
"178 202 OFFCURVE",
"227 202 CURVE SMOOTH",
"256 202 LINE SMOOTH",
"268 202 OFFCURVE",
"279 213 OFFCURVE",
"279 225 CURVE SMOOTH",
"279 237 OFFCURVE",
"268 248 OFFCURVE",
"256 248 CURVE SMOOTH",
"246 248 LINE SMOOTH",
"182 248 OFFCURVE",
"137 287 OFFCURVE",
"137 336 CURVE SMOOTH",
"137 380 OFFCURVE",
"172 418 OFFCURVE",
"230 418 CURVE SMOOTH",
"295 418 OFFCURVE",
"339 379 OFFCURVE",
"367 320 CURVE SMOOTH",
"371 313 OFFCURVE",
"380 307 OFFCURVE",
"388 307 CURVE SMOOTH",
"392 307 LINE SMOOTH",
"400 307 OFFCURVE",
"408 312 OFFCURVE",
"412 319 CURVE SMOOTH",
"443 378 OFFCURVE",
"488 418 OFFCURVE",
"544 418 CURVE SMOOTH",
"617 418 OFFCURVE",
"662 352 OFFCURVE",
"662 226 CURVE SMOOTH",
"662 211 OFFCURVE",
"662 198 OFFCURVE",
"661 185 CURVE",
"633 207 OFFCURVE",
"600 222 OFFCURVE",
"557 222 CURVE SMOOTH",
"478 222 OFFCURVE",
"435 165 OFFCURVE",
"435 107 CURVE SMOOTH",
"435 42 OFFCURVE",
"487 -5 OFFCURVE"
);
},
{
closed = 1;
nodes = (
"552 41 CURVE SMOOTH",
"513 41 OFFCURVE",
"481 68 OFFCURVE",
"481 107 CURVE SMOOTH",
"481 143 OFFCURVE",
"510 176 OFFCURVE",
"557 176 CURVE SMOOTH",
"600 176 OFFCURVE",
"628 156 OFFCURVE",
"652 130 CURVE",
"636 68 OFFCURVE",
"602 41 OFFCURVE"
);
}
);
width = 779;
}
);
unicode = 0CA3;
userData = {
com.typemytype.robofont.layerData = {
background = {
anchors = (
);
components = (
);
contours = (
);
lib = {
};
name = knNNA;
unicodes = (
);
width = 779;
};
};
};
},
{
glyphname = "nna-kannada.base";
lastChange = "2016-04-03 03:40:50 +0000";
layers = (
{
layerId = "EE99E773-27DB-4D1B-BC83-5C5BC0C316FA";
paths = (
{
closed = 1;
nodes = (
"111 456 LINE SMOOTH",
"99 456 OFFCURVE",
"88 445 OFFCURVE",
"88 433 CURVE SMOOTH",
"88 421 OFFCURVE",
"99 410 OFFCURVE",
"111 410 CURVE SMOOTH",
"558 410 LINE SMOOTH",
"570 410 OFFCURVE",
"581 421 OFFCURVE",
"581 433 CURVE SMOOTH",
"581 445 OFFCURVE",
"570 456 OFFCURVE",
"558 456 CURVE SMOOTH"
);
},
{
closed = 1;
nodes = (
"535 -5 CURVE SMOOTH",
"622 -5 OFFCURVE",
"685 46 OFFCURVE",
"685 171 CURVE SMOOTH",
"685 303 OFFCURVE",
"613 358 OFFCURVE",
"523 358 CURVE SMOOTH",
"463 358 OFFCURVE",
"414 326 OFFCURVE",
"377 279 CURVE",
"342 325 OFFCURVE",
"290 359 OFFCURVE",
"218 359 CURVE SMOOTH",
"125 359 OFFCURVE",
"91 307 OFFCURVE",
"91 257 CURVE SMOOTH",
"91 228 OFFCURVE",
"106 199 OFFCURVE",
"134 179 CURVE",
"99 161 OFFCURVE",
"79 132 OFFCURVE",
"79 97 CURVE SMOOTH",
"79 42 OFFCURVE",
"125 -1 OFFCURVE",
"226 -1 CURVE SMOOTH",
"247 -1 OFFCURVE",
"266 2 OFFCURVE",
"286 7 CURVE SMOOTH",
"296 9 OFFCURVE",
"304 19 OFFCURVE",
"304 29 CURVE SMOOTH",
"304 41 OFFCURVE",
"294 51 OFFCURVE",
"282 51 CURVE SMOOTH",
"274 51 OFFCURVE",
"246 45 OFFCURVE",
"226 45 CURVE SMOOTH",
"173 45 OFFCURVE",
"125 60 OFFCURVE",
"125 97 CURVE SMOOTH",
"125 134 OFFCURVE",
"171 150 OFFCURVE",
"214 150 CURVE SMOOTH",
"242 150 LINE SMOOTH",
"254 150 OFFCURVE",
"265 161 OFFCURVE",
"265 173 CURVE SMOOTH",
"265 185 OFFCURVE",
"254 196 OFFCURVE",
"242 196 CURVE SMOOTH",
"232 196 LINE SMOOTH",
"182 196 OFFCURVE",
"137 221 OFFCURVE",
"137 257 CURVE SMOOTH",
"137 289 OFFCURVE",
"167 313 OFFCURVE",
"218 313 CURVE SMOOTH",
"284 313 OFFCURVE",
"328 274 OFFCURVE",
"356 230 CURVE SMOOTH",
"360 224 OFFCURVE",
"368 219 OFFCURVE",
"375 219 CURVE SMOOTH",
"379 219 LINE SMOOTH",
"386 219 OFFCURVE",
"394 224 OFFCURVE",
"398 229 CURVE SMOOTH",
"429 275 OFFCURVE",
"469 312 OFFCURVE",
"523 312 CURVE SMOOTH",
"590 312 OFFCURVE",
"639 267 OFFCURVE",
"639 174 CURVE SMOOTH",
"639 170 OFFCURVE",
"639 165 OFFCURVE",
"639 161 CURVE",
"612 180 OFFCURVE",
"581 192 OFFCURVE",
"536 192 CURVE SMOOTH",
"453 192 OFFCURVE",
"420 141 OFFCURVE",
"420 92 CURVE SMOOTH",
"420 40 OFFCURVE",
"466 -5 OFFCURVE"
);
},
{
closed = 1;
nodes = (
"535 41 CURVE SMOOTH",
"498 41 OFFCURVE",
"466 60 OFFCURVE",
"466 92 CURVE SMOOTH",
"466 121 OFFCURVE",
"491 146 OFFCURVE",
"536 146 CURVE SMOOTH",
"579 146 OFFCURVE",
"607 131 OFFCURVE",
"630 110 CURVE",
"615 64 OFFCURVE",
"582 41 OFFCURVE"
);
}
);
width = 749;
}
);
userData = {
com.typemytype.robofont.layerData = {
background = {
anchors = (
);
components = (
);
contours = (
);
lib = {
};
name = knNNA.base;
unicodes = (
);
width = 749;
};
};
};
},
{
glyphname = "ta-kannada";
lastChange = "2016-04-03 03:31:16 +0000";
layers = (
{
layerId = "EE99E773-27DB-4D1B-BC83-5C5BC0C316FA";
paths = (
{
closed = 1;
nodes = (
"312 193 CURVE SMOOTH",
"264 193 OFFCURVE",
"233 212 OFFCURVE",
"233 241 CURVE SMOOTH",
"233 272 OFFCURVE",
"277 293 OFFCURVE",
"337 293 CURVE SMOOTH",
"371 293 OFFCURVE",
"402 289 OFFCURVE",
"428 282 CURVE",
"424 233 OFFCURVE",
"381 193 OFFCURVE"
);
},
{
closed = 1;
nodes = (
"342 -9 CURVE SMOOTH",
"506 -9 OFFCURVE",
"585 71 OFFCURVE",
"585 163 CURVE SMOOTH",
"585 224 OFFCURVE",
"551 284 OFFCURVE",
"473 316 CURVE",
"471 346 OFFCURVE",
"466 378 OFFCURVE",
"455 410 CURVE",
"528 414 OFFCURVE",
"572 444 OFFCURVE",
"606 499 CURVE SMOOTH",
"608 503 OFFCURVE",
"609 507 OFFCURVE",
"609 511 CURVE SMOOTH",
"609 524 OFFCURVE",
"600 534 OFFCURVE",
"586 534 CURVE SMOOTH",
"578 534 OFFCURVE",
"571 530 OFFCURVE",
"566 523 CURVE SMOOTH",
"538 478 OFFCURVE",
"501 456 OFFCURVE",
"438 456 CURVE SMOOTH",
"100 456 LINE SMOOTH",
"88 456 OFFCURVE",
"77 445 OFFCURVE",
"77 433 CURVE SMOOTH",
"77 421 OFFCURVE",
"88 410 OFFCURVE",
"100 410 CURVE SMOOTH",
"406 410 LINE",
"418 383 OFFCURVE",
"423 356 OFFCURVE",
"426 330 CURVE",
"400 336 OFFCURVE",
"370 339 OFFCURVE",
"337 339 CURVE SMOOTH",
"225 339 OFFCURVE",
"187 286 OFFCURVE",
"187 241 CURVE SMOOTH",
"187 196 OFFCURVE",
"218 147 OFFCURVE",
"313 147 CURVE SMOOTH",
"405 147 OFFCURVE",
"460 202 OFFCURVE",
"472 264 CURVE",
"515 241 OFFCURVE",
"539 205 OFFCURVE",
"539 163 CURVE SMOOTH",
"539 89 OFFCURVE",
"462 37 OFFCURVE",
"342 37 CURVE SMOOTH",
"256 37 OFFCURVE",
"183 55 OFFCURVE",
"136 78 CURVE SMOOTH",
"133 80 OFFCURVE",
"129 81 OFFCURVE",
"125 81 CURVE SMOOTH",
"113 81 OFFCURVE",
"103 70 OFFCURVE",
"103 57 CURVE SMOOTH",
"103 49 OFFCURVE",
"108 42 OFFCURVE",
"116 38 CURVE SMOOTH",
"167 12 OFFCURVE",
"248 -9 OFFCURVE"
);
}
);
width = 658;
}
);
unicode = 0CA4;
userData = {
com.typemytype.robofont.layerData = {
background = {
anchors = (
);
components = (
);
contours = (
);
lib = {
};
name = knTA;
unicodes = (
);
width = 658;
};
};
};
},
{
glyphname = "ta-kannada.base";
lastChange = "2016-04-03 03:40:50 +0000";
layers = (
{
layerId = "EE99E773-27DB-4D1B-BC83-5C5BC0C316FA";
paths = (
{
closed = 1;
nodes = (
"313 193 CURVE SMOOTH",
"267 193 OFFCURVE",
"233 211 OFFCURVE",
"233 241 CURVE SMOOTH",
"233 272 OFFCURVE",
"277 293 OFFCURVE",
"337 293 CURVE SMOOTH",
"371 293 OFFCURVE",
"402 289 OFFCURVE",
"428 282 CURVE",
"424 233 OFFCURVE",
"380 193 OFFCURVE"
);
},
{
closed = 1;
nodes = (
"342 -9 CURVE SMOOTH",
"506 -9 OFFCURVE",
"585 71 OFFCURVE",
"585 163 CURVE SMOOTH",
"585 224 OFFCURVE",
"551 284 OFFCURVE",
"473 316 CURVE",
"471 348 OFFCURVE",
"466 382 OFFCURVE",
"453 416 CURVE",
"458 421 OFFCURVE",
"461 427 OFFCURVE",
"461 433 CURVE SMOOTH",
"461 445 OFFCURVE",
"450 456 OFFCURVE",
"438 456 CURVE SMOOTH",
"100 456 LINE SMOOTH",
"88 456 OFFCURVE",
"77 445 OFFCURVE",
"77 433 CURVE SMOOTH",
"77 421 OFFCURVE",
"88 410 OFFCURVE",
"100 410 CURVE SMOOTH",
"406 410 LINE",
"418 383 OFFCURVE",
"423 356 OFFCURVE",
"426 330 CURVE",
"400 336 OFFCURVE",
"370 339 OFFCURVE",
"337 339 CURVE SMOOTH",
"225 339 OFFCURVE",
"187 286 OFFCURVE",
"187 241 CURVE SMOOTH",
"187 196 OFFCURVE",
"219 147 OFFCURVE",
"312 147 CURVE SMOOTH",
"406 147 OFFCURVE",
"460 201 OFFCURVE",
"472 264 CURVE",
"515 241 OFFCURVE",
"539 205 OFFCURVE",
"539 163 CURVE SMOOTH",
"539 89 OFFCURVE",
"462 37 OFFCURVE",
"342 37 CURVE SMOOTH",
"256 37 OFFCURVE",
"183 55 OFFCURVE",
"136 78 CURVE SMOOTH",
"133 80 OFFCURVE",
"129 81 OFFCURVE",
"125 81 CURVE SMOOTH",
"114 81 OFFCURVE",
"103 70 OFFCURVE",
"103 57 CURVE SMOOTH",
"103 49 OFFCURVE",
"108 42 OFFCURVE",
"116 38 CURVE SMOOTH",
"167 12 OFFCURVE",
"248 -9 OFFCURVE"
);
}
);
width = 643;
}
);
userData = {
com.typemytype.robofont.layerData = {
background = {
anchors = (
);
components = (
);
contours = (
);
lib = {
};
name = knTA.base;
unicodes = (
);
width = 643;
};
};
};
},
{
glyphname = "tha-kannada";
lastChange = "2016-04-03 03:31:16 +0000";
layers = (
{
layerId = "EE99E773-27DB-4D1B-BC83-5C5BC0C316FA";
paths = (
{
closed = 1;
nodes = (
"519 0 CURVE SMOOTH",
"602 0 OFFCURVE",
"668 59 OFFCURVE",
"668 168 CURVE SMOOTH",
"668 254 OFFCURVE",
"608 346 OFFCURVE",
"514 410 CURVE",
"597 410 OFFCURVE",
"645 440 OFFCURVE",
"682 499 CURVE SMOOTH",
"684 503 OFFCURVE",
"685 507 OFFCURVE",
"685 511 CURVE SMOOTH",
"685 524 OFFCURVE",
"676 534 OFFCURVE",
"662 534 CURVE SMOOTH",
"654 534 OFFCURVE",
"647 530 OFFCURVE",
"642 523 CURVE SMOOTH",
"614 478 OFFCURVE",
"577 456 OFFCURVE",
"514 456 CURVE SMOOTH",
"111 456 LINE SMOOTH",
"99 456 OFFCURVE",
"88 445 OFFCURVE",
"88 433 CURVE SMOOTH",
"88 421 OFFCURVE",
"99 410 OFFCURVE",
"111 410 CURVE SMOOTH",
"231 410 LINE",
"141 346 OFFCURVE",
"83 254 OFFCURVE",
"83 168 CURVE SMOOTH",
"83 59 OFFCURVE",
"146 0 OFFCURVE",
"231 0 CURVE SMOOTH",
"294 0 OFFCURVE",
"337 27 OFFCURVE",
"373 83 CURVE",
"410 25 OFFCURVE",
"452 0 OFFCURVE"
);
},
{
closed = 1;
nodes = (
"519 46 CURVE SMOOTH",
"459 46 OFFCURVE",
"427 75 OFFCURVE",
"395 135 CURVE SMOOTH",
"391 142 OFFCURVE",
"383 147 OFFCURVE",
"375 147 CURVE SMOOTH",
"370 147 LINE SMOOTH",
"362 147 OFFCURVE",
"353 141 OFFCURVE",
"350 135 CURVE SMOOTH",
"320 77 OFFCURVE",
"287 46 OFFCURVE",
"231 46 CURVE SMOOTH",
"170 46 OFFCURVE",
"129 93 OFFCURVE",
"129 168 CURVE SMOOTH",
"129 262 OFFCURVE",
"211 358 OFFCURVE",
"323 410 CURVE",
"421 410 LINE",
"536 358 OFFCURVE",
"622 261 OFFCURVE",
"622 168 CURVE SMOOTH",
"622 93 OFFCURVE",
"580 46 OFFCURVE"
);
},
{
closed = 1;
nodes = (
"373 319 CURVE SMOOTH",
"345 319 OFFCURVE",
"322 291 OFFCURVE",
"322 269 CURVE SMOOTH",
"322 240 OFFCURVE",
"346 217 OFFCURVE",
"373 217 CURVE SMOOTH",
"404 217 OFFCURVE",
"425 241 OFFCURVE",
"425 268 CURVE SMOOTH",
"425 291 OFFCURVE",
"404 319 OFFCURVE"
);
},
{
closed = 1;
nodes = (
"396 -93 LINE SMOOTH",
"396 -81 OFFCURVE",
"385 -70 OFFCURVE",
"373 -70 CURVE SMOOTH",
"361 -70 OFFCURVE",
"350 -81 OFFCURVE",
"350 -93 CURVE SMOOTH",
"350 -196 LINE SMOOTH",
"350 -208 OFFCURVE",
"361 -219 OFFCURVE",
"373 -219 CURVE SMOOTH",
"385 -219 OFFCURVE",
"396 -208 OFFCURVE",
"396 -196 CURVE SMOOTH"
);
}
);
width = 751;
}
);
unicode = 0CA5;
userData = {
com.typemytype.robofont.layerData = {
background = {
anchors = (
);
components = (
);
contours = (
);
lib = {
};
name = knTHA;
unicodes = (
);
width = 751;
};
};
};
},
{
glyphname = "tha-kannada.base";
lastChange = "2016-04-03 03:40:50 +0000";
layers = (
{
layerId = "EE99E773-27DB-4D1B-BC83-5C5BC0C316FA";
paths = (
{
closed = 1;
nodes = (
"519 0 CURVE SMOOTH",
"602 0 OFFCURVE",
"668 59 OFFCURVE",
"668 168 CURVE SMOOTH",
"668 254 OFFCURVE",
"608 346 OFFCURVE",
"514 410 CURVE",
"526 410 OFFCURVE",
"537 421 OFFCURVE",
"537 433 CURVE SMOOTH",
"537 445 OFFCURVE",
"526 456 OFFCURVE",
"514 456 CURVE SMOOTH",
"111 456 LINE SMOOTH",
"99 456 OFFCURVE",
"88 445 OFFCURVE",
"88 433 CURVE SMOOTH",
"88 421 OFFCURVE",
"99 410 OFFCURVE",
"111 410 CURVE SMOOTH",
"231 410 LINE",
"141 346 OFFCURVE",
"83 254 OFFCURVE",
"83 168 CURVE SMOOTH",
"83 59 OFFCURVE",
"146 0 OFFCURVE",
"231 0 CURVE SMOOTH",
"294 0 OFFCURVE",
"337 27 OFFCURVE",
"373 83 CURVE",
"410 25 OFFCURVE",
"452 0 OFFCURVE"
);
},
{
closed = 1;
nodes = (
"519 46 CURVE SMOOTH",
"459 46 OFFCURVE",
"427 75 OFFCURVE",
"395 135 CURVE SMOOTH",
"391 142 OFFCURVE",
"383 147 OFFCURVE",
"375 147 CURVE SMOOTH",
"370 147 LINE SMOOTH",
"362 147 OFFCURVE",
"353 141 OFFCURVE",
"350 135 CURVE SMOOTH",
"320 77 OFFCURVE",
"287 46 OFFCURVE",
"231 46 CURVE SMOOTH",
"170 46 OFFCURVE",
"129 93 OFFCURVE",
"129 168 CURVE SMOOTH",
"129 262 OFFCURVE",
"211 358 OFFCURVE",
"323 410 CURVE",
"421 410 LINE",
"536 358 OFFCURVE",
"622 261 OFFCURVE",
"622 168 CURVE SMOOTH",
"622 93 OFFCURVE",
"580 46 OFFCURVE"
);
},
{
closed = 1;
nodes = (
"373 319 CURVE SMOOTH",
"345 319 OFFCURVE",
"322 291 OFFCURVE",
"322 269 CURVE SMOOTH",
"322 240 OFFCURVE",
"346 217 OFFCURVE",
"373 217 CURVE SMOOTH",
"404 217 OFFCURVE",
"425 241 OFFCURVE",
"425 268 CURVE SMOOTH",
"425 291 OFFCURVE",
"404 319 OFFCURVE"
);
},
{
closed = 1;
nodes = (
"396 -93 LINE SMOOTH",
"396 -81 OFFCURVE",
"385 -70 OFFCURVE",
"373 -70 CURVE SMOOTH",
"361 -70 OFFCURVE",
"350 -81 OFFCURVE",
"350 -93 CURVE SMOOTH",
"350 -196 LINE SMOOTH",
"350 -208 OFFCURVE",
"361 -219 OFFCURVE",
"373 -219 CURVE SMOOTH",
"385 -219 OFFCURVE",
"396 -208 OFFCURVE",
"396 -196 CURVE SMOOTH"
);
}
);
width = 736;
}
);
userData = {
com.typemytype.robofont.layerData = {
background = {
anchors = (
);
components = (
);
contours = (
);
lib = {
};
name = knTHA.base;
unicodes = (
);
width = 736;
};
};
};
},
{
glyphname = "da-kannada";
lastChange = "2016-04-03 03:31:16 +0000";
layers = (
{
layerId = "EE99E773-27DB-4D1B-BC83-5C5BC0C316FA";
paths = (
{
closed = 1;
nodes = (
"519 0 CURVE SMOOTH",
"602 0 OFFCURVE",
"668 59 OFFCURVE",
"668 168 CURVE SMOOTH",
"668 254 OFFCURVE",
"608 346 OFFCURVE",
"514 410 CURVE",
"597 410 OFFCURVE",
"645 440 OFFCURVE",
"682 499 CURVE SMOOTH",
"684 503 OFFCURVE",
"685 507 OFFCURVE",
"685 511 CURVE SMOOTH",
"685 524 OFFCURVE",
"676 534 OFFCURVE",
"662 534 CURVE SMOOTH",
"654 534 OFFCURVE",
"647 530 OFFCURVE",
"642 523 CURVE SMOOTH",
"614 478 OFFCURVE",
"577 456 OFFCURVE",
"514 456 CURVE SMOOTH",
"111 456 LINE SMOOTH",
"99 456 OFFCURVE",
"88 445 OFFCURVE",
"88 433 CURVE SMOOTH",
"88 421 OFFCURVE",
"99 410 OFFCURVE",
"111 410 CURVE SMOOTH",
"231 410 LINE",
"141 346 OFFCURVE",
"83 254 OFFCURVE",
"83 168 CURVE SMOOTH",
"83 59 OFFCURVE",
"146 0 OFFCURVE",
"231 0 CURVE SMOOTH",
"294 0 OFFCURVE",
"337 27 OFFCURVE",
"373 83 CURVE",
"410 25 OFFCURVE",
"452 0 OFFCURVE"
);
},
{
closed = 1;
nodes = (
"519 46 CURVE SMOOTH",
"459 46 OFFCURVE",
"427 75 OFFCURVE",
"395 135 CURVE SMOOTH",
"391 142 OFFCURVE",
"383 147 OFFCURVE",
"375 147 CURVE SMOOTH",
"370 147 LINE SMOOTH",
"362 147 OFFCURVE",
"353 141 OFFCURVE",
"350 135 CURVE SMOOTH",
"320 77 OFFCURVE",
"287 46 OFFCURVE",
"231 46 CURVE SMOOTH",
"170 46 OFFCURVE",
"129 93 OFFCURVE",
"129 168 CURVE SMOOTH",
"129 262 OFFCURVE",
"211 358 OFFCURVE",
"323 410 CURVE",
"421 410 LINE",
"536 358 OFFCURVE",
"622 261 OFFCURVE",
"622 168 CURVE SMOOTH",
"622 93 OFFCURVE",
"580 46 OFFCURVE"
);
}
);
width = 751;
}
);
unicode = 0CA6;
userData = {
com.typemytype.robofont.layerData = {
background = {
anchors = (
);
components = (
);
contours = (
);
lib = {
};
name = knDA;
unicodes = (
);
width = 751;
};
};
};
},
{
glyphname = "da-kannada.base";
lastChange = "2016-04-03 03:40:50 +0000";
layers = (
{
layerId = "EE99E773-27DB-4D1B-BC83-5C5BC0C316FA";
paths = (
{
closed = 1;
nodes = (
"519 0 CURVE SMOOTH",
"602 0 OFFCURVE",
"668 59 OFFCURVE",
"668 168 CURVE SMOOTH",
"668 254 OFFCURVE",
"608 346 OFFCURVE",
"514 410 CURVE",
"526 410 OFFCURVE",
"537 421 OFFCURVE",
"537 433 CURVE SMOOTH",
"537 445 OFFCURVE",
"526 456 OFFCURVE",
"514 456 CURVE SMOOTH",
"111 456 LINE SMOOTH",
"99 456 OFFCURVE",
"88 445 OFFCURVE",
"88 433 CURVE SMOOTH",
"88 421 OFFCURVE",
"99 410 OFFCURVE",
"111 410 CURVE SMOOTH",
"231 410 LINE",
"141 346 OFFCURVE",
"83 254 OFFCURVE",
"83 168 CURVE SMOOTH",
"83 59 OFFCURVE",
"146 0 OFFCURVE",
"231 0 CURVE SMOOTH",
"294 0 OFFCURVE",
"337 27 OFFCURVE",
"373 83 CURVE",
"410 25 OFFCURVE",
"452 0 OFFCURVE"
);
},
{
closed = 1;
nodes = (
"519 46 CURVE SMOOTH",
"459 46 OFFCURVE",
"427 75 OFFCURVE",
"395 135 CURVE SMOOTH",
"391 142 OFFCURVE",
"383 147 OFFCURVE",
"375 147 CURVE SMOOTH",
"370 147 LINE SMOOTH",
"362 147 OFFCURVE",
"353 141 OFFCURVE",
"350 135 CURVE SMOOTH",
"320 77 OFFCURVE",
"287 46 OFFCURVE",
"231 46 CURVE SMOOTH",
"170 46 OFFCURVE",
"129 93 OFFCURVE",
"129 168 CURVE SMOOTH",
"129 262 OFFCURVE",
"211 358 OFFCURVE",
"323 410 CURVE",
"421 410 LINE",
"536 358 OFFCURVE",
"622 261 OFFCURVE",
"622 168 CURVE SMOOTH",
"622 93 OFFCURVE",
"580 46 OFFCURVE"
);
}
);
width = 736;
}
);
userData = {
com.typemytype.robofont.layerData = {
background = {
anchors = (
);
components = (
);
contours = (
);
lib = {
};
name = knDA.base;
unicodes = (
);
width = 736;
};
};
};
},
{
glyphname = "dha-kannada";
lastChange = "2016-04-03 03:31:16 +0000";
layers = (
{
layerId = "EE99E773-27DB-4D1B-BC83-5C5BC0C316FA";
paths = (
{
closed = 1;
nodes = (
"519 0 CURVE SMOOTH",
"602 0 OFFCURVE",
"668 59 OFFCURVE",
"668 168 CURVE SMOOTH",
"668 254 OFFCURVE",
"608 346 OFFCURVE",
"514 410 CURVE",
"597 410 OFFCURVE",
"645 440 OFFCURVE",
"682 499 CURVE SMOOTH",
"684 503 OFFCURVE",
"685 507 OFFCURVE",
"685 511 CURVE SMOOTH",
"685 524 OFFCURVE",
"676 534 OFFCURVE",
"662 534 CURVE SMOOTH",
"654 534 OFFCURVE",
"647 530 OFFCURVE",
"642 523 CURVE SMOOTH",
"614 478 OFFCURVE",
"577 456 OFFCURVE",
"514 456 CURVE SMOOTH",
"111 456 LINE SMOOTH",
"99 456 OFFCURVE",
"88 445 OFFCURVE",
"88 433 CURVE SMOOTH",
"88 421 OFFCURVE",
"99 410 OFFCURVE",
"111 410 CURVE SMOOTH",
"231 410 LINE",
"141 346 OFFCURVE",
"83 254 OFFCURVE",
"83 168 CURVE SMOOTH",
"83 59 OFFCURVE",
"146 0 OFFCURVE",
"231 0 CURVE SMOOTH",
"294 0 OFFCURVE",
"337 27 OFFCURVE",
"373 83 CURVE",
"410 25 OFFCURVE",
"452 0 OFFCURVE"
);
},
{
closed = 1;
nodes = (
"519 46 CURVE SMOOTH",
"459 46 OFFCURVE",
"427 75 OFFCURVE",
"395 135 CURVE SMOOTH",
"391 142 OFFCURVE",
"383 147 OFFCURVE",
"375 147 CURVE SMOOTH",
"370 147 LINE SMOOTH",
"362 147 OFFCURVE",
"353 141 OFFCURVE",
"350 135 CURVE SMOOTH",
"320 77 OFFCURVE",
"287 46 OFFCURVE",
"231 46 CURVE SMOOTH",
"170 46 OFFCURVE",
"129 93 OFFCURVE",
"129 168 CURVE SMOOTH",
"129 262 OFFCURVE",
"211 358 OFFCURVE",
"323 410 CURVE",
"421 410 LINE",
"536 358 OFFCURVE",
"622 261 OFFCURVE",
"622 168 CURVE SMOOTH",
"622 93 OFFCURVE",
"580 46 OFFCURVE"
);
},
{
closed = 1;
nodes = (
"396 -93 LINE SMOOTH",
"396 -81 OFFCURVE",
"385 -70 OFFCURVE",
"373 -70 CURVE SMOOTH",
"361 -70 OFFCURVE",
"350 -81 OFFCURVE",
"350 -93 CURVE SMOOTH",
"350 -196 LINE SMOOTH",
"350 -208 OFFCURVE",
"361 -219 OFFCURVE",
"373 -219 CURVE SMOOTH",
"385 -219 OFFCURVE",
"396 -208 OFFCURVE",
"396 -196 CURVE SMOOTH"
);
}
);
width = 751;
}
);
unicode = 0CA7;
userData = {
com.typemytype.robofont.layerData = {
background = {
anchors = (
);
components = (
);
contours = (
);
lib = {
};
name = knDHA;
unicodes = (
);
width = 751;
};
};
};
},
{
glyphname = "dha-kannada.base";
lastChange = "2016-04-03 03:40:50 +0000";
layers = (
{
layerId = "EE99E773-27DB-4D1B-BC83-5C5BC0C316FA";
paths = (
{
closed = 1;
nodes = (
"519 0 CURVE SMOOTH",
"602 0 OFFCURVE",
"668 59 OFFCURVE",
"668 168 CURVE SMOOTH",
"668 254 OFFCURVE",
"608 346 OFFCURVE",
"514 410 CURVE",
"526 410 OFFCURVE",
"537 421 OFFCURVE",
"537 433 CURVE SMOOTH",
"537 445 OFFCURVE",
"526 456 OFFCURVE",
"514 456 CURVE SMOOTH",
"111 456 LINE SMOOTH",
"99 456 OFFCURVE",
"88 445 OFFCURVE",
"88 433 CURVE SMOOTH",
"88 421 OFFCURVE",
"99 410 OFFCURVE",
"111 410 CURVE SMOOTH",
"231 410 LINE",
"141 346 OFFCURVE",
"83 254 OFFCURVE",
"83 168 CURVE SMOOTH",
"83 59 OFFCURVE",
"146 0 OFFCURVE",
"231 0 CURVE SMOOTH",
"294 0 OFFCURVE",
"337 27 OFFCURVE",
"373 83 CURVE",
"410 25 OFFCURVE",
"452 0 OFFCURVE"
);
},
{
closed = 1;
nodes = (
"519 46 CURVE SMOOTH",
"459 46 OFFCURVE",
"427 75 OFFCURVE",
"395 135 CURVE SMOOTH",
"391 142 OFFCURVE",
"383 147 OFFCURVE",
"375 147 CURVE SMOOTH",
"370 147 LINE SMOOTH",
"362 147 OFFCURVE",
"353 141 OFFCURVE",
"350 135 CURVE SMOOTH",
"320 77 OFFCURVE",
"287 46 OFFCURVE",
"231 46 CURVE SMOOTH",
"170 46 OFFCURVE",
"129 93 OFFCURVE",
"129 168 CURVE SMOOTH",
"129 262 OFFCURVE",
"211 358 OFFCURVE",
"323 410 CURVE",
"421 410 LINE",
"536 358 OFFCURVE",
"622 261 OFFCURVE",
"622 168 CURVE SMOOTH",
"622 93 OFFCURVE",
"580 46 OFFCURVE"
);
},
{
closed = 1;
nodes = (
"396 -93 LINE SMOOTH",
"396 -81 OFFCURVE",
"385 -70 OFFCURVE",
"373 -70 CURVE SMOOTH",
"361 -70 OFFCURVE",
"350 -81 OFFCURVE",
"350 -93 CURVE SMOOTH",
"350 -196 LINE SMOOTH",
"350 -208 OFFCURVE",
"361 -219 OFFCURVE",
"373 -219 CURVE SMOOTH",
"385 -219 OFFCURVE",
"396 -208 OFFCURVE",
"396 -196 CURVE SMOOTH"
);
}
);
width = 736;
}
);
userData = {
com.typemytype.robofont.layerData = {
background = {
anchors = (
);
components = (
);
contours = (
);
lib = {
};
name = knDHA.base;
unicodes = (
);
width = 736;
};
};
};
},
{
glyphname = "na-kannada";
lastChange = "2016-04-03 03:31:16 +0000";
layers = (
{
layerId = "EE99E773-27DB-4D1B-BC83-5C5BC0C316FA";
paths = (
{
closed = 1;
nodes = (
"138 13 CURVE SMOOTH",
"138 81 OFFCURVE",
"147 136 OFFCURVE",
"172 162 CURVE SMOOTH",
"183 173 OFFCURVE",
"199 182 OFFCURVE",
"220 182 CURVE SMOOTH",
"253 182 OFFCURVE",
"288 161 OFFCURVE",
"318 110 CURVE SMOOTH",
"361 39 OFFCURVE",
"396 0 OFFCURVE",
"463 0 CURVE SMOOTH",
"523 0 OFFCURVE",
"597 45 OFFCURVE",
"597 168 CURVE SMOOTH",
"597 254 OFFCURVE",
"541 343 OFFCURVE",
"457 411 CURVE",
"524 417 OFFCURVE",
"565 447 OFFCURVE",
"598 499 CURVE SMOOTH",
"600 503 OFFCURVE",
"601 507 OFFCURVE",
"601 511 CURVE SMOOTH",
"601 524 OFFCURVE",
"592 534 OFFCURVE",
"578 534 CURVE SMOOTH",
"570 534 OFFCURVE",
"563 530 OFFCURVE",
"558 523 CURVE SMOOTH",
"530 478 OFFCURVE",
"493 456 OFFCURVE",
"430 456 CURVE SMOOTH",
"106 456 LINE SMOOTH",
"94 456 OFFCURVE",
"83 445 OFFCURVE",
"83 433 CURVE SMOOTH",
"83 421 OFFCURVE",
"94 410 OFFCURVE",
"106 410 CURVE SMOOTH",
"379 410 LINE",
"476 349 OFFCURVE",
"551 259 OFFCURVE",
"551 168 CURVE SMOOTH",
"551 87 OFFCURVE",
"507 46 OFFCURVE",
"463 46 CURVE SMOOTH",
"412 46 OFFCURVE",
"389 83 OFFCURVE",
"358 134 CURVE SMOOTH",
"314 205 OFFCURVE",
"265 228 OFFCURVE",
"220 228 CURVE SMOOTH",
"185 228 OFFCURVE",
"159 213 OFFCURVE",
"140 194 CURVE SMOOTH",
"109 164 OFFCURVE",
"92 99 OFFCURVE",
"92 13 CURVE SMOOTH",
"92 1 OFFCURVE",
"103 -10 OFFCURVE",
"115 -10 CURVE SMOOTH",
"127 -10 OFFCURVE",
"138 1 OFFCURVE"
);
}
);
width = 668;
}
);
unicode = 0CA8;
userData = {
com.typemytype.robofont.layerData = {
background = {
anchors = (
);
components = (
);
contours = (
);
lib = {
};
name = knNA;
unicodes = (
);
width = 668;
};
};
};
},
{
glyphname = "na-kannada.base";
lastChange = "2016-04-03 03:40:50 +0000";
layers = (
{
layerId = "EE99E773-27DB-4D1B-BC83-5C5BC0C316FA";
paths = (
{
closed = 1;
nodes = (
"138 13 CURVE SMOOTH",
"138 81 OFFCURVE",
"147 136 OFFCURVE",
"172 162 CURVE SMOOTH",
"183 173 OFFCURVE",
"199 182 OFFCURVE",
"220 182 CURVE SMOOTH",
"253 182 OFFCURVE",
"288 161 OFFCURVE",
"318 110 CURVE SMOOTH",
"361 39 OFFCURVE",
"396 0 OFFCURVE",
"463 0 CURVE SMOOTH",
"523 0 OFFCURVE",
"597 45 OFFCURVE",
"597 168 CURVE SMOOTH",
"597 257 OFFCURVE",
"540 347 OFFCURVE",
"454 416 CURVE",
"459 420 OFFCURVE",
"463 426 OFFCURVE",
"463 433 CURVE SMOOTH",
"463 445 OFFCURVE",
"452 456 OFFCURVE",
"440 456 CURVE SMOOTH",
"106 456 LINE SMOOTH",
"94 456 OFFCURVE",
"83 445 OFFCURVE",
"83 433 CURVE SMOOTH",
"83 421 OFFCURVE",
"94 410 OFFCURVE",
"106 410 CURVE SMOOTH",
"382 410 LINE",
"478 349 OFFCURVE",
"551 259 OFFCURVE",
"551 168 CURVE SMOOTH",
"551 87 OFFCURVE",
"507 46 OFFCURVE",
"463 46 CURVE SMOOTH",
"412 46 OFFCURVE",
"389 83 OFFCURVE",
"358 134 CURVE SMOOTH",
"314 205 OFFCURVE",
"265 228 OFFCURVE",
"220 228 CURVE SMOOTH",
"185 228 OFFCURVE",
"159 213 OFFCURVE",
"140 194 CURVE SMOOTH",
"109 164 OFFCURVE",
"92 99 OFFCURVE",
"92 13 CURVE SMOOTH",
"92 1 OFFCURVE",
"103 -10 OFFCURVE",
"115 -10 CURVE SMOOTH",
"127 -10 OFFCURVE",
"138 1 OFFCURVE"
);
}
);
width = 640;
}
);
userData = {
com.typemytype.robofont.layerData = {
background = {
anchors = (
);
components = (
);
contours = (
);
lib = {
};
name = knNA.base;
unicodes = (
);
width = 640;
};
};
};
},
{
glyphname = "pa-kannada";
lastChange = "2016-04-03 03:31:16 +0000";
layers = (
{
layerId = "EE99E773-27DB-4D1B-BC83-5C5BC0C316FA";
paths = (
{
closed = 1;
nodes = (
"383 246 CURVE SMOOTH",
"459 246 OFFCURVE",
"498 297 OFFCURVE",
"498 353 CURVE SMOOTH",
"498 371 OFFCURVE",
"494 391 OFFCURVE",
"484 410 CURVE",
"521 410 LINE SMOOTH",
"604 410 OFFCURVE",
"652 440 OFFCURVE",
"689 499 CURVE SMOOTH",
"691 503 OFFCURVE",
"692 507 OFFCURVE",
"692 511 CURVE SMOOTH",
"692 524 OFFCURVE",
"682 534 OFFCURVE",
"669 534 CURVE SMOOTH",
"661 534 OFFCURVE",
"654 530 OFFCURVE",
"649 523 CURVE SMOOTH",
"621 478 OFFCURVE",
"584 456 OFFCURVE",
"521 456 CURVE SMOOTH",
"106 456 LINE SMOOTH",
"94 456 OFFCURVE",
"83 445 OFFCURVE",
"83 433 CURVE SMOOTH",
"83 421 OFFCURVE",
"94 410 OFFCURVE",
"106 410 CURVE SMOOTH",
"283 410 LINE",
"272 390 OFFCURVE",
"268 370 OFFCURVE",
"268 352 CURVE SMOOTH",
"268 298 OFFCURVE",
"309 246 OFFCURVE"
);
},
{
closed = 1;
nodes = (
"383 292 CURVE SMOOTH",
"341 292 OFFCURVE",
"314 320 OFFCURVE",
"314 352 CURVE SMOOTH",
"314 371 OFFCURVE",
"321 392 OFFCURVE",
"340 410 CURVE",
"428 410 LINE",
"446 391 OFFCURVE",
"452 371 OFFCURVE",
"452 353 CURVE SMOOTH",
"452 319 OFFCURVE",
"427 292 OFFCURVE"
);
},
{
closed = 1;
nodes = (
"547 0 CURVE SMOOTH",
"633 0 OFFCURVE",
"685 58 OFFCURVE",
"685 141 CURVE SMOOTH",
"685 180 OFFCURVE",
"674 217 OFFCURVE",
"661 246 CURVE SMOOTH",
"657 254 OFFCURVE",
"649 259 OFFCURVE",
"640 259 CURVE SMOOTH",
"626 259 OFFCURVE",
"617 248 OFFCURVE",
"617 236 CURVE SMOOTH",
"617 232 OFFCURVE",
"618 229 OFFCURVE",
"622 220 CURVE SMOOTH",
"630 203 OFFCURVE",
"639 172 OFFCURVE",
"639 141 CURVE SMOOTH",
"639 86 OFFCURVE",
"605 46 OFFCURVE",
"547 46 CURVE SMOOTH",
"482 46 OFFCURVE",
"442 79 OFFCURVE",
"405 136 CURVE SMOOTH",
"401 143 OFFCURVE",
"394 147 OFFCURVE",
"386 147 CURVE SMOOTH",
"381 147 LINE SMOOTH",
"374 147 OFFCURVE",
"366 143 OFFCURVE",
"362 137 CURVE SMOOTH",
"321 76 OFFCURVE",
"283 44 OFFCURVE",
"222 44 CURVE SMOOTH",
"164 44 OFFCURVE",
"126 75 OFFCURVE",
"126 118 CURVE SMOOTH",
"126 156 OFFCURVE",
"155 186 OFFCURVE",
"202 193 CURVE SMOOTH",
"214 195 OFFCURVE",
"222 205 OFFCURVE",
"222 216 CURVE SMOOTH",
"222 228 OFFCURVE",
"214 238 OFFCURVE",
"201 238 CURVE SMOOTH",
"137 238 OFFCURVE",
"80 188 OFFCURVE",
"80 118 CURVE SMOOTH",
"80 55 OFFCURVE",
"128 -2 OFFCURVE",
"222 -2 CURVE SMOOTH",
"289 -2 OFFCURVE",
"336 27 OFFCURVE",
"383 88 CURVE",
"426 31 OFFCURVE",
"475 0 OFFCURVE"
);
}
);
width = 746;
}
);
unicode = 0CAA;
userData = {
com.typemytype.robofont.layerData = {
background = {
anchors = (
);
components = (
);
contours = (
);
lib = {
};
name = knPA;
unicodes = (
);
width = 746;
};
};
};
},
{
glyphname = "pa-kannada.base";
lastChange = "2016-04-03 03:40:50 +0000";
layers = (
{
layerId = "EE99E773-27DB-4D1B-BC83-5C5BC0C316FA";
paths = (
{
closed = 1;
nodes = (
"383 246 CURVE SMOOTH",
"459 246 OFFCURVE",
"498 297 OFFCURVE",
"498 353 CURVE SMOOTH",
"498 371 OFFCURVE",
"494 391 OFFCURVE",
"484 410 CURVE",
"521 410 LINE SMOOTH",
"533 410 OFFCURVE",
"544 421 OFFCURVE",
"544 433 CURVE SMOOTH",
"544 445 OFFCURVE",
"533 456 OFFCURVE",
"521 456 CURVE SMOOTH",
"106 456 LINE SMOOTH",
"94 456 OFFCURVE",
"83 445 OFFCURVE",
"83 433 CURVE SMOOTH",
"83 421 OFFCURVE",
"94 410 OFFCURVE",
"106 410 CURVE SMOOTH",
"283 410 LINE",
"272 390 OFFCURVE",
"268 370 OFFCURVE",
"268 352 CURVE SMOOTH",
"268 298 OFFCURVE",
"309 246 OFFCURVE"
);
},
{
closed = 1;
nodes = (
"383 292 CURVE SMOOTH",
"341 292 OFFCURVE",
"314 320 OFFCURVE",
"314 352 CURVE SMOOTH",
"314 371 OFFCURVE",
"321 392 OFFCURVE",
"340 410 CURVE",
"428 410 LINE",
"446 391 OFFCURVE",
"452 371 OFFCURVE",
"452 353 CURVE SMOOTH",
"452 319 OFFCURVE",
"427 292 OFFCURVE"
);
},
{
closed = 1;
nodes = (
"547 0 CURVE SMOOTH",
"633 0 OFFCURVE",
"685 58 OFFCURVE",
"685 141 CURVE SMOOTH",
"685 180 OFFCURVE",
"674 217 OFFCURVE",
"661 246 CURVE SMOOTH",
"657 254 OFFCURVE",
"649 259 OFFCURVE",
"640 259 CURVE SMOOTH",
"625 259 OFFCURVE",
"617 248 OFFCURVE",
"617 236 CURVE SMOOTH",
"617 232 OFFCURVE",
"618 229 OFFCURVE",
"622 220 CURVE SMOOTH",
"630 203 OFFCURVE",
"639 172 OFFCURVE",
"639 141 CURVE SMOOTH",
"639 86 OFFCURVE",
"605 46 OFFCURVE",
"547 46 CURVE SMOOTH",
"482 46 OFFCURVE",
"442 79 OFFCURVE",
"405 136 CURVE SMOOTH",
"401 143 OFFCURVE",
"394 147 OFFCURVE",
"386 147 CURVE SMOOTH",
"381 147 LINE SMOOTH",
"374 147 OFFCURVE",
"366 143 OFFCURVE",
"362 137 CURVE SMOOTH",
"321 76 OFFCURVE",
"283 44 OFFCURVE",
"222 44 CURVE SMOOTH",
"164 44 OFFCURVE",
"126 75 OFFCURVE",
"126 118 CURVE SMOOTH",
"126 156 OFFCURVE",
"155 186 OFFCURVE",
"202 193 CURVE SMOOTH",
"214 195 OFFCURVE",
"222 205 OFFCURVE",
"222 216 CURVE SMOOTH",
"222 229 OFFCURVE",
"213 238 OFFCURVE",
"199 238 CURVE SMOOTH",
"137 238 OFFCURVE",
"80 188 OFFCURVE",
"80 118 CURVE SMOOTH",
"80 55 OFFCURVE",
"128 -2 OFFCURVE",
"222 -2 CURVE SMOOTH",
"289 -2 OFFCURVE",
"336 27 OFFCURVE",
"383 88 CURVE",
"426 31 OFFCURVE",
"475 0 OFFCURVE"
);
}
);
width = 725;
}
);
userData = {
com.typemytype.robofont.layerData = {
background = {
anchors = (
);
components = (
);
contours = (
);
lib = {
};
name = knPA.base;
unicodes = (
);
width = 725;
};
};
};
},
{
glyphname = "pha-kannada";
lastChange = "2016-04-03 03:31:16 +0000";
layers = (
{
layerId = "EE99E773-27DB-4D1B-BC83-5C5BC0C316FA";
paths = (
{
closed = 1;
nodes = (
"383 246 CURVE SMOOTH",
"459 246 OFFCURVE",
"498 297 OFFCURVE",
"498 353 CURVE SMOOTH",
"498 371 OFFCURVE",
"494 391 OFFCURVE",
"484 410 CURVE",
"521 410 LINE SMOOTH",
"604 410 OFFCURVE",
"652 440 OFFCURVE",
"689 499 CURVE SMOOTH",
"691 503 OFFCURVE",
"692 507 OFFCURVE",
"692 511 CURVE SMOOTH",
"692 524 OFFCURVE",
"682 534 OFFCURVE",
"669 534 CURVE SMOOTH",
"661 534 OFFCURVE",
"654 530 OFFCURVE",
"649 523 CURVE SMOOTH",
"621 478 OFFCURVE",
"584 456 OFFCURVE",
"521 456 CURVE SMOOTH",
"106 456 LINE SMOOTH",
"94 456 OFFCURVE",
"83 445 OFFCURVE",
"83 433 CURVE SMOOTH",
"83 421 OFFCURVE",
"94 410 OFFCURVE",
"106 410 CURVE SMOOTH",
"283 410 LINE",
"272 390 OFFCURVE",
"268 370 OFFCURVE",
"268 352 CURVE SMOOTH",
"268 298 OFFCURVE",
"309 246 OFFCURVE"
);
},
{
closed = 1;
nodes = (
"383 292 CURVE SMOOTH",
"341 292 OFFCURVE",
"314 320 OFFCURVE",
"314 352 CURVE SMOOTH",
"314 371 OFFCURVE",
"321 392 OFFCURVE",
"340 410 CURVE",
"428 410 LINE",
"446 391 OFFCURVE",
"452 371 OFFCURVE",
"452 353 CURVE SMOOTH",
"452 319 OFFCURVE",
"427 292 OFFCURVE"
);
},
{
closed = 1;
nodes = (
"547 0 CURVE SMOOTH",
"633 0 OFFCURVE",
"685 58 OFFCURVE",
"685 141 CURVE SMOOTH",
"685 180 OFFCURVE",
"674 217 OFFCURVE",
"661 246 CURVE SMOOTH",
"657 254 OFFCURVE",
"649 259 OFFCURVE",
"640 259 CURVE SMOOTH",
"626 259 OFFCURVE",
"617 248 OFFCURVE",
"617 236 CURVE SMOOTH",
"617 232 OFFCURVE",
"618 229 OFFCURVE",
"622 220 CURVE SMOOTH",
"630 203 OFFCURVE",
"639 172 OFFCURVE",
"639 141 CURVE SMOOTH",
"639 86 OFFCURVE",
"605 46 OFFCURVE",
"547 46 CURVE SMOOTH",
"482 46 OFFCURVE",
"442 79 OFFCURVE",
"405 136 CURVE SMOOTH",
"401 143 OFFCURVE",
"394 147 OFFCURVE",
"386 147 CURVE SMOOTH",
"381 147 LINE SMOOTH",
"374 147 OFFCURVE",
"366 143 OFFCURVE",
"362 137 CURVE SMOOTH",
"321 76 OFFCURVE",
"283 44 OFFCURVE",
"222 44 CURVE SMOOTH",
"164 44 OFFCURVE",
"126 75 OFFCURVE",
"126 118 CURVE SMOOTH",
"126 156 OFFCURVE",
"155 186 OFFCURVE",
"202 193 CURVE SMOOTH",
"214 195 OFFCURVE",
"222 205 OFFCURVE",
"222 216 CURVE SMOOTH",
"222 228 OFFCURVE",
"214 238 OFFCURVE",
"201 238 CURVE SMOOTH",
"137 238 OFFCURVE",
"80 188 OFFCURVE",
"80 118 CURVE SMOOTH",
"80 55 OFFCURVE",
"128 -2 OFFCURVE",
"222 -2 CURVE SMOOTH",
"289 -2 OFFCURVE",
"336 27 OFFCURVE",
"383 88 CURVE",
"426 31 OFFCURVE",
"475 0 OFFCURVE"
);
},
{
closed = 1;
nodes = (
"397 -93 LINE SMOOTH",
"397 -81 OFFCURVE",
"386 -70 OFFCURVE",
"374 -70 CURVE SMOOTH",
"362 -70 OFFCURVE",
"351 -81 OFFCURVE",
"351 -93 CURVE SMOOTH",
"351 -196 LINE SMOOTH",
"351 -208 OFFCURVE",
"362 -219 OFFCURVE",
"374 -219 CURVE SMOOTH",
"386 -219 OFFCURVE",
"397 -208 OFFCURVE",
"397 -196 CURVE SMOOTH"
);
}
);
width = 746;
}
);
unicode = 0CAB;
userData = {
com.typemytype.robofont.layerData = {
background = {
anchors = (
);
components = (
);
contours = (
);
lib = {
};
name = knPHA;
unicodes = (
);
width = 746;
};
};
};
},
{
glyphname = "pha-kannada.base";
lastChange = "2016-04-03 03:40:50 +0000";
layers = (
{
layerId = "EE99E773-27DB-4D1B-BC83-5C5BC0C316FA";
paths = (
{
closed = 1;
nodes = (
"383 246 CURVE SMOOTH",
"459 246 OFFCURVE",
"498 297 OFFCURVE",
"498 353 CURVE SMOOTH",
"498 371 OFFCURVE",
"494 391 OFFCURVE",
"484 410 CURVE",
"521 410 LINE SMOOTH",
"533 410 OFFCURVE",
"544 421 OFFCURVE",
"544 433 CURVE SMOOTH",
"544 445 OFFCURVE",
"533 456 OFFCURVE",
"521 456 CURVE SMOOTH",
"106 456 LINE SMOOTH",
"94 456 OFFCURVE",
"83 445 OFFCURVE",
"83 433 CURVE SMOOTH",
"83 421 OFFCURVE",
"94 410 OFFCURVE",
"106 410 CURVE SMOOTH",
"283 410 LINE",
"272 390 OFFCURVE",
"268 370 OFFCURVE",
"268 352 CURVE SMOOTH",
"268 298 OFFCURVE",
"309 246 OFFCURVE"
);
},
{
closed = 1;
nodes = (
"383 292 CURVE SMOOTH",
"341 292 OFFCURVE",
"314 320 OFFCURVE",
"314 352 CURVE SMOOTH",
"314 371 OFFCURVE",
"321 392 OFFCURVE",
"340 410 CURVE",
"428 410 LINE",
"446 391 OFFCURVE",
"452 371 OFFCURVE",
"452 353 CURVE SMOOTH",
"452 319 OFFCURVE",
"427 292 OFFCURVE"
);
},
{
closed = 1;
nodes = (
"547 0 CURVE SMOOTH",
"633 0 OFFCURVE",
"685 58 OFFCURVE",
"685 141 CURVE SMOOTH",
"685 180 OFFCURVE",
"674 217 OFFCURVE",
"661 246 CURVE SMOOTH",
"657 254 OFFCURVE",
"649 259 OFFCURVE",
"640 259 CURVE SMOOTH",
"625 259 OFFCURVE",
"617 248 OFFCURVE",
"617 236 CURVE SMOOTH",
"617 232 OFFCURVE",
"618 229 OFFCURVE",
"622 220 CURVE SMOOTH",
"630 203 OFFCURVE",
"639 172 OFFCURVE",
"639 141 CURVE SMOOTH",
"639 86 OFFCURVE",
"605 46 OFFCURVE",
"547 46 CURVE SMOOTH",
"482 46 OFFCURVE",
"442 79 OFFCURVE",
"405 136 CURVE SMOOTH",
"401 143 OFFCURVE",
"394 147 OFFCURVE",
"386 147 CURVE SMOOTH",
"381 147 LINE SMOOTH",
"374 147 OFFCURVE",
"366 143 OFFCURVE",
"362 137 CURVE SMOOTH",
"321 76 OFFCURVE",
"283 44 OFFCURVE",
"222 44 CURVE SMOOTH",
"164 44 OFFCURVE",
"126 75 OFFCURVE",
"126 118 CURVE SMOOTH",
"126 156 OFFCURVE",
"155 186 OFFCURVE",
"202 193 CURVE SMOOTH",
"214 195 OFFCURVE",
"222 205 OFFCURVE",
"222 216 CURVE SMOOTH",
"222 229 OFFCURVE",
"213 238 OFFCURVE",
"199 238 CURVE SMOOTH",
"137 238 OFFCURVE",
"80 188 OFFCURVE",
"80 118 CURVE SMOOTH",
"80 55 OFFCURVE",
"128 -2 OFFCURVE",
"222 -2 CURVE SMOOTH",
"289 -2 OFFCURVE",
"336 27 OFFCURVE",
"383 88 CURVE",
"426 31 OFFCURVE",
"475 0 OFFCURVE"
);
},
{
closed = 1;
nodes = (
"397 -93 LINE SMOOTH",
"397 -81 OFFCURVE",
"386 -70 OFFCURVE",
"374 -70 CURVE SMOOTH",
"362 -70 OFFCURVE",
"351 -81 OFFCURVE",
"351 -93 CURVE SMOOTH",
"351 -196 LINE SMOOTH",
"351 -208 OFFCURVE",
"362 -219 OFFCURVE",
"374 -219 CURVE SMOOTH",
"386 -219 OFFCURVE",
"397 -208 OFFCURVE",
"397 -196 CURVE SMOOTH"
);
}
);
width = 725;
}
);
userData = {
com.typemytype.robofont.layerData = {
background = {
anchors = (
);
components = (
);
contours = (
);
lib = {
};
name = knPHA.base;
unicodes = (
);
width = 725;
};
};
};
},
{
glyphname = "ba-kannada";
lastChange = "2016-04-03 03:31:16 +0000";
layers = (
{
layerId = "EE99E773-27DB-4D1B-BC83-5C5BC0C316FA";
paths = (
{
closed = 1;
nodes = (
"536 0 CURVE SMOOTH",
"614 0 OFFCURVE",
"683 58 OFFCURVE",
"683 175 CURVE SMOOTH",
"683 282 OFFCURVE",
"629 383 OFFCURVE",
"538 451 CURVE SMOOTH",
"534 454 OFFCURVE",
"529 456 OFFCURVE",
"524 456 CURVE SMOOTH",
"511 456 OFFCURVE",
"501 445 OFFCURVE",
"501 433 CURVE SMOOTH",
"501 426 OFFCURVE",
"504 419 OFFCURVE",
"510 415 CURVE SMOOTH",
"589 355 OFFCURVE",
"637 268 OFFCURVE",
"637 175 CURVE SMOOTH",
"637 94 OFFCURVE",
"594 46 OFFCURVE",
"536 46 CURVE SMOOTH",
"478 46 OFFCURVE",
"438 76 OFFCURVE",
"404 135 CURVE SMOOTH",
"400 142 OFFCURVE",
"391 147 OFFCURVE",
"384 147 CURVE SMOOTH",
"379 147 LINE SMOOTH",
"372 147 OFFCURVE",
"363 142 OFFCURVE",
"359 136 CURVE SMOOTH",
"323 77 OFFCURVE",
"281 46 OFFCURVE",
"222 46 CURVE SMOOTH",
"165 46 OFFCURVE",
"133 81 OFFCURVE",
"133 125 CURVE SMOOTH",
"133 167 OFFCURVE",
"162 202 OFFCURVE",
"203 235 CURVE SMOOTH",
"269 288 OFFCURVE",
"291 327 OFFCURVE",
"291 371 CURVE SMOOTH",
"291 426 OFFCURVE",
"251 471 OFFCURVE",
"183 471 CURVE SMOOTH",
"140 471 OFFCURVE",
"105 451 OFFCURVE",
"75 417 CURVE SMOOTH",
"71 413 OFFCURVE",
"69 407 OFFCURVE",
"69 402 CURVE SMOOTH",
"69 389 OFFCURVE",
"80 379 OFFCURVE",
"92 379 CURVE SMOOTH",
"99 379 OFFCURVE",
"105 382 OFFCURVE",
"109 387 CURVE SMOOTH",
"129 409 OFFCURVE",
"154 425 OFFCURVE",
"183 425 CURVE SMOOTH",
"219 425 OFFCURVE",
"245 402 OFFCURVE",
"245 371 CURVE SMOOTH",
"245 337 OFFCURVE",
"223 310 OFFCURVE",
"175 271 CURVE SMOOTH",
"120 226 OFFCURVE",
"87 179 OFFCURVE",
"87 125 CURVE SMOOTH",
"87 59 OFFCURVE",
"133 0 OFFCURVE",
"222 0 CURVE SMOOTH",
"288 0 OFFCURVE",
"338 27 OFFCURVE",
"381 86 CURVE",
"422 27 OFFCURVE",
"471 0 OFFCURVE"
);
}
);
width = 753;
}
);
unicode = 0CAC;
userData = {
com.typemytype.robofont.layerData = {
background = {
anchors = (
);
components = (
);
contours = (
);
lib = {
};
name = knBA;
unicodes = (
);
width = 753;
};
};
};
},
{
glyphname = "ba-kannada.base";
lastChange = "2016-04-03 03:40:50 +0000";
layers = (
{
layerId = "EE99E773-27DB-4D1B-BC83-5C5BC0C316FA";
paths = (
{
closed = 1;
nodes = (
"536 0 CURVE SMOOTH",
"615 0 OFFCURVE",
"680 59 OFFCURVE",
"680 168 CURVE SMOOTH",
"680 258 OFFCURVE",
"630 353 OFFCURVE",
"551 422 CURVE",
"553 425 OFFCURVE",
"554 429 OFFCURVE",
"554 433 CURVE SMOOTH",
"554 445 OFFCURVE",
"543 456 OFFCURVE",
"531 456 CURVE SMOOTH",
"439 456 LINE SMOOTH",
"427 456 OFFCURVE",
"416 445 OFFCURVE",
"416 433 CURVE SMOOTH",
"416 421 OFFCURVE",
"427 410 OFFCURVE",
"439 410 CURVE SMOOTH",
"491 410 LINE",
"576 351 OFFCURVE",
"634 256 OFFCURVE",
"634 168 CURVE SMOOTH",
"634 93 OFFCURVE",
"593 46 OFFCURVE",
"536 46 CURVE SMOOTH",
"478 46 OFFCURVE",
"438 76 OFFCURVE",
"404 135 CURVE SMOOTH",
"400 142 OFFCURVE",
"391 147 OFFCURVE",
"384 147 CURVE SMOOTH",
"379 147 LINE SMOOTH",
"372 147 OFFCURVE",
"363 142 OFFCURVE",
"359 136 CURVE SMOOTH",
"323 77 OFFCURVE",
"281 46 OFFCURVE",
"222 46 CURVE SMOOTH",
"165 46 OFFCURVE",
"133 81 OFFCURVE",
"133 125 CURVE SMOOTH",
"133 167 OFFCURVE",
"162 202 OFFCURVE",
"203 235 CURVE SMOOTH",
"269 288 OFFCURVE",
"291 327 OFFCURVE",
"291 371 CURVE SMOOTH",
"291 426 OFFCURVE",
"251 471 OFFCURVE",
"183 471 CURVE SMOOTH",
"140 471 OFFCURVE",
"105 451 OFFCURVE",
"75 417 CURVE SMOOTH",
"71 413 OFFCURVE",
"69 407 OFFCURVE",
"69 402 CURVE SMOOTH",
"69 389 OFFCURVE",
"81 379 OFFCURVE",
"92 379 CURVE SMOOTH",
"99 379 OFFCURVE",
"105 382 OFFCURVE",
"109 387 CURVE SMOOTH",
"129 409 OFFCURVE",
"154 425 OFFCURVE",
"183 425 CURVE SMOOTH",
"219 425 OFFCURVE",
"245 402 OFFCURVE",
"245 371 CURVE SMOOTH",
"245 337 OFFCURVE",
"223 310 OFFCURVE",
"175 271 CURVE SMOOTH",
"120 226 OFFCURVE",
"87 179 OFFCURVE",
"87 125 CURVE SMOOTH",
"87 59 OFFCURVE",
"133 0 OFFCURVE",
"222 0 CURVE SMOOTH",
"288 0 OFFCURVE",
"338 27 OFFCURVE",
"381 86 CURVE",
"422 27 OFFCURVE",
"471 0 OFFCURVE"
);
}
);
width = 721;
}
);
userData = {
com.typemytype.robofont.layerData = {
background = {
anchors = (
);
components = (
);
contours = (
);
lib = {
};
name = knBA.base;
unicodes = (
);
width = 721;
};
};
};
},
{
glyphname = "bha-kannada";
lastChange = "2016-04-03 03:31:16 +0000";
layers = (
{
layerId = "EE99E773-27DB-4D1B-BC83-5C5BC0C316FA";
paths = (
{
closed = 1;
nodes = (
"536 0 CURVE SMOOTH",
"615 0 OFFCURVE",
"680 59 OFFCURVE",
"680 168 CURVE SMOOTH",
"680 254 OFFCURVE",
"635 344 OFFCURVE",
"562 412 CURVE",
"624 419 OFFCURVE",
"664 448 OFFCURVE",
"696 499 CURVE SMOOTH",
"698 503 OFFCURVE",
"699 507 OFFCURVE",
"699 511 CURVE SMOOTH",
"699 523 OFFCURVE",
"690 534 OFFCURVE",
"676 534 CURVE SMOOTH",
"668 534 OFFCURVE",
"661 530 OFFCURVE",
"656 523 CURVE SMOOTH",
"628 478 OFFCURVE",
"591 456 OFFCURVE",
"528 456 CURVE SMOOTH",
"439 456 LINE SMOOTH",
"427 456 OFFCURVE",
"416 445 OFFCURVE",
"416 433 CURVE SMOOTH",
"416 421 OFFCURVE",
"427 410 OFFCURVE",
"439 410 CURVE SMOOTH",
"491 410 LINE",
"576 351 OFFCURVE",
"634 256 OFFCURVE",
"634 168 CURVE SMOOTH",
"634 93 OFFCURVE",
"593 46 OFFCURVE",
"536 46 CURVE SMOOTH",
"478 46 OFFCURVE",
"438 76 OFFCURVE",
"404 135 CURVE SMOOTH",
"400 142 OFFCURVE",
"391 147 OFFCURVE",
"384 147 CURVE SMOOTH",
"379 147 LINE SMOOTH",
"372 147 OFFCURVE",
"363 142 OFFCURVE",
"359 136 CURVE SMOOTH",
"323 77 OFFCURVE",
"281 46 OFFCURVE",
"222 46 CURVE SMOOTH",
"165 46 OFFCURVE",
"133 81 OFFCURVE",
"133 125 CURVE SMOOTH",
"133 167 OFFCURVE",
"162 202 OFFCURVE",
"203 235 CURVE SMOOTH",
"269 288 OFFCURVE",
"291 327 OFFCURVE",
"291 371 CURVE SMOOTH",
"291 426 OFFCURVE",
"251 471 OFFCURVE",
"183 471 CURVE SMOOTH",
"140 471 OFFCURVE",
"105 451 OFFCURVE",
"75 417 CURVE SMOOTH",
"71 413 OFFCURVE",
"69 407 OFFCURVE",
"69 402 CURVE SMOOTH",
"69 389 OFFCURVE",
"80 379 OFFCURVE",
"92 379 CURVE SMOOTH",
"99 379 OFFCURVE",
"105 382 OFFCURVE",
"109 387 CURVE SMOOTH",
"129 409 OFFCURVE",
"154 425 OFFCURVE",
"183 425 CURVE SMOOTH",
"219 425 OFFCURVE",
"245 402 OFFCURVE",
"245 371 CURVE SMOOTH",
"245 337 OFFCURVE",
"223 310 OFFCURVE",
"175 271 CURVE SMOOTH",
"120 226 OFFCURVE",
"87 179 OFFCURVE",
"87 125 CURVE SMOOTH",
"87 59 OFFCURVE",
"133 0 OFFCURVE",
"222 0 CURVE SMOOTH",
"288 0 OFFCURVE",
"338 27 OFFCURVE",
"381 86 CURVE",
"422 27 OFFCURVE",
"471 0 OFFCURVE"
);
},
{
closed = 1;
nodes = (
"406 -93 LINE SMOOTH",
"406 -81 OFFCURVE",
"395 -70 OFFCURVE",
"383 -70 CURVE SMOOTH",
"371 -70 OFFCURVE",
"360 -81 OFFCURVE",
"360 -93 CURVE SMOOTH",
"360 -196 LINE SMOOTH",
"360 -208 OFFCURVE",
"371 -219 OFFCURVE",
"383 -219 CURVE SMOOTH",
"395 -219 OFFCURVE",
"406 -208 OFFCURVE",
"406 -196 CURVE SMOOTH"
);
}
);
width = 751;
}
);
unicode = 0CAD;
userData = {
com.typemytype.robofont.layerData = {
background = {
anchors = (
);
components = (
);
contours = (
);
lib = {
};
name = knBHA;
unicodes = (
);
width = 751;
};
};
};
},
{
glyphname = "bha-kannada.base";
lastChange = "2016-04-03 03:41:04 +0000";
layers = (
{
layerId = "EE99E773-27DB-4D1B-BC83-5C5BC0C316FA";
paths = (
{
closed = 1;
nodes = (
"536 0 CURVE SMOOTH",
"615 0 OFFCURVE",
"680 59 OFFCURVE",
"680 168 CURVE SMOOTH",
"680 258 OFFCURVE",
"630 353 OFFCURVE",
"551 422 CURVE",
"553 425 OFFCURVE",
"554 429 OFFCURVE",
"554 433 CURVE SMOOTH",
"554 445 OFFCURVE",
"543 456 OFFCURVE",
"531 456 CURVE SMOOTH",
"439 456 LINE SMOOTH",
"427 456 OFFCURVE",
"416 445 OFFCURVE",
"416 433 CURVE SMOOTH",
"416 421 OFFCURVE",
"427 410 OFFCURVE",
"439 410 CURVE SMOOTH",
"491 410 LINE",
"576 351 OFFCURVE",
"634 256 OFFCURVE",
"634 168 CURVE SMOOTH",
"634 93 OFFCURVE",
"593 46 OFFCURVE",
"536 46 CURVE SMOOTH",
"478 46 OFFCURVE",
"438 76 OFFCURVE",
"404 135 CURVE SMOOTH",
"400 142 OFFCURVE",
"391 147 OFFCURVE",
"384 147 CURVE SMOOTH",
"379 147 LINE SMOOTH",
"372 147 OFFCURVE",
"363 142 OFFCURVE",
"359 136 CURVE SMOOTH",
"323 77 OFFCURVE",
"281 46 OFFCURVE",
"222 46 CURVE SMOOTH",
"165 46 OFFCURVE",
"133 81 OFFCURVE",
"133 125 CURVE SMOOTH",
"133 167 OFFCURVE",
"162 202 OFFCURVE",
"203 235 CURVE SMOOTH",
"269 288 OFFCURVE",
"291 327 OFFCURVE",
"291 371 CURVE SMOOTH",
"291 426 OFFCURVE",
"251 471 OFFCURVE",
"183 471 CURVE SMOOTH",
"140 471 OFFCURVE",
"105 451 OFFCURVE",
"75 417 CURVE SMOOTH",
"71 413 OFFCURVE",
"69 407 OFFCURVE",
"69 402 CURVE SMOOTH",
"69 389 OFFCURVE",
"81 379 OFFCURVE",
"92 379 CURVE SMOOTH",
"99 379 OFFCURVE",
"105 382 OFFCURVE",
"109 387 CURVE SMOOTH",
"129 409 OFFCURVE",
"154 425 OFFCURVE",
"183 425 CURVE SMOOTH",
"219 425 OFFCURVE",
"245 402 OFFCURVE",
"245 371 CURVE SMOOTH",
"245 337 OFFCURVE",
"223 310 OFFCURVE",
"175 271 CURVE SMOOTH",
"120 226 OFFCURVE",
"87 179 OFFCURVE",
"87 125 CURVE SMOOTH",
"87 59 OFFCURVE",
"133 0 OFFCURVE",
"222 0 CURVE SMOOTH",
"288 0 OFFCURVE",
"338 27 OFFCURVE",
"381 86 CURVE",
"422 27 OFFCURVE",
"471 0 OFFCURVE"
);
},
{
closed = 1;
nodes = (
"406 -93 LINE SMOOTH",
"406 -81 OFFCURVE",
"395 -70 OFFCURVE",
"383 -70 CURVE SMOOTH",
"371 -70 OFFCURVE",
"360 -81 OFFCURVE",
"360 -93 CURVE SMOOTH",
"360 -196 LINE SMOOTH",
"360 -208 OFFCURVE",
"371 -219 OFFCURVE",
"383 -219 CURVE SMOOTH",
"395 -219 OFFCURVE",
"406 -208 OFFCURVE",
"406 -196 CURVE SMOOTH"
);
}
);
width = 721;
}
);
userData = {
com.typemytype.robofont.layerData = {
background = {
anchors = (
);
components = (
);
contours = (
);
lib = {
};
name = knBHA.base;
unicodes = (
);
width = 721;
};
};
};
},
{
glyphname = "ma-kannada";
lastChange = "2016-04-03 03:31:16 +0000";
layers = (
{
layerId = "EE99E773-27DB-4D1B-BC83-5C5BC0C316FA";
paths = (
{
closed = 1;
nodes = (
"795 0 CURVE SMOOTH",
"901 0 OFFCURVE",
"957 69 OFFCURVE",
"957 169 CURVE SMOOTH",
"957 255 OFFCURVE",
"909 357 OFFCURVE",
"845 427 CURVE SMOOTH",
"841 432 OFFCURVE",
"835 435 OFFCURVE",
"828 435 CURVE SMOOTH",
"815 435 OFFCURVE",
"805 425 OFFCURVE",
"805 412 CURVE SMOOTH",
"805 407 OFFCURVE",
"807 401 OFFCURVE",
"811 397 CURVE SMOOTH",
"867 335 OFFCURVE",
"911 245 OFFCURVE",
"911 169 CURVE SMOOTH",
"911 97 OFFCURVE",
"873 46 OFFCURVE",
"795 46 CURVE SMOOTH",
"739 46 OFFCURVE",
"698 71 OFFCURVE",
"659 127 CURVE",
"660 135 OFFCURVE",
"661 145 OFFCURVE",
"661 154 CURVE SMOOTH",
"661 234 OFFCURVE",
"614 330 OFFCURVE",
"502 411 CURVE",
"574 415 OFFCURVE",
"617 445 OFFCURVE",
"651 499 CURVE SMOOTH",
"653 503 OFFCURVE",
"654 507 OFFCURVE",
"654 511 CURVE SMOOTH",
"654 523 OFFCURVE",
"645 534 OFFCURVE",
"631 534 CURVE SMOOTH",
"623 534 OFFCURVE",
"616 530 OFFCURVE",
"611 523 CURVE SMOOTH",
"583 478 OFFCURVE",
"546 456 OFFCURVE",
"483 456 CURVE SMOOTH",
"118 456 LINE SMOOTH",
"106 456 OFFCURVE",
"95 445 OFFCURVE",
"95 433 CURVE SMOOTH",
"95 421 OFFCURVE",
"106 410 OFFCURVE",
"118 410 CURVE SMOOTH",
"418 410 LINE",
"553 334 OFFCURVE",
"615 236 OFFCURVE",
"615 154 CURVE SMOOTH",
"615 89 OFFCURVE",
"572 46 OFFCURVE",
"518 46 CURVE SMOOTH",
"458 46 OFFCURVE",
"421 80 OFFCURVE",
"385 136 CURVE SMOOTH",
"381 142 OFFCURVE",
"373 147 OFFCURVE",
"366 147 CURVE SMOOTH",
"361 147 LINE SMOOTH",
"353 147 OFFCURVE",
"345 142 OFFCURVE",
"341 135 CURVE SMOOTH",
"310 75 OFFCURVE",
"271 46 OFFCURVE",
"204 46 CURVE SMOOTH",
"152 46 OFFCURVE",
"116 76 OFFCURVE",
"116 118 CURVE SMOOTH",
"116 156 OFFCURVE",
"145 186 OFFCURVE",
"192 193 CURVE SMOOTH",
"204 195 OFFCURVE",
"212 205 OFFCURVE",
"212 216 CURVE SMOOTH",
"212 229 OFFCURVE",
"203 238 OFFCURVE",
"190 238 CURVE SMOOTH",
"126 238 OFFCURVE",
"70 186 OFFCURVE",
"70 118 CURVE SMOOTH",
"70 54 OFFCURVE",
"120 0 OFFCURVE",
"204 0 CURVE SMOOTH",
"278 0 OFFCURVE",
"326 27 OFFCURVE",
"365 86 CURVE",
"407 29 OFFCURVE",
"452 0 OFFCURVE",
"518 0 CURVE SMOOTH",
"571 0 OFFCURVE",
"618 27 OFFCURVE",
"642 74 CURVE",
"687 22 OFFCURVE",
"735 0 OFFCURVE"
);
}
);
width = 1024;
}
);
unicode = 0CAE;
userData = {
com.typemytype.robofont.layerData = {
background = {
anchors = (
);
components = (
);
contours = (
);
lib = {
};
name = knMA;
unicodes = (
);
width = 1024;
};
};
};
},
{
glyphname = "ma-kannada.base";
lastChange = "2016-04-03 03:41:16 +0000";
layers = (
{
layerId = "EE99E773-27DB-4D1B-BC83-5C5BC0C316FA";
paths = (
{
closed = 1;
nodes = (
"795 0 CURVE SMOOTH",
"901 0 OFFCURVE",
"957 69 OFFCURVE",
"957 169 CURVE SMOOTH",
"957 255 OFFCURVE",
"909 357 OFFCURVE",
"845 427 CURVE SMOOTH",
"843 430 OFFCURVE",
"840 432 OFFCURVE",
"837 433 CURVE",
"837 445 OFFCURVE",
"826 456 OFFCURVE",
"814 456 CURVE SMOOTH",
"751 456 LINE SMOOTH",
"739 456 OFFCURVE",
"728 445 OFFCURVE",
"728 433 CURVE SMOOTH",
"728 421 OFFCURVE",
"739 410 OFFCURVE",
"751 410 CURVE SMOOTH",
"797 410 LINE",
"804 404 OFFCURVE",
"809 399 OFFCURVE",
"811 397 CURVE SMOOTH",
"867 335 OFFCURVE",
"911 245 OFFCURVE",
"911 169 CURVE SMOOTH",
"911 97 OFFCURVE",
"873 46 OFFCURVE",
"795 46 CURVE SMOOTH",
"739 46 OFFCURVE",
"698 71 OFFCURVE",
"659 127 CURVE",
"660 135 OFFCURVE",
"661 145 OFFCURVE",
"661 154 CURVE SMOOTH",
"661 234 OFFCURVE",
"614 330 OFFCURVE",
"502 411 CURVE",
"574 415 OFFCURVE",
"617 445 OFFCURVE",
"651 499 CURVE SMOOTH",
"653 503 OFFCURVE",
"654 507 OFFCURVE",
"654 511 CURVE SMOOTH",
"654 523 OFFCURVE",
"645 534 OFFCURVE",
"631 534 CURVE SMOOTH",
"623 534 OFFCURVE",
"616 530 OFFCURVE",
"611 523 CURVE",
"584 478 OFFCURVE",
"546 456 OFFCURVE",
"483 456 CURVE SMOOTH",
"118 456 LINE SMOOTH",
"106 456 OFFCURVE",
"95 445 OFFCURVE",
"95 433 CURVE SMOOTH",
"95 421 OFFCURVE",
"106 410 OFFCURVE",
"118 410 CURVE SMOOTH",
"418 410 LINE",
"553 334 OFFCURVE",
"615 236 OFFCURVE",
"615 154 CURVE SMOOTH",
"615 89 OFFCURVE",
"572 46 OFFCURVE",
"518 46 CURVE SMOOTH",
"458 46 OFFCURVE",
"421 80 OFFCURVE",
"385 136 CURVE SMOOTH",
"381 142 OFFCURVE",
"373 147 OFFCURVE",
"366 147 CURVE SMOOTH",
"361 147 LINE SMOOTH",
"353 147 OFFCURVE",
"345 142 OFFCURVE",
"341 135 CURVE SMOOTH",
"310 75 OFFCURVE",
"271 46 OFFCURVE",
"204 46 CURVE SMOOTH",
"152 46 OFFCURVE",
"116 76 OFFCURVE",
"116 118 CURVE SMOOTH",
"116 156 OFFCURVE",
"145 186 OFFCURVE",
"192 193 CURVE SMOOTH",
"204 195 OFFCURVE",
"212 205 OFFCURVE",
"212 216 CURVE SMOOTH",
"212 228 OFFCURVE",
"205 238 OFFCURVE",
"190 238 CURVE SMOOTH",
"128 238 OFFCURVE",
"70 186 OFFCURVE",
"70 118 CURVE SMOOTH",
"70 54 OFFCURVE",
"120 0 OFFCURVE",
"204 0 CURVE SMOOTH",
"278 0 OFFCURVE",
"326 27 OFFCURVE",
"365 86 CURVE",
"407 29 OFFCURVE",
"452 0 OFFCURVE",
"518 0 CURVE SMOOTH",
"571 0 OFFCURVE",
"618 27 OFFCURVE",
"642 74 CURVE",
"687 22 OFFCURVE",
"735 0 OFFCURVE"
);
}
);
width = 988;
}
);
userData = {
com.typemytype.robofont.layerData = {
background = {
anchors = (
);
components = (
);
contours = (
);
lib = {
};
name = knMA.base;
unicodes = (
);
width = 988;
};
};
};
},
{
glyphname = "ma-kannada.base.e";
lastChange = "2016-04-03 03:41:20 +0000";
layers = (
{
layerId = "EE99E773-27DB-4D1B-BC83-5C5BC0C316FA";
paths = (
{
closed = 1;
nodes = (
"795 0 CURVE SMOOTH",
"901 0 OFFCURVE",
"957 69 OFFCURVE",
"957 169 CURVE SMOOTH",
"957 255 OFFCURVE",
"909 357 OFFCURVE",
"845 427 CURVE SMOOTH",
"843 430 OFFCURVE",
"840 432 OFFCURVE",
"837 433 CURVE",
"837 445 OFFCURVE",
"826 456 OFFCURVE",
"814 456 CURVE SMOOTH",
"751 456 LINE SMOOTH",
"739 456 OFFCURVE",
"728 445 OFFCURVE",
"728 433 CURVE SMOOTH",
"728 421 OFFCURVE",
"739 410 OFFCURVE",
"751 410 CURVE SMOOTH",
"797 410 LINE",
"804 404 OFFCURVE",
"809 399 OFFCURVE",
"811 397 CURVE SMOOTH",
"867 335 OFFCURVE",
"911 245 OFFCURVE",
"911 169 CURVE SMOOTH",
"911 97 OFFCURVE",
"873 46 OFFCURVE",
"795 46 CURVE SMOOTH",
"739 46 OFFCURVE",
"698 71 OFFCURVE",
"659 127 CURVE",
"660 135 OFFCURVE",
"661 145 OFFCURVE",
"661 154 CURVE SMOOTH",
"661 234 OFFCURVE",
"614 330 OFFCURVE",
"502 411 CURVE",
"574 415 OFFCURVE",
"617 445 OFFCURVE",
"651 499 CURVE SMOOTH",
"653 503 OFFCURVE",
"654 507 OFFCURVE",
"654 511 CURVE SMOOTH",
"654 523 OFFCURVE",
"645 534 OFFCURVE",
"631 534 CURVE SMOOTH",
"623 534 OFFCURVE",
"616 530 OFFCURVE",
"611 523 CURVE",
"584 478 OFFCURVE",
"546 456 OFFCURVE",
"483 456 CURVE SMOOTH",
"118 456 LINE SMOOTH",
"106 456 OFFCURVE",
"95 445 OFFCURVE",
"95 433 CURVE SMOOTH",
"95 421 OFFCURVE",
"106 410 OFFCURVE",
"118 410 CURVE SMOOTH",
"418 410 LINE",
"553 334 OFFCURVE",
"615 236 OFFCURVE",
"615 154 CURVE SMOOTH",
"615 89 OFFCURVE",
"572 46 OFFCURVE",
"518 46 CURVE SMOOTH",
"458 46 OFFCURVE",
"421 80 OFFCURVE",
"385 136 CURVE SMOOTH",
"381 142 OFFCURVE",
"373 147 OFFCURVE",
"366 147 CURVE SMOOTH",
"361 147 LINE SMOOTH",
"353 147 OFFCURVE",
"345 142 OFFCURVE",
"341 135 CURVE SMOOTH",
"310 75 OFFCURVE",
"271 46 OFFCURVE",
"204 46 CURVE SMOOTH",
"152 46 OFFCURVE",
"116 76 OFFCURVE",
"116 118 CURVE SMOOTH",
"116 156 OFFCURVE",
"145 186 OFFCURVE",
"192 193 CURVE SMOOTH",
"204 195 OFFCURVE",
"212 205 OFFCURVE",
"212 216 CURVE SMOOTH",
"212 228 OFFCURVE",
"205 238 OFFCURVE",
"190 238 CURVE SMOOTH",
"128 238 OFFCURVE",
"70 186 OFFCURVE",
"70 118 CURVE SMOOTH",
"70 54 OFFCURVE",
"120 0 OFFCURVE",
"204 0 CURVE SMOOTH",
"278 0 OFFCURVE",
"326 27 OFFCURVE",
"365 86 CURVE",
"407 29 OFFCURVE",
"452 0 OFFCURVE",
"518 0 CURVE SMOOTH",
"571 0 OFFCURVE",
"618 27 OFFCURVE",
"642 74 CURVE",
"687 22 OFFCURVE",
"735 0 OFFCURVE"
);
}
);
width = 988;
}
);
userData = {
com.typemytype.robofont.layerData = {
background = {
anchors = (
);
components = (
);
contours = (
);
lib = {
};
name = knMA.base;
unicodes = (
);
width = 988;
};
};
};
},
{
glyphname = knMA.base;
lastChange = "2016-04-03 03:41:12 +0000";
layers = (
{
layerId = "EE99E773-27DB-4D1B-BC83-5C5BC0C316FA";
paths = (
{
closed = 1;
nodes = (
"795 0 CURVE SMOOTH",
"901 0 OFFCURVE",
"957 69 OFFCURVE",
"957 169 CURVE SMOOTH",
"957 255 OFFCURVE",
"909 357 OFFCURVE",
"845 427 CURVE SMOOTH",
"843 430 OFFCURVE",
"840 432 OFFCURVE",
"837 433 CURVE",
"837 445 OFFCURVE",
"826 456 OFFCURVE",
"814 456 CURVE SMOOTH",
"751 456 LINE SMOOTH",
"739 456 OFFCURVE",
"728 445 OFFCURVE",
"728 433 CURVE SMOOTH",
"728 421 OFFCURVE",
"739 410 OFFCURVE",
"751 410 CURVE SMOOTH",
"797 410 LINE",
"804 404 OFFCURVE",
"809 399 OFFCURVE",
"811 397 CURVE SMOOTH",
"867 335 OFFCURVE",
"911 245 OFFCURVE",
"911 169 CURVE SMOOTH",
"911 97 OFFCURVE",
"873 46 OFFCURVE",
"795 46 CURVE SMOOTH",
"739 46 OFFCURVE",
"698 71 OFFCURVE",
"659 127 CURVE",
"660 135 OFFCURVE",
"661 145 OFFCURVE",
"661 154 CURVE SMOOTH",
"661 234 OFFCURVE",
"614 330 OFFCURVE",
"502 411 CURVE",
"574 415 OFFCURVE",
"617 445 OFFCURVE",
"651 499 CURVE SMOOTH",
"653 503 OFFCURVE",
"654 507 OFFCURVE",
"654 511 CURVE SMOOTH",
"654 523 OFFCURVE",
"645 534 OFFCURVE",
"631 534 CURVE SMOOTH",
"623 534 OFFCURVE",
"616 530 OFFCURVE",
"611 523 CURVE",
"584 478 OFFCURVE",
"546 456 OFFCURVE",
"483 456 CURVE SMOOTH",
"118 456 LINE SMOOTH",
"106 456 OFFCURVE",
"95 445 OFFCURVE",
"95 433 CURVE SMOOTH",
"95 421 OFFCURVE",
"106 410 OFFCURVE",
"118 410 CURVE SMOOTH",
"418 410 LINE",
"553 334 OFFCURVE",
"615 236 OFFCURVE",
"615 154 CURVE SMOOTH",
"615 89 OFFCURVE",
"572 46 OFFCURVE",
"518 46 CURVE SMOOTH",
"458 46 OFFCURVE",
"421 80 OFFCURVE",
"385 136 CURVE SMOOTH",
"381 142 OFFCURVE",
"373 147 OFFCURVE",
"366 147 CURVE SMOOTH",
"361 147 LINE SMOOTH",
"353 147 OFFCURVE",
"345 142 OFFCURVE",
"341 135 CURVE SMOOTH",
"310 75 OFFCURVE",
"271 46 OFFCURVE",
"204 46 CURVE SMOOTH",
"152 46 OFFCURVE",
"116 76 OFFCURVE",
"116 118 CURVE SMOOTH",
"116 156 OFFCURVE",
"145 186 OFFCURVE",
"192 193 CURVE SMOOTH",
"204 195 OFFCURVE",
"212 205 OFFCURVE",
"212 216 CURVE SMOOTH",
"212 228 OFFCURVE",
"205 238 OFFCURVE",
"190 238 CURVE SMOOTH",
"128 238 OFFCURVE",
"70 186 OFFCURVE",
"70 118 CURVE SMOOTH",
"70 54 OFFCURVE",
"120 0 OFFCURVE",
"204 0 CURVE SMOOTH",
"278 0 OFFCURVE",
"326 27 OFFCURVE",
"365 86 CURVE",
"407 29 OFFCURVE",
"452 0 OFFCURVE",
"518 0 CURVE SMOOTH",
"571 0 OFFCURVE",
"618 27 OFFCURVE",
"642 74 CURVE",
"687 22 OFFCURVE",
"735 0 OFFCURVE"
);
}
);
width = 988;
}
);
userData = {
com.typemytype.robofont.layerData = {
background = {
anchors = (
);
components = (
);
contours = (
);
lib = {
};
name = knMA.base;
unicodes = (
);
width = 988;
};
};
};
},
{
glyphname = "ya-kannada";
lastChange = "2016-04-03 03:31:16 +0000";
layers = (
{
layerId = "EE99E773-27DB-4D1B-BC83-5C5BC0C316FA";
paths = (
{
closed = 1;
nodes = (
"113 223 CURVE SMOOTH",
"113 317 OFFCURVE",
"193 410 OFFCURVE",
"301 410 CURVE SMOOTH",
"411 410 OFFCURVE",
"489 315 OFFCURVE",
"489 223 CURVE SMOOTH",
"489 121 OFFCURVE",
"415 42 OFFCURVE",
"301 42 CURVE SMOOTH",
"185 42 OFFCURVE",
"113 119 OFFCURVE"
);
},
{
closed = 1;
nodes = (
"680 0 CURVE SMOOTH",
"753 0 OFFCURVE",
"802 33 OFFCURVE",
"826 85 CURVE",
"881 22 OFFCURVE",
"933 0 OFFCURVE",
"991 0 CURVE SMOOTH",
"1097 0 OFFCURVE",
"1153 69 OFFCURVE",
"1153 169 CURVE SMOOTH",
"1153 255 OFFCURVE",
"1105 357 OFFCURVE",
"1041 427 CURVE SMOOTH",
"1037 432 OFFCURVE",
"1031 435 OFFCURVE",
"1024 435 CURVE SMOOTH",
"1012 435 OFFCURVE",
"1001 425 OFFCURVE",
"1001 412 CURVE SMOOTH",
"1001 407 OFFCURVE",
"1003 401 OFFCURVE",
"1007 397 CURVE SMOOTH",
"1063 335 OFFCURVE",
"1107 245 OFFCURVE",
"1107 169 CURVE SMOOTH",
"1107 97 OFFCURVE",
"1069 46 OFFCURVE",
"991 46 CURVE SMOOTH",
"937 46 OFFCURVE",
"892 72 OFFCURVE",
"840 139 CURVE",
"841 149 OFFCURVE",
"842 159 OFFCURVE",
"842 169 CURVE SMOOTH",
"842 245 OFFCURVE",
"810 331 OFFCURVE",
"744 413 CURVE",
"802 422 OFFCURVE",
"839 451 OFFCURVE",
"869 499 CURVE SMOOTH",
"871 503 OFFCURVE",
"872 507 OFFCURVE",
"872 511 CURVE SMOOTH",
"872 523 OFFCURVE",
"863 534 OFFCURVE",
"849 534 CURVE SMOOTH",
"841 534 OFFCURVE",
"834 530 OFFCURVE",
"829 523 CURVE SMOOTH",
"801 478 OFFCURVE",
"764 456 OFFCURVE",
"701 456 CURVE SMOOTH",
"589 456 LINE SMOOTH",
"577 456 OFFCURVE",
"566 445 OFFCURVE",
"566 433 CURVE SMOOTH",
"566 421 OFFCURVE",
"577 410 OFFCURVE",
"589 410 CURVE SMOOTH",
"687 410 LINE",
"759 329 OFFCURVE",
"796 243 OFFCURVE",
"796 169 CURVE SMOOTH",
"796 97 OFFCURVE",
"758 46 OFFCURVE",
"680 46 CURVE SMOOTH",
"627 46 OFFCURVE",
"575 78 OFFCURVE",
"523 147 CURVE",
"531 170 OFFCURVE",
"535 196 OFFCURVE",
"535 223 CURVE SMOOTH",
"535 337 OFFCURVE",
"437 456 OFFCURVE",
"301 456 CURVE SMOOTH",
"167 456 OFFCURVE",
"67 339 OFFCURVE",
"67 223 CURVE SMOOTH",
"67 93 OFFCURVE",
"155 -4 OFFCURVE",
"301 -4 CURVE SMOOTH",
"393 -4 OFFCURVE",
"463 37 OFFCURVE",
"502 99 CURVE",
"560 28 OFFCURVE",
"620 0 OFFCURVE"
);
}
);
width = 1220;
}
);
unicode = 0CAF;
userData = {
com.typemytype.robofont.layerData = {
background = {
anchors = (
);
components = (
);
contours = (
);
lib = {
};
name = knYA;
unicodes = (
);
width = 1220;
};
};
};
},
{
glyphname = "ya-kannada.base";
lastChange = "2016-04-03 03:41:38 +0000";
layers = (
{
layerId = "EE99E773-27DB-4D1B-BC83-5C5BC0C316FA";
paths = (
{
closed = 1;
nodes = (
"108 223 CURVE SMOOTH",
"108 317 OFFCURVE",
"188 410 OFFCURVE",
"296 410 CURVE SMOOTH",
"406 410 OFFCURVE",
"484 315 OFFCURVE",
"484 223 CURVE SMOOTH",
"484 121 OFFCURVE",
"410 42 OFFCURVE",
"296 42 CURVE SMOOTH",
"180 42 OFFCURVE",
"108 119 OFFCURVE"
);
},
{
closed = 1;
nodes = (
"675 0 CURVE SMOOTH",
"748 0 OFFCURVE",
"797 33 OFFCURVE",
"821 85 CURVE",
"876 22 OFFCURVE",
"928 0 OFFCURVE",
"986 0 CURVE SMOOTH",
"1092 0 OFFCURVE",
"1148 69 OFFCURVE",
"1148 169 CURVE SMOOTH",
"1148 255 OFFCURVE",
"1100 357 OFFCURVE",
"1036 427 CURVE SMOOTH",
"1034 429 OFFCURVE",
"1032 431 OFFCURVE",
"1029 433 CURVE",
"1029 445 OFFCURVE",
"1018 456 OFFCURVE",
"1006 456 CURVE SMOOTH",
"939 456 LINE SMOOTH",
"927 456 OFFCURVE",
"916 445 OFFCURVE",
"916 433 CURVE SMOOTH",
"916 421 OFFCURVE",
"927 410 OFFCURVE",
"939 410 CURVE SMOOTH",
"986 410 LINE",
"993 404 OFFCURVE",
"1000 399 OFFCURVE",
"1002 397 CURVE SMOOTH",
"1058 335 OFFCURVE",
"1102 245 OFFCURVE",
"1102 169 CURVE SMOOTH",
"1102 97 OFFCURVE",
"1064 46 OFFCURVE",
"986 46 CURVE SMOOTH",
"932 46 OFFCURVE",
"887 72 OFFCURVE",
"835 139 CURVE",
"836 149 OFFCURVE",
"837 159 OFFCURVE",
"837 169 CURVE SMOOTH",
"837 245 OFFCURVE",
"805 331 OFFCURVE",
"739 413 CURVE",
"797 422 OFFCURVE",
"834 451 OFFCURVE",
"864 499 CURVE SMOOTH",
"866 503 OFFCURVE",
"867 507 OFFCURVE",
"867 511 CURVE SMOOTH",
"867 523 OFFCURVE",
"858 534 OFFCURVE",
"844 534 CURVE SMOOTH",
"836 534 OFFCURVE",
"829 530 OFFCURVE",
"824 523 CURVE SMOOTH",
"796 478 OFFCURVE",
"759 456 OFFCURVE",
"696 456 CURVE SMOOTH",
"584 456 LINE SMOOTH",
"572 456 OFFCURVE",
"561 445 OFFCURVE",
"561 433 CURVE SMOOTH",
"561 421 OFFCURVE",
"572 410 OFFCURVE",
"584 410 CURVE SMOOTH",
"682 410 LINE",
"754 329 OFFCURVE",
"791 243 OFFCURVE",
"791 169 CURVE SMOOTH",
"791 97 OFFCURVE",
"753 46 OFFCURVE",
"675 46 CURVE SMOOTH",
"622 46 OFFCURVE",
"570 78 OFFCURVE",
"518 147 CURVE",
"526 170 OFFCURVE",
"530 196 OFFCURVE",
"530 223 CURVE SMOOTH",
"530 337 OFFCURVE",
"432 456 OFFCURVE",
"296 456 CURVE SMOOTH",
"162 456 OFFCURVE",
"62 339 OFFCURVE",
"62 223 CURVE SMOOTH",
"62 93 OFFCURVE",
"150 -4 OFFCURVE",
"296 -4 CURVE SMOOTH",
"388 -4 OFFCURVE",
"458 37 OFFCURVE",
"497 99 CURVE",
"555 28 OFFCURVE",
"615 0 OFFCURVE"
);
}
);
width = 1184;
}
);
userData = {
com.typemytype.robofont.layerData = {
background = {
anchors = (
);
components = (
);
contours = (
);
lib = {
};
name = knYA.base;
unicodes = (
);
width = 1184;
};
};
};
},
{
glyphname = "ra-kannada";
lastChange = "2016-04-03 03:31:16 +0000";
layers = (
{
layerId = "EE99E773-27DB-4D1B-BC83-5C5BC0C316FA";
paths = (
{
closed = 1;
nodes = (
"337 -4 CURVE SMOOTH",
"483 -4 OFFCURVE",
"572 96 OFFCURVE",
"572 223 CURVE SMOOTH",
"572 297 OFFCURVE",
"537 367 OFFCURVE",
"479 410 CURVE",
"552 414 OFFCURVE",
"596 444 OFFCURVE",
"630 499 CURVE SMOOTH",
"632 503 OFFCURVE",
"633 507 OFFCURVE",
"633 511 CURVE SMOOTH",
"633 524 OFFCURVE",
"623 534 OFFCURVE",
"610 534 CURVE SMOOTH",
"602 534 OFFCURVE",
"595 530 OFFCURVE",
"590 523 CURVE SMOOTH",
"562 478 OFFCURVE",
"525 456 OFFCURVE",
"462 456 CURVE SMOOTH",
"94 456 LINE SMOOTH",
"82 456 OFFCURVE",
"71 445 OFFCURVE",
"71 433 CURVE SMOOTH",
"71 421 OFFCURVE",
"82 410 OFFCURVE",
"94 410 CURVE SMOOTH",
"197 410 LINE",
"138 367 OFFCURVE",
"100 297 OFFCURVE",
"100 223 CURVE SMOOTH",
"100 93 OFFCURVE",
"193 -4 OFFCURVE"
);
},
{
closed = 1;
nodes = (
"146 223 CURVE SMOOTH",
"146 322 OFFCURVE",
"230 410 OFFCURVE",
"339 410 CURVE SMOOTH",
"450 410 OFFCURVE",
"526 320 OFFCURVE",
"526 223 CURVE SMOOTH",
"526 120 OFFCURVE",
"453 42 OFFCURVE",
"337 42 CURVE SMOOTH",
"223 42 OFFCURVE",
"146 119 OFFCURVE"
);
}
);
width = 663;
}
);
unicode = 0CB0;
userData = {
com.typemytype.robofont.layerData = {
background = {
anchors = (
);
components = (
);
contours = (
);
lib = {
};
name = knRA;
unicodes = (
);
width = 663;
};
};
};
},
{
glyphname = "ra-kannada.base";
lastChange = "2016-04-03 03:41:38 +0000";
layers = (
{
layerId = "EE99E773-27DB-4D1B-BC83-5C5BC0C316FA";
paths = (
{
closed = 1;
nodes = (
"338 -4 CURVE SMOOTH",
"483 -4 OFFCURVE",
"572 95 OFFCURVE",
"572 223 CURVE SMOOTH",
"572 299 OFFCURVE",
"535 371 OFFCURVE",
"474 414 CURVE",
"481 418 OFFCURVE",
"485 425 OFFCURVE",
"485 433 CURVE SMOOTH",
"485 445 OFFCURVE",
"474 456 OFFCURVE",
"462 456 CURVE SMOOTH",
"94 456 LINE SMOOTH",
"82 456 OFFCURVE",
"71 445 OFFCURVE",
"71 433 CURVE SMOOTH",
"71 421 OFFCURVE",
"82 410 OFFCURVE",
"94 410 CURVE SMOOTH",
"198 410 LINE",
"138 367 OFFCURVE",
"101 297 OFFCURVE",
"101 223 CURVE SMOOTH",
"101 93 OFFCURVE",
"194 -4 OFFCURVE"
);
},
{
closed = 1;
nodes = (
"147 223 CURVE SMOOTH",
"147 322 OFFCURVE",
"230 410 OFFCURVE",
"340 410 CURVE SMOOTH",
"450 410 OFFCURVE",
"526 320 OFFCURVE",
"526 223 CURVE SMOOTH",
"526 121 OFFCURVE",
"453 42 OFFCURVE",
"338 42 CURVE SMOOTH",
"224 42 OFFCURVE",
"147 119 OFFCURVE"
);
}
);
width = 648;
}
);
userData = {
com.typemytype.robofont.layerData = {
background = {
anchors = (
);
components = (
);
contours = (
);
lib = {
};
name = knRA.base;
unicodes = (
);
width = 648;
};
};
};
},
{
glyphname = "rra-kannada";
lastChange = "2016-04-03 03:32:46 +0000";
layers = (
{
layerId = "EE99E773-27DB-4D1B-BC83-5C5BC0C316FA";
paths = (
{
closed = 1;
nodes = (
"530 0 CURVE SMOOTH",
"625 0 OFFCURVE",
"700 91 OFFCURVE",
"700 225 CURVE SMOOTH",
"700 370 OFFCURVE",
"624 458 OFFCURVE",
"547 458 CURVE SMOOTH",
"477 458 OFFCURVE",
"436 413 OFFCURVE",
"436 351 CURVE SMOOTH",
"436 328 OFFCURVE",
"443 308 OFFCURVE",
"454 292 CURVE",
"317 292 LINE",
"328 308 OFFCURVE",
"335 328 OFFCURVE",
"335 351 CURVE SMOOTH",
"335 413 OFFCURVE",
"294 458 OFFCURVE",
"224 458 CURVE SMOOTH",
"147 458 OFFCURVE",
"71 370 OFFCURVE",
"71 225 CURVE SMOOTH",
"71 91 OFFCURVE",
"146 0 OFFCURVE",
"241 0 CURVE SMOOTH",
"304 0 OFFCURVE",
"348 25 OFFCURVE",
"385 83 CURVE",
"423 25 OFFCURVE",
"467 0 OFFCURVE"
);
},
{
closed = 1;
nodes = (
"547 292 CURVE SMOOTH",
"512 292 OFFCURVE",
"482 314 OFFCURVE",
"482 351 CURVE SMOOTH",
"482 387 OFFCURVE",
"507 412 OFFCURVE",
"547 412 CURVE SMOOTH",
"582 412 OFFCURVE",
"613 383 OFFCURVE",
"632 339 CURVE",
"610 312 OFFCURVE",
"582 292 OFFCURVE"
);
},
{
closed = 1;
nodes = (
"224 292 CURVE SMOOTH",
"190 292 OFFCURVE",
"162 311 OFFCURVE",
"139 339 CURVE",
"158 383 OFFCURVE",
"189 412 OFFCURVE",
"224 412 CURVE SMOOTH",
"264 412 OFFCURVE",
"289 387 OFFCURVE",
"289 351 CURVE SMOOTH",
"289 314 OFFCURVE",
"259 292 OFFCURVE"
);
},
{
closed = 1;
nodes = (
"530 46 CURVE SMOOTH",
"473 46 OFFCURVE",
"439 76 OFFCURVE",
"408 135 CURVE SMOOTH",
"404 142 OFFCURVE",
"396 147 OFFCURVE",
"388 147 CURVE SMOOTH",
"383 147 LINE SMOOTH",
"375 147 OFFCURVE",
"367 142 OFFCURVE",
"363 135 CURVE SMOOTH",
"332 76 OFFCURVE",
"298 46 OFFCURVE",
"241 46 CURVE SMOOTH",
"166 46 OFFCURVE",
"117 127 OFFCURVE",
"117 225 CURVE SMOOTH",
"117 248 OFFCURVE",
"119 269 OFFCURVE",
"124 289 CURVE",
"152 262 OFFCURVE",
"185 246 OFFCURVE",
"224 246 CURVE SMOOTH",
"547 246 LINE SMOOTH",
"586 246 OFFCURVE",
"619 262 OFFCURVE",
"647 289 CURVE",
"652 269 OFFCURVE",
"654 248 OFFCURVE",
"654 225 CURVE SMOOTH",
"654 127 OFFCURVE",
"605 46 OFFCURVE"
);
}
);
width = 767;
}
);
unicode = 0CB1;
userData = {
com.typemytype.robofont.layerData = {
background = {
anchors = (
);
components = (
);
contours = (
);
lib = {
};
name = knRRA;
unicodes = (
);
width = 767;
};
};
};
},
{
glyphname = "la-kannada.base";
lastChange = "2016-04-03 03:41:38 +0000";
layers = (
{
layerId = "EE99E773-27DB-4D1B-BC83-5C5BC0C316FA";
paths = (
{
closed = 1;
nodes = (
"224 299 CURVE SMOOTH",
"191 299 OFFCURVE",
"159 317 OFFCURVE",
"132 341 CURVE",
"150 389 OFFCURVE",
"182 425 OFFCURVE",
"222 425 CURVE SMOOTH",
"265 425 OFFCURVE",
"291 396 OFFCURVE",
"291 359 CURVE SMOOTH",
"291 322 OFFCURVE",
"261 299 OFFCURVE"
);
},
{
closed = 1;
nodes = (
"650 245 CURVE SMOOTH",
"650 316 OFFCURVE",
"615 397 OFFCURVE",
"566 449 CURVE SMOOTH",
"561 454 OFFCURVE",
"555 456 OFFCURVE",
"549 456 CURVE SMOOTH",
"451 456 LINE SMOOTH",
"439 456 OFFCURVE",
"428 445 OFFCURVE",
"428 433 CURVE SMOOTH",
"428 421 OFFCURVE",
"439 410 OFFCURVE",
"451 410 CURVE SMOOTH",
"538 410 LINE",
"576 366 OFFCURVE",
"604 303 OFFCURVE",
"604 245 CURVE SMOOTH",
"604 147 OFFCURVE",
"538 46 OFFCURVE",
"369 46 CURVE SMOOTH",
"207 46 OFFCURVE",
"116 136 OFFCURVE",
"116 249 CURVE SMOOTH",
"116 263 OFFCURVE",
"117 278 OFFCURVE",
"120 292 CURVE",
"151 268 OFFCURVE",
"187 253 OFFCURVE",
"224 253 CURVE SMOOTH",
"289 253 OFFCURVE",
"337 296 OFFCURVE",
"337 359 CURVE SMOOTH",
"337 420 OFFCURVE",
"295 471 OFFCURVE",
"222 471 CURVE SMOOTH",
"142 471 OFFCURVE",
"70 370 OFFCURVE",
"70 249 CURVE SMOOTH",
"70 116 OFFCURVE",
"171 0 OFFCURVE",
"369 0 CURVE SMOOTH",
"576 0 OFFCURVE",
"650 127 OFFCURVE"
);
}
);
width = 695;
}
);
userData = {
com.typemytype.robofont.layerData = {
background = {
anchors = (
);
components = (
);
contours = (
);
lib = {
};
name = knLA.base;
unicodes = (
);
width = 695;
};
};
};
},
{
glyphname = "lla-kannada";
lastChange = "2016-04-03 03:33:18 +0000";
layers = (
{
layerId = "EE99E773-27DB-4D1B-BC83-5C5BC0C316FA";
paths = (
{
closed = 1;
nodes = (
"192 317 CURVE SMOOTH",
"163 317 OFFCURVE",
"136 323 OFFCURVE",
"112 333 CURVE",
"112 379 OFFCURVE",
"148 425 OFFCURVE",
"198 425 CURVE SMOOTH",
"237 425 OFFCURVE",
"263 402 OFFCURVE",
"263 371 CURVE SMOOTH",
"263 338 OFFCURVE",
"234 317 OFFCURVE"
);
},
{
closed = 1;
nodes = (
"485 84 CURVE SMOOTH",
"485 107 OFFCURVE",
"479 130 OFFCURVE",
"462 149 CURVE",
"524 160 OFFCURVE",
"567 181 OFFCURVE",
"593 206 CURVE SMOOTH",
"621 232 OFFCURVE",
"636 268 OFFCURVE",
"636 304 CURVE SMOOTH",
"636 338 OFFCURVE",
"620 382 OFFCURVE",
"587 416 CURVE",
"637 427 OFFCURVE",
"670 455 OFFCURVE",
"698 499 CURVE SMOOTH",
"700 503 OFFCURVE",
"701 507 OFFCURVE",
"701 511 CURVE SMOOTH",
"701 523 OFFCURVE",
"692 534 OFFCURVE",
"678 534 CURVE SMOOTH",
"670 534 OFFCURVE",
"663 530 OFFCURVE",
"658 523 CURVE SMOOTH",
"630 478 OFFCURVE",
"593 456 OFFCURVE",
"530 456 CURVE SMOOTH",
"428 456 LINE SMOOTH",
"416 456 OFFCURVE",
"405 445 OFFCURVE",
"405 433 CURVE SMOOTH",
"405 421 OFFCURVE",
"416 410 OFFCURVE",
"428 410 CURVE SMOOTH",
"516 410 LINE",
"565 387 OFFCURVE",
"590 339 OFFCURVE",
"590 304 CURVE SMOOTH",
"590 280 OFFCURVE",
"579 256 OFFCURVE",
"561 238 CURVE SMOOTH",
"529 207 OFFCURVE",
"462 187 OFFCURVE",
"360 187 CURVE SMOOTH",
"227 187 OFFCURVE",
"175 207 OFFCURVE",
"137 245 CURVE SMOOTH",
"127 255 OFFCURVE",
"121 268 OFFCURVE",
"118 282 CURVE",
"141 275 OFFCURVE",
"165 271 OFFCURVE",
"192 271 CURVE SMOOTH",
"270 271 OFFCURVE",
"309 316 OFFCURVE",
"309 371 CURVE SMOOTH",
"309 424 OFFCURVE",
"269 471 OFFCURVE",
"198 471 CURVE SMOOTH",
"124 471 OFFCURVE",
"66 407 OFFCURVE",
"66 329 CURVE SMOOTH",
"66 286 OFFCURVE",
"78 239 OFFCURVE",
"105 213 CURVE SMOOTH",
"134 183 OFFCURVE",
"171 160 OFFCURVE",
"244 149 CURVE",
"227 130 OFFCURVE",
"220 107 OFFCURVE",
"220 85 CURVE SMOOTH",
"220 38 OFFCURVE",
"257 -16 OFFCURVE",
"352 -16 CURVE SMOOTH",
"451 -16 OFFCURVE",
"485 38 OFFCURVE"
);
},
{
closed = 1;
nodes = (
"352 139 CURVE SMOOTH",
"356 139 LINE SMOOTH",
"412 139 OFFCURVE",
"439 115 OFFCURVE",
"439 84 CURVE SMOOTH",
"439 54 OFFCURVE",
"405 30 OFFCURVE",
"352 30 CURVE SMOOTH",
"301 30 OFFCURVE",
"266 54 OFFCURVE",
"266 85 CURVE SMOOTH",
"266 116 OFFCURVE",
"298 138 OFFCURVE"
);
}
);
width = 730;
}
);
unicode = 0CB3;
userData = {
com.typemytype.robofont.layerData = {
background = {
anchors = (
);
components = (
);
contours = (
);
lib = {
};
name = knLLA;
unicodes = (
);
width = 730;
};
};
};
},
{
glyphname = "lla-kannada.base";
lastChange = "2016-04-03 03:41:46 +0000";
layers = (
{
layerId = "EE99E773-27DB-4D1B-BC83-5C5BC0C316FA";
paths = (
{
closed = 1;
nodes = (
"192 317 CURVE SMOOTH",
"163 317 OFFCURVE",
"136 323 OFFCURVE",
"112 333 CURVE",
"112 379 OFFCURVE",
"148 425 OFFCURVE",
"198 425 CURVE SMOOTH",
"237 425 OFFCURVE",
"263 402 OFFCURVE",
"263 371 CURVE SMOOTH",
"263 338 OFFCURVE",
"234 317 OFFCURVE"
);
},
{
closed = 1;
nodes = (
"485 84 CURVE SMOOTH",
"485 107 OFFCURVE",
"479 130 OFFCURVE",
"462 149 CURVE",
"524 160 OFFCURVE",
"567 181 OFFCURVE",
"593 206 CURVE SMOOTH",
"621 232 OFFCURVE",
"636 268 OFFCURVE",
"636 304 CURVE SMOOTH",
"636 349 OFFCURVE",
"608 411 OFFCURVE",
"549 444 CURVE",
"545 451 OFFCURVE",
"538 456 OFFCURVE",
"530 456 CURVE SMOOTH",
"428 456 LINE SMOOTH",
"416 456 OFFCURVE",
"405 445 OFFCURVE",
"405 433 CURVE SMOOTH",
"405 421 OFFCURVE",
"416 410 OFFCURVE",
"428 410 CURVE SMOOTH",
"516 410 LINE",
"565 387 OFFCURVE",
"590 339 OFFCURVE",
"590 304 CURVE SMOOTH",
"590 280 OFFCURVE",
"579 256 OFFCURVE",
"561 238 CURVE SMOOTH",
"529 207 OFFCURVE",
"462 187 OFFCURVE",
"360 187 CURVE SMOOTH",
"227 187 OFFCURVE",
"175 207 OFFCURVE",
"137 245 CURVE SMOOTH",
"127 255 OFFCURVE",
"121 268 OFFCURVE",
"118 282 CURVE",
"141 275 OFFCURVE",
"165 271 OFFCURVE",
"192 271 CURVE SMOOTH",
"270 271 OFFCURVE",
"309 316 OFFCURVE",
"309 371 CURVE SMOOTH",
"309 424 OFFCURVE",
"269 471 OFFCURVE",
"198 471 CURVE SMOOTH",
"124 471 OFFCURVE",
"66 407 OFFCURVE",
"66 329 CURVE SMOOTH",
"66 286 OFFCURVE",
"78 239 OFFCURVE",
"105 213 CURVE SMOOTH",
"134 183 OFFCURVE",
"171 160 OFFCURVE",
"244 149 CURVE",
"227 130 OFFCURVE",
"220 107 OFFCURVE",
"220 85 CURVE SMOOTH",
"220 38 OFFCURVE",
"257 -16 OFFCURVE",
"352 -16 CURVE SMOOTH",
"451 -16 OFFCURVE",
"485 38 OFFCURVE"
);
},
{
closed = 1;
nodes = (
"352 139 CURVE SMOOTH",
"356 139 LINE SMOOTH",
"412 139 OFFCURVE",
"439 115 OFFCURVE",
"439 84 CURVE SMOOTH",
"439 54 OFFCURVE",
"405 30 OFFCURVE",
"352 30 CURVE SMOOTH",
"301 30 OFFCURVE",
"266 54 OFFCURVE",
"266 85 CURVE SMOOTH",
"266 116 OFFCURVE",
"298 138 OFFCURVE"
);
}
);
width = 715;
}
);
userData = {
com.typemytype.robofont.layerData = {
background = {
anchors = (
);
components = (
);
contours = (
);
lib = {
};
name = knLLA.base;
unicodes = (
);
width = 715;
};
};
};
},
{
glyphname = "va-kannada";
lastChange = "2016-04-03 03:33:41 +0000";
layers = (
{
layerId = "EE99E773-27DB-4D1B-BC83-5C5BC0C316FA";
paths = (
{
closed = 1;
nodes = (
"518 0 CURVE SMOOTH",
"596 0 OFFCURVE",
"661 59 OFFCURVE",
"661 154 CURVE SMOOTH",
"661 234 OFFCURVE",
"614 330 OFFCURVE",
"502 411 CURVE",
"574 415 OFFCURVE",
"617 445 OFFCURVE",
"651 499 CURVE SMOOTH",
"653 503 OFFCURVE",
"654 507 OFFCURVE",
"654 511 CURVE SMOOTH",
"654 524 OFFCURVE",
"645 534 OFFCURVE",
"631 534 CURVE SMOOTH",
"623 534 OFFCURVE",
"616 530 OFFCURVE",
"611 523 CURVE SMOOTH",
"583 478 OFFCURVE",
"546 456 OFFCURVE",
"483 456 CURVE SMOOTH",
"118 456 LINE SMOOTH",
"106 456 OFFCURVE",
"95 445 OFFCURVE",
"95 433 CURVE SMOOTH",
"95 421 OFFCURVE",
"106 410 OFFCURVE",
"118 410 CURVE SMOOTH",
"418 410 LINE",
"553 334 OFFCURVE",
"615 236 OFFCURVE",
"615 154 CURVE SMOOTH",
"615 89 OFFCURVE",
"572 46 OFFCURVE",
"518 46 CURVE SMOOTH",
"458 46 OFFCURVE",
"421 80 OFFCURVE",
"385 136 CURVE SMOOTH",
"381 142 OFFCURVE",
"373 147 OFFCURVE",
"366 147 CURVE SMOOTH",
"361 147 LINE SMOOTH",
"353 147 OFFCURVE",
"345 142 OFFCURVE",
"341 135 CURVE SMOOTH",
"310 75 OFFCURVE",
"271 46 OFFCURVE",
"204 46 CURVE SMOOTH",
"152 46 OFFCURVE",
"116 76 OFFCURVE",
"116 118 CURVE SMOOTH",
"116 156 OFFCURVE",
"145 186 OFFCURVE",
"192 193 CURVE SMOOTH",
"204 195 OFFCURVE",
"212 205 OFFCURVE",
"212 216 CURVE SMOOTH",
"212 228 OFFCURVE",
"204 238 OFFCURVE",
"191 238 CURVE SMOOTH",
"130 238 OFFCURVE",
"70 189 OFFCURVE",
"70 118 CURVE SMOOTH",
"70 54 OFFCURVE",
"120 0 OFFCURVE",
"204 0 CURVE SMOOTH",
"278 0 OFFCURVE",
"326 27 OFFCURVE",
"365 86 CURVE",
"407 29 OFFCURVE",
"452 0 OFFCURVE"
);
}
);
width = 726;
}
);
unicode = 0CB5;
userData = {
com.typemytype.robofont.layerData = {
background = {
anchors = (
);
components = (
);
contours = (
);
lib = {
};
name = knVA;
unicodes = (
);
width = 726;
};
};
};
},
{
glyphname = "va-kannada.base";
lastChange = "2016-04-03 03:42:01 +0000";
layers = (
{
layerId = "EE99E773-27DB-4D1B-BC83-5C5BC0C316FA";
paths = (
{
closed = 1;
nodes = (
"518 0 CURVE SMOOTH",
"596 0 OFFCURVE",
"661 59 OFFCURVE",
"661 154 CURVE SMOOTH",
"661 235 OFFCURVE",
"614 330 OFFCURVE",
"501 412 CURVE",
"509 415 OFFCURVE",
"516 424 OFFCURVE",
"516 433 CURVE SMOOTH",
"516 445 OFFCURVE",
"505 456 OFFCURVE",
"493 456 CURVE SMOOTH",
"118 456 LINE SMOOTH",
"106 456 OFFCURVE",
"95 445 OFFCURVE",
"95 433 CURVE SMOOTH",
"95 421 OFFCURVE",
"106 410 OFFCURVE",
"118 410 CURVE SMOOTH",
"418 410 LINE",
"553 334 OFFCURVE",
"615 236 OFFCURVE",
"615 154 CURVE SMOOTH",
"615 89 OFFCURVE",
"572 46 OFFCURVE",
"518 46 CURVE SMOOTH",
"458 46 OFFCURVE",
"421 80 OFFCURVE",
"385 136 CURVE SMOOTH",
"381 142 OFFCURVE",
"373 147 OFFCURVE",
"366 147 CURVE SMOOTH",
"361 147 LINE SMOOTH",
"353 147 OFFCURVE",
"345 142 OFFCURVE",
"341 135 CURVE SMOOTH",
"310 75 OFFCURVE",
"271 46 OFFCURVE",
"204 46 CURVE SMOOTH",
"152 46 OFFCURVE",
"116 76 OFFCURVE",
"116 118 CURVE SMOOTH",
"116 156 OFFCURVE",
"145 186 OFFCURVE",
"192 193 CURVE SMOOTH",
"204 195 OFFCURVE",
"212 205 OFFCURVE",
"212 216 CURVE SMOOTH",
"212 228 OFFCURVE",
"204 238 OFFCURVE",
"192 238 CURVE SMOOTH",
"125 238 OFFCURVE",
"70 186 OFFCURVE",
"70 118 CURVE SMOOTH",
"70 54 OFFCURVE",
"120 0 OFFCURVE",
"204 0 CURVE SMOOTH",
"278 0 OFFCURVE",
"326 27 OFFCURVE",
"365 86 CURVE",
"407 29 OFFCURVE",
"452 0 OFFCURVE"
);
}
);
width = 702;
}
);
userData = {
com.typemytype.robofont.layerData = {
background = {
anchors = (
);
components = (
);
contours = (
);
lib = {
};
name = knVA.base;
unicodes = (
);
width = 702;
};
};
};
},
{
glyphname = "sha-kannada";
lastChange = "2016-04-03 03:33:41 +0000";
layers = (
{
layerId = "EE99E773-27DB-4D1B-BC83-5C5BC0C316FA";
paths = (
{
closed = 1;
nodes = (
"294 0 CURVE SMOOTH",
"405 0 OFFCURVE",
"478 42 OFFCURVE",
"506 70 CURVE SMOOTH",
"538 102 OFFCURVE",
"561 144 OFFCURVE",
"561 197 CURVE SMOOTH",
"561 266 OFFCURVE",
"525 348 OFFCURVE",
"441 410 CURVE",
"521 410 OFFCURVE",
"569 440 OFFCURVE",
"606 499 CURVE SMOOTH",
"608 503 OFFCURVE",
"609 507 OFFCURVE",
"609 511 CURVE SMOOTH",
"609 523 OFFCURVE",
"600 534 OFFCURVE",
"586 534 CURVE SMOOTH",
"578 534 OFFCURVE",
"571 530 OFFCURVE",
"566 523 CURVE SMOOTH",
"538 478 OFFCURVE",
"501 456 OFFCURVE",
"438 456 CURVE SMOOTH",
"89 456 LINE SMOOTH",
"77 456 OFFCURVE",
"66 445 OFFCURVE",
"66 433 CURVE SMOOTH",
"66 421 OFFCURVE",
"77 410 OFFCURVE",
"89 410 CURVE SMOOTH",
"197 410 LINE",
"181 396 OFFCURVE",
"168 378 OFFCURVE",
"159 356 CURVE SMOOTH",
"157 351 OFFCURVE",
"156 347 OFFCURVE",
"156 344 CURVE SMOOTH",
"156 332 OFFCURVE",
"167 322 OFFCURVE",
"179 322 CURVE SMOOTH",
"188 322 OFFCURVE",
"196 327 OFFCURVE",
"200 336 CURVE SMOOTH",
"216 371 OFFCURVE",
"242 396 OFFCURVE",
"274 396 CURVE SMOOTH",
"308 396 OFFCURVE",
"339 370 OFFCURVE",
"339 331 CURVE SMOOTH",
"339 287 OFFCURVE",
"311 255 OFFCURVE",
"253 249 CURVE SMOOTH",
"157 239 OFFCURVE",
"128 221 OFFCURVE",
"109 202 CURVE SMOOTH",
"90 183 OFFCURVE",
"79 158 OFFCURVE",
"79 126 CURVE SMOOTH",
"79 73 OFFCURVE",
"112 0 OFFCURVE"
);
},
{
closed = 1;
nodes = (
"294 46 CURVE SMOOTH",
"178 46 OFFCURVE",
"125 85 OFFCURVE",
"125 126 CURVE SMOOTH",
"125 144 OFFCURVE",
"130 159 OFFCURVE",
"141 170 CURVE SMOOTH",
"156 185 OFFCURVE",
"183 195 OFFCURVE",
"259 203 CURVE SMOOTH",
"347 213 OFFCURVE",
"385 265 OFFCURVE",
"385 331 CURVE SMOOTH",
"385 362 OFFCURVE",
"373 389 OFFCURVE",
"355 408 CURVE",
"464 356 OFFCURVE",
"515 270 OFFCURVE",
"515 197 CURVE SMOOTH",
"515 158 OFFCURVE",
"498 126 OFFCURVE",
"474 102 CURVE SMOOTH",
"450 78 OFFCURVE",
"387 46 OFFCURVE"
);
}
);
width = 649;
}
);
unicode = 0CB6;
userData = {
com.typemytype.robofont.layerData = {
background = {
anchors = (
);
components = (
);
contours = (
);
lib = {
};
name = knSHA;
unicodes = (
);
width = 649;
};
};
};
},
{
glyphname = "sha-kannada.base";
lastChange = "2016-04-03 03:42:01 +0000";
layers = (
{
layerId = "EE99E773-27DB-4D1B-BC83-5C5BC0C316FA";
paths = (
{
closed = 1;
nodes = (
"294 0 CURVE SMOOTH",
"405 0 OFFCURVE",
"478 42 OFFCURVE",
"506 70 CURVE SMOOTH",
"538 102 OFFCURVE",
"561 144 OFFCURVE",
"561 197 CURVE SMOOTH",
"561 266 OFFCURVE",
"525 349 OFFCURVE",
"441 410 CURVE",
"450 410 OFFCURVE",
"461 421 OFFCURVE",
"461 433 CURVE SMOOTH",
"461 445 OFFCURVE",
"450 456 OFFCURVE",
"438 456 CURVE SMOOTH",
"89 456 LINE SMOOTH",
"77 456 OFFCURVE",
"66 445 OFFCURVE",
"66 433 CURVE SMOOTH",
"66 421 OFFCURVE",
"77 410 OFFCURVE",
"89 410 CURVE SMOOTH",
"197 410 LINE",
"181 396 OFFCURVE",
"168 377 OFFCURVE",
"158 354 CURVE SMOOTH",
"157 351 OFFCURVE",
"156 348 OFFCURVE",
"156 345 CURVE SMOOTH",
"156 333 OFFCURVE",
"167 322 OFFCURVE",
"179 322 CURVE SMOOTH",
"188 322 OFFCURVE",
"196 327 OFFCURVE",
"200 336 CURVE SMOOTH",
"216 371 OFFCURVE",
"242 396 OFFCURVE",
"274 396 CURVE SMOOTH",
"308 396 OFFCURVE",
"339 370 OFFCURVE",
"339 331 CURVE SMOOTH",
"339 287 OFFCURVE",
"311 255 OFFCURVE",
"253 249 CURVE SMOOTH",
"157 239 OFFCURVE",
"128 221 OFFCURVE",
"109 202 CURVE SMOOTH",
"90 183 OFFCURVE",
"79 158 OFFCURVE",
"79 126 CURVE SMOOTH",
"79 73 OFFCURVE",
"112 0 OFFCURVE"
);
},
{
closed = 1;
nodes = (
"294 46 CURVE SMOOTH",
"178 46 OFFCURVE",
"125 85 OFFCURVE",
"125 126 CURVE SMOOTH",
"125 144 OFFCURVE",
"130 159 OFFCURVE",
"141 170 CURVE SMOOTH",
"156 185 OFFCURVE",
"183 195 OFFCURVE",
"259 203 CURVE SMOOTH",
"347 213 OFFCURVE",
"385 265 OFFCURVE",
"385 331 CURVE SMOOTH",
"385 362 OFFCURVE",
"373 389 OFFCURVE",
"355 408 CURVE",
"464 356 OFFCURVE",
"515 270 OFFCURVE",
"515 197 CURVE SMOOTH",
"515 158 OFFCURVE",
"498 126 OFFCURVE",
"474 102 CURVE SMOOTH",
"450 78 OFFCURVE",
"387 46 OFFCURVE"
);
}
);
width = 634;
}
);
userData = {
com.typemytype.robofont.layerData = {
background = {
anchors = (
);
components = (
);
contours = (
);
lib = {
};
name = knSHA.base;
unicodes = (
);
width = 634;
};
};
};
},
{
glyphname = "ssa-kannada";
lastChange = "2016-04-03 03:33:41 +0000";
layers = (
{
layerId = "EE99E773-27DB-4D1B-BC83-5C5BC0C316FA";
paths = (
{
closed = 1;
nodes = (
"383 246 CURVE SMOOTH",
"459 246 OFFCURVE",
"498 297 OFFCURVE",
"498 353 CURVE SMOOTH",
"498 371 OFFCURVE",
"494 391 OFFCURVE",
"484 410 CURVE",
"521 410 LINE SMOOTH",
"604 410 OFFCURVE",
"652 440 OFFCURVE",
"689 499 CURVE SMOOTH",
"691 503 OFFCURVE",
"692 507 OFFCURVE",
"692 511 CURVE SMOOTH",
"692 524 OFFCURVE",
"682 534 OFFCURVE",
"669 534 CURVE SMOOTH",
"661 534 OFFCURVE",
"654 530 OFFCURVE",
"649 523 CURVE SMOOTH",
"621 478 OFFCURVE",
"584 456 OFFCURVE",
"521 456 CURVE SMOOTH",
"106 456 LINE SMOOTH",
"94 456 OFFCURVE",
"83 445 OFFCURVE",
"83 433 CURVE SMOOTH",
"83 421 OFFCURVE",
"94 410 OFFCURVE",
"106 410 CURVE SMOOTH",
"283 410 LINE",
"272 390 OFFCURVE",
"268 370 OFFCURVE",
"268 352 CURVE SMOOTH",
"268 298 OFFCURVE",
"309 246 OFFCURVE"
);
},
{
closed = 1;
nodes = (
"383 292 CURVE SMOOTH",
"341 292 OFFCURVE",
"314 320 OFFCURVE",
"314 352 CURVE SMOOTH",
"314 371 OFFCURVE",
"321 392 OFFCURVE",
"340 410 CURVE",
"428 410 LINE",
"446 391 OFFCURVE",
"452 371 OFFCURVE",
"452 353 CURVE SMOOTH",
"452 319 OFFCURVE",
"427 292 OFFCURVE"
);
},
{
closed = 1;
nodes = (
"661 -56 CURVE SMOOTH",
"674 -56 OFFCURVE",
"684 -45 OFFCURVE",
"684 -33 CURVE SMOOTH",
"684 -29 OFFCURVE",
"683 -24 OFFCURVE",
"680 -20 CURVE",
"644 35 LINE",
"670 60 OFFCURVE",
"685 97 OFFCURVE",
"685 141 CURVE SMOOTH",
"685 180 OFFCURVE",
"674 217 OFFCURVE",
"661 246 CURVE SMOOTH",
"657 254 OFFCURVE",
"649 259 OFFCURVE",
"640 259 CURVE SMOOTH",
"626 259 OFFCURVE",
"617 248 OFFCURVE",
"617 236 CURVE SMOOTH",
"617 232 OFFCURVE",
"618 229 OFFCURVE",
"622 220 CURVE SMOOTH",
"630 203 OFFCURVE",
"639 172 OFFCURVE",
"639 141 CURVE SMOOTH",
"639 115 OFFCURVE",
"631 92 OFFCURVE",
"617 75 CURVE",
"532 203 LINE SMOOTH",
"528 209 OFFCURVE",
"520 213 OFFCURVE",
"513 213 CURVE SMOOTH",
"500 213 OFFCURVE",
"490 202 OFFCURVE",
"490 190 CURVE SMOOTH",
"490 186 OFFCURVE",
"491 181 OFFCURVE",
"494 177 CURVE",
"578 50 LINE",
"569 48 OFFCURVE",
"558 46 OFFCURVE",
"547 46 CURVE SMOOTH",
"482 46 OFFCURVE",
"442 79 OFFCURVE",
"405 136 CURVE SMOOTH",
"401 143 OFFCURVE",
"394 147 OFFCURVE",
"386 147 CURVE SMOOTH",
"381 147 LINE SMOOTH",
"374 147 OFFCURVE",
"366 143 OFFCURVE",
"362 137 CURVE SMOOTH",
"321 76 OFFCURVE",
"283 44 OFFCURVE",
"222 44 CURVE SMOOTH",
"164 44 OFFCURVE",
"126 75 OFFCURVE",
"126 118 CURVE SMOOTH",
"126 156 OFFCURVE",
"155 186 OFFCURVE",
"202 193 CURVE SMOOTH",
"214 195 OFFCURVE",
"222 205 OFFCURVE",
"222 216 CURVE SMOOTH",
"222 228 OFFCURVE",
"214 238 OFFCURVE",
"201 238 CURVE SMOOTH",
"137 238 OFFCURVE",
"80 188 OFFCURVE",
"80 118 CURVE SMOOTH",
"80 55 OFFCURVE",
"128 -2 OFFCURVE",
"222 -2 CURVE SMOOTH",
"289 -2 OFFCURVE",
"336 27 OFFCURVE",
"383 88 CURVE",
"426 31 OFFCURVE",
"475 0 OFFCURVE",
"547 0 CURVE SMOOTH",
"568 0 OFFCURVE",
"588 4 OFFCURVE",
"605 10 CURVE",
"642 -46 LINE SMOOTH",
"646 -52 OFFCURVE",
"654 -56 OFFCURVE"
);
}
);
width = 750;
}
);
unicode = 0CB7;
userData = {
com.typemytype.robofont.layerData = {
background = {
anchors = (
);
components = (
);
contours = (
);
lib = {
};
name = knSSA;
unicodes = (
);
width = 750;
};
};
};
},
{
glyphname = "ssa-kannada.base";
lastChange = "2016-04-03 03:42:01 +0000";
layers = (
{
layerId = "EE99E773-27DB-4D1B-BC83-5C5BC0C316FA";
paths = (
{
closed = 1;
nodes = (
"383 246 CURVE SMOOTH",
"459 246 OFFCURVE",
"498 297 OFFCURVE",
"498 353 CURVE SMOOTH",
"498 371 OFFCURVE",
"494 391 OFFCURVE",
"484 410 CURVE",
"521 410 LINE SMOOTH",
"533 410 OFFCURVE",
"544 421 OFFCURVE",
"544 433 CURVE SMOOTH",
"544 445 OFFCURVE",
"533 456 OFFCURVE",
"521 456 CURVE SMOOTH",
"106 456 LINE SMOOTH",
"94 456 OFFCURVE",
"83 445 OFFCURVE",
"83 433 CURVE SMOOTH",
"83 421 OFFCURVE",
"94 410 OFFCURVE",
"106 410 CURVE SMOOTH",
"283 410 LINE",
"272 390 OFFCURVE",
"268 370 OFFCURVE",
"268 352 CURVE SMOOTH",
"268 298 OFFCURVE",
"309 246 OFFCURVE"
);
},
{
closed = 1;
nodes = (
"383 292 CURVE SMOOTH",
"341 292 OFFCURVE",
"314 320 OFFCURVE",
"314 352 CURVE SMOOTH",
"314 371 OFFCURVE",
"321 392 OFFCURVE",
"340 410 CURVE",
"428 410 LINE",
"446 391 OFFCURVE",
"452 371 OFFCURVE",
"452 353 CURVE SMOOTH",
"452 319 OFFCURVE",
"427 292 OFFCURVE"
);
},
{
closed = 1;
nodes = (
"661 -56 CURVE SMOOTH",
"674 -56 OFFCURVE",
"684 -45 OFFCURVE",
"684 -33 CURVE SMOOTH",
"684 -29 OFFCURVE",
"683 -24 OFFCURVE",
"680 -20 CURVE SMOOTH",
"644 35 LINE",
"670 60 OFFCURVE",
"685 97 OFFCURVE",
"685 141 CURVE SMOOTH",
"685 180 OFFCURVE",
"674 217 OFFCURVE",
"661 246 CURVE SMOOTH",
"657 254 OFFCURVE",
"649 259 OFFCURVE",
"640 259 CURVE SMOOTH",
"625 259 OFFCURVE",
"617 248 OFFCURVE",
"617 236 CURVE SMOOTH",
"617 232 OFFCURVE",
"618 229 OFFCURVE",
"622 220 CURVE SMOOTH",
"630 203 OFFCURVE",
"639 172 OFFCURVE",
"639 141 CURVE SMOOTH",
"639 115 OFFCURVE",
"631 92 OFFCURVE",
"617 75 CURVE",
"532 203 LINE SMOOTH",
"528 209 OFFCURVE",
"520 213 OFFCURVE",
"513 213 CURVE SMOOTH",
"500 213 OFFCURVE",
"490 202 OFFCURVE",
"490 190 CURVE SMOOTH",
"490 186 OFFCURVE",
"491 181 OFFCURVE",
"494 177 CURVE SMOOTH",
"578 50 LINE",
"569 48 OFFCURVE",
"558 46 OFFCURVE",
"547 46 CURVE SMOOTH",
"482 46 OFFCURVE",
"442 79 OFFCURVE",
"405 136 CURVE",
"401 143 OFFCURVE",
"394 147 OFFCURVE",
"386 147 CURVE SMOOTH",
"381 147 LINE SMOOTH",
"374 147 OFFCURVE",
"366 143 OFFCURVE",
"362 137 CURVE SMOOTH",
"321 76 OFFCURVE",
"283 44 OFFCURVE",
"222 44 CURVE SMOOTH",
"164 44 OFFCURVE",
"126 75 OFFCURVE",
"126 118 CURVE SMOOTH",
"126 156 OFFCURVE",
"155 186 OFFCURVE",
"202 193 CURVE SMOOTH",
"214 195 OFFCURVE",
"222 205 OFFCURVE",
"222 216 CURVE SMOOTH",
"222 229 OFFCURVE",
"213 238 OFFCURVE",
"199 238 CURVE SMOOTH",
"137 238 OFFCURVE",
"80 188 OFFCURVE",
"80 118 CURVE SMOOTH",
"80 55 OFFCURVE",
"128 -2 OFFCURVE",
"222 -2 CURVE SMOOTH",
"289 -2 OFFCURVE",
"336 27 OFFCURVE",
"383 88 CURVE",
"426 31 OFFCURVE",
"475 0 OFFCURVE",
"547 0 CURVE SMOOTH",
"568 0 OFFCURVE",
"588 4 OFFCURVE",
"605 10 CURVE",
"642 -46 LINE SMOOTH",
"646 -52 OFFCURVE",
"654 -56 OFFCURVE"
);
}
);
width = 725;
}
);
userData = {
com.typemytype.robofont.layerData = {
background = {
anchors = (
);
components = (
);
contours = (
);
lib = {
};
name = knSSA.base;
unicodes = (
);
width = 725;
};
};
};
},
